<svg version="1.1" id="Layer_1" xmlns="http://www.w3.org/2000/svg" xmlns:xlink="http://www.w3.org/1999/xlink" x="0px" y="0px"
	 width="100%" viewBox="0 0 640 640" enable-background="new 0 0 640 640" xml:space="preserve">
<path fill="#FFFFFF" opacity="1.000000" stroke="none" 
	d="
M364.000000,641.000000 
	C242.666687,641.000000 121.833374,641.000000 1.000049,641.000000 
	C1.000032,427.666718 1.000032,214.333450 1.000016,1.000134 
	C214.333237,1.000090 427.666473,1.000090 640.999756,1.000045 
	C640.999878,214.333191 640.999878,427.666382 640.999939,640.999756 
	C548.833313,641.000000 456.666656,641.000000 364.000000,641.000000 
M158.974594,369.505310 
	C169.656616,375.491425 180.338623,381.477539 191.451202,387.704956 
	C191.451202,394.191040 191.451202,401.816437 191.451202,409.596405 
	C190.267822,409.806030 189.309128,409.972260 188.351776,410.145874 
	C143.366226,418.303741 112.817291,443.749878 97.101013,486.709686 
	C91.513092,501.983978 91.054840,518.002502 91.222679,534.065308 
	C91.355339,546.761353 94.245491,549.807068 106.737938,549.807190 
	C186.569748,549.807922 266.401550,549.807556 346.233368,549.807373 
	C347.566681,549.807373 348.902039,549.852051 350.232941,549.794495 
	C357.927094,549.461609 361.847565,545.556519 362.004272,537.913452 
	C362.106720,532.915710 362.154388,527.909912 361.999451,522.914795 
	C360.499695,474.563110 338.040985,439.602295 294.320923,418.953308 
	C284.257172,414.200226 273.016968,411.937958 261.777008,408.357056 
	C261.966034,408.968872 261.787994,408.658447 261.786041,408.346893 
	C261.749573,402.514923 261.949982,396.671051 261.633942,390.855103 
	C261.441040,387.304871 262.619659,385.734894 266.013275,384.447144 
	C301.458405,370.997101 324.831390,345.986603 336.824097,310.093079 
	C337.548187,307.925873 339.510834,305.581482 341.528076,304.530914 
	C357.615753,296.152679 364.212708,277.528473 355.948792,262.108215 
	C353.829773,258.154114 350.548431,254.822922 347.752472,251.141617 
	C348.619080,251.034393 349.455750,250.994949 350.263367,250.820755 
	C356.601746,249.453629 360.084717,245.350708 359.624268,239.832840 
	C359.186005,234.581100 355.260590,231.080750 349.051636,230.504593 
	C346.796509,230.295303 344.525421,230.258194 341.780640,230.117966 
	C341.780640,227.559906 341.817230,225.422165 341.775299,223.285965 
	C340.823456,174.787415 311.038208,132.389786 265.582001,115.464470 
	C260.385895,113.529747 258.412140,111.405220 258.740082,105.713020 
	C259.296936,96.048820 255.346359,92.442261 245.685196,92.409859 
	C233.185577,92.367943 220.685593,92.367996 208.185974,92.409790 
	C198.389328,92.442543 194.525360,95.952065 195.015350,105.618752 
	C195.306885,111.370216 193.876373,114.794067 187.891754,115.526062 
	C187.407120,115.585327 186.936951,115.813026 186.474869,115.999229 
	C144.497437,132.915161 119.552139,163.493744 112.722115,208.398224 
	C111.634224,215.550629 111.588104,222.861496 111.066452,230.015533 
	C98.266800,231.430069 94.364136,233.523453 94.356323,239.817184 
	C94.352951,242.528732 95.574890,245.865067 97.419182,247.785004 
	C99.367088,249.812790 102.719444,250.491440 105.566841,251.809723 
	C105.195198,252.203995 104.764961,252.683853 104.310318,253.139359 
	C87.399902,270.079987 91.361465,293.993500 112.746208,305.033600 
	C114.473907,305.925537 115.983643,308.207458 116.590286,310.156128 
	C124.127716,334.367737 138.255737,353.841461 158.974594,369.505310 
M535.582825,497.108582 
	C545.901123,479.972778 550.759216,461.347046 550.774292,441.402374 
	C550.782776,430.237762 550.781250,419.073181 550.781555,407.908569 
	C550.782043,391.744873 550.838684,375.580872 550.755859,359.417603 
	C550.710999,350.660522 546.967529,346.951508 538.251709,346.875885 
	C529.087463,346.796356 519.921936,346.856720 510.756958,346.856018 
	C509.159424,346.855896 507.561890,346.856018 505.499573,346.856018 
	C505.499573,344.136932 505.507111,342.165558 505.498444,340.194214 
	C505.384949,314.369843 505.852234,288.525360 504.961304,262.727783 
	C504.301300,243.616196 487.510254,228.979553 468.287537,228.942017 
	C448.841919,228.904037 431.962311,243.693161 431.342224,262.998962 
	C430.513458,288.800049 430.956116,314.641998 430.854553,340.466400 
	C430.846924,342.406921 430.853546,344.347504 430.853546,346.602814 
	C428.593292,346.706848 426.971466,346.842255 425.349304,346.846130 
	C416.184387,346.868073 407.018585,346.783478 397.854645,346.881683 
	C389.506561,346.971161 385.577271,350.813354 385.557678,359.156830 
	C385.491943,387.151398 385.303070,415.149139 385.629089,443.140228 
	C385.998505,474.857788 397.871338,501.985474 422.182159,522.219727 
	C434.712646,532.649048 449.720978,540.181274 463.980438,548.377563 
	C466.479340,549.813904 471.250122,548.975586 474.220795,547.584412 
	C481.745117,544.060791 488.896667,539.718811 496.100159,535.536865 
	C512.241150,526.166260 525.549072,513.828491 535.582825,497.108582 
z"/>
<path fill="#0A2D76" opacity="1.000000" stroke="none" 
	d="
M158.686646,369.291382 
	C138.255737,353.841461 124.127716,334.367737 116.590286,310.156128 
	C115.983643,308.207458 114.473907,305.925537 112.746208,305.033600 
	C91.361465,293.993500 87.399902,270.079987 104.310318,253.139359 
	C104.764961,252.683853 105.195198,252.203995 105.566841,251.809723 
	C102.719444,250.491440 99.367088,249.812790 97.419182,247.785004 
	C95.574890,245.865067 94.352951,242.528732 94.356323,239.817184 
	C94.364136,233.523453 98.266800,231.430069 111.066452,230.015533 
	C111.588104,222.861496 111.634224,215.550629 112.722115,208.398224 
	C119.552139,163.493744 144.497437,132.915161 186.474869,115.999229 
	C186.936951,115.813026 187.407120,115.585327 187.891754,115.526062 
	C193.876373,114.794067 195.306885,111.370216 195.015350,105.618752 
	C194.525360,95.952065 198.389328,92.442543 208.185974,92.409790 
	C220.685593,92.367996 233.185577,92.367943 245.685196,92.409859 
	C255.346359,92.442261 259.296936,96.048820 258.740082,105.713020 
	C258.412140,111.405220 260.385895,113.529747 265.582001,115.464470 
	C311.038208,132.389786 340.823456,174.787415 341.775299,223.285965 
	C341.817230,225.422165 341.780640,227.559906 341.780640,230.117966 
	C344.525421,230.258194 346.796509,230.295303 349.051636,230.504593 
	C355.260590,231.080750 359.186005,234.581100 359.624268,239.832840 
	C360.084717,245.350708 356.601746,249.453629 350.263367,250.820755 
	C349.455750,250.994949 348.619080,251.034393 347.752472,251.141617 
	C350.548431,254.822922 353.829773,258.154114 355.948792,262.108215 
	C364.212708,277.528473 357.615753,296.152679 341.528076,304.530914 
	C339.510834,305.581482 337.548187,307.925873 336.824097,310.093079 
	C324.831390,345.986603 301.458405,370.997101 266.013275,384.447144 
	C262.619659,385.734894 261.441040,387.304871 261.633942,390.855103 
	C261.949982,396.671051 261.749573,402.514923 261.786041,408.346893 
	C261.787994,408.658447 261.966034,408.968872 261.777008,408.357056 
	C273.016968,411.937958 284.257172,414.200226 294.320923,418.953308 
	C338.040985,439.602295 360.499695,474.563110 361.999451,522.914795 
	C362.154388,527.909912 362.106720,532.915710 362.004272,537.913452 
	C361.847565,545.556519 357.927094,549.461609 350.232941,549.794495 
	C348.902039,549.852051 347.566681,549.807373 346.233368,549.807373 
	C266.401550,549.807556 186.569748,549.807922 106.737938,549.807190 
	C94.245491,549.807068 91.355339,546.761353 91.222679,534.065308 
	C91.054840,518.002502 91.513092,501.983978 97.101013,486.709686 
	C112.817291,443.749878 143.366226,418.303741 188.351776,410.145874 
	C189.309128,409.972260 190.267822,409.806030 191.451202,409.596405 
	C191.451202,401.816437 191.451202,394.191040 191.451202,387.704956 
	C180.338623,381.477539 169.656616,375.491425 158.686646,369.291382 
M183.944809,230.302963 
	C190.349319,230.222748 196.753845,230.142532 204.052200,230.293442 
	C214.812378,230.223938 225.572540,230.154434 237.207321,230.264252 
	C241.502670,230.229767 245.798019,230.195297 251.000946,230.341537 
	C257.643738,230.270203 264.286560,230.198883 271.856506,230.338577 
	C288.230804,230.338577 304.605103,230.338577 320.880341,230.338577 
	C324.256683,190.061478 291.413544,140.184235 259.105316,135.627502 
	C258.945587,138.779938 259.055267,141.965210 258.565308,145.055420 
	C257.791016,149.939117 253.599304,153.252075 248.744629,153.272690 
	C243.738083,153.293945 239.772110,150.165833 238.868317,145.195969 
	C238.455246,142.924545 238.397522,140.567825 238.382278,138.248459 
	C238.327927,129.983795 238.361023,121.718582 238.361023,113.381966 
	C230.438477,113.381966 223.089249,113.381966 215.519226,113.381966 
	C215.519226,122.768738 215.539948,131.749634 215.511215,140.730377 
	C215.494797,145.861588 214.205200,150.517365 208.942429,152.545410 
	C203.839920,154.511703 199.525894,152.737320 195.988388,147.834381 
	C195.458588,143.755096 194.928787,139.675812 194.399246,135.598465 
	C160.541962,140.853149 124.429985,196.002686 132.793640,230.082199 
	C149.511917,230.082199 166.273605,230.082199 183.944809,230.302963 
M278.721619,434.525421 
	C270.620605,432.973450 262.564880,430.453918 254.409119,430.072510 
	C237.848450,429.298035 221.232895,429.537170 204.641632,429.637085 
	C194.361176,429.698975 184.145752,430.626740 173.844604,434.905609 
	C167.213074,438.302429 160.581543,441.699280 153.289169,445.215759 
	C121.614693,465.817841 108.850220,503.206207 112.651535,528.920349 
	C126.427261,528.920349 140.228653,528.920349 154.954437,529.061707 
	C196.238876,529.077942 237.523331,529.104553 278.807770,529.100159 
	C285.794556,529.099426 292.781372,528.964783 300.727966,529.063416 
	C314.264160,529.063416 327.800385,529.063416 341.426025,529.063416 
	C341.551910,527.469666 341.700592,526.654419 341.665802,525.847046 
	C341.494232,521.865601 341.465942,517.865601 341.040405,513.909424 
	C337.907654,484.784454 324.547668,461.751770 299.561188,444.987885 
	C292.813690,441.668915 286.066223,438.349976 278.721619,434.525421 
M262.700867,363.801331 
	C292.252197,350.841217 311.065369,328.755890 318.721619,297.392883 
	C320.189117,291.381287 323.087372,287.703461 329.370392,286.510559 
	C335.368011,285.371887 338.877441,281.136200 338.881470,276.036072 
	C338.885040,271.505768 335.513977,267.691650 330.014862,266.004242 
	C323.756104,264.083679 321.720764,261.539490 321.166321,254.946259 
	C321.071106,253.813736 320.970764,252.681656 320.823975,250.985733 
	C318.725891,250.985733 316.772614,250.985733 314.819366,250.985733 
	C278.705994,250.985733 242.592575,250.967331 206.479202,250.994232 
	C190.672836,251.006012 174.866547,251.110443 158.122391,251.026993 
	C149.530670,251.026993 140.938965,251.026993 131.857758,251.026993 
	C133.317612,260.537323 129.094116,264.973938 120.756363,266.974274 
	C116.273323,268.049805 114.396622,272.098602 114.750450,276.766327 
	C115.133667,281.821838 117.754837,285.361267 122.811264,286.175354 
	C130.135574,287.354584 133.411560,291.623474 134.973938,298.651733 
	C139.022293,316.863037 148.276627,332.283264 161.771805,345.101196 
	C173.326752,356.076263 186.818222,363.681427 202.288376,367.733582 
	C210.051041,369.766876 212.030182,372.423309 212.095428,380.429871 
	C212.130722,384.760620 212.102524,389.091949 212.102676,393.423004 
	C212.102859,398.513245 212.102722,403.603455 212.102722,408.582611 
	C222.185883,408.582611 231.426392,408.582611 240.527618,408.582611 
	C240.766510,407.888489 240.963989,407.580444 240.965561,407.271423 
	C241.013168,397.944672 240.973267,388.616852 241.097290,379.291260 
	C241.176880,373.308502 244.046082,369.772919 249.740295,367.968811 
	C253.845581,366.668121 257.905426,365.224060 262.700867,363.801331 
z"/>
<path fill="#092D77" opacity="1.000000" stroke="none" 
	d="
M535.387085,497.414795 
	C525.549072,513.828491 512.241150,526.166260 496.100159,535.536865 
	C488.896667,539.718811 481.745117,544.060791 474.220795,547.584412 
	C471.250122,548.975586 466.479340,549.813904 463.980438,548.377563 
	C449.720978,540.181274 434.712646,532.649048 422.182159,522.219727 
	C397.871338,501.985474 385.998505,474.857788 385.629089,443.140228 
	C385.303070,415.149139 385.491943,387.151398 385.557678,359.156830 
	C385.577271,350.813354 389.506561,346.971161 397.854645,346.881683 
	C407.018585,346.783478 416.184387,346.868073 425.349304,346.846130 
	C426.971466,346.842255 428.593292,346.706848 430.853546,346.602814 
	C430.853546,344.347504 430.846924,342.406921 430.854553,340.466400 
	C430.956116,314.641998 430.513458,288.800049 431.342224,262.998962 
	C431.962311,243.693161 448.841919,228.904037 468.287537,228.942017 
	C487.510254,228.979553 504.301300,243.616196 504.961304,262.727783 
	C505.852234,288.525360 505.384949,314.369843 505.498444,340.194214 
	C505.507111,342.165558 505.499573,344.136932 505.499573,346.856018 
	C507.561890,346.856018 509.159424,346.855896 510.756958,346.856018 
	C519.921936,346.856720 529.087463,346.796356 538.251709,346.875885 
	C546.967529,346.951508 550.710999,350.660522 550.755859,359.417603 
	C550.838684,375.580872 550.782043,391.744873 550.781555,407.908569 
	C550.781250,419.073181 550.782776,430.237762 550.774292,441.402374 
	C550.759216,461.347046 545.901123,479.972778 535.387085,497.414795 
M527.513367,462.324738 
	C528.311340,457.576508 529.743774,452.836029 529.801819,448.078766 
	C530.120605,421.935913 530.105896,395.788971 530.183960,369.643372 
	C530.185852,369.021545 529.933167,368.398926 529.757996,367.585266 
	C512.725830,367.585266 495.834778,367.585266 478.345978,367.585266 
	C478.345978,369.652771 478.346008,371.434418 478.345978,373.216095 
	C478.345642,388.538727 478.553406,403.866425 478.181885,419.180054 
	C478.100616,422.528778 476.837524,426.864746 474.505096,428.853851 
	C472.223572,430.799561 467.619598,431.414032 464.505951,430.662292 
	C459.948822,429.562103 457.954956,425.401245 457.958984,420.572845 
	C457.972107,404.750580 457.958771,388.928284 457.955627,373.106018 
	C457.955292,371.343079 457.955566,369.580139 457.955566,367.638885 
	C440.358459,367.638885 423.476471,367.638885 406.413116,367.638885 
	C406.287933,368.928040 406.112488,369.895538 406.112000,370.863098 
	C406.099854,394.679810 405.913239,418.499084 406.234863,442.311493 
	C406.323669,448.888000 407.936157,455.443909 408.766144,462.816864 
	C412.278625,471.197693 415.048645,479.994507 419.461334,487.871002 
	C428.108795,503.306396 442.333344,512.776550 457.161469,521.777222 
	C465.116119,526.605774 470.942413,526.769958 479.029633,521.881287 
	C494.180054,512.722961 508.593994,503.005920 517.315613,487.213654 
	C521.496643,479.643036 523.923340,471.103607 527.513367,462.324738 
M485.025116,295.500000 
	C485.023529,285.844360 485.119781,276.187469 484.993073,266.533478 
	C484.864380,256.728851 477.388428,249.201508 468.029358,249.199158 
	C459.129669,249.196930 451.277802,256.926300 451.228912,266.300995 
	C451.096039,291.771179 451.225281,317.242676 451.131622,342.713226 
	C451.119324,346.051727 452.423828,347.029694 455.581085,346.974945 
	C463.902405,346.830505 472.231750,346.778656 480.549866,346.996857 
	C484.060425,347.088989 485.131592,345.944733 485.094543,342.446777 
	C484.932343,327.132660 485.024994,311.815826 485.025116,295.500000 
z"/>
<path fill="#D36B5C" opacity="1.000000" stroke="none" 
	d="
M159.060211,251.172791 
	C174.866547,251.110443 190.672836,251.006012 206.479202,250.994232 
	C242.592575,250.967331 278.705994,250.985733 314.819366,250.985733 
	C316.772614,250.985733 318.725891,250.985733 320.823975,250.985733 
	C320.970764,252.681656 321.071106,253.813736 321.166321,254.946259 
	C321.720764,261.539490 323.756104,264.083679 330.014862,266.004242 
	C335.513977,267.691650 338.885040,271.505768 338.881470,276.036072 
	C338.877441,281.136200 335.368011,285.371887 329.370392,286.510559 
	C323.087372,287.703461 320.189117,291.381287 318.721619,297.392883 
	C311.065369,328.755890 292.252197,350.841217 262.091858,363.577881 
	C230.222900,353.074615 204.107849,335.402710 184.460114,308.841248 
	C171.700424,291.591614 163.243347,272.282379 159.060211,251.172791 
z"/>
<path fill="#D2DAFA" opacity="1.000000" stroke="none" 
	d="
M153.950012,445.096130 
	C160.581543,441.699280 167.213074,438.302429 174.252777,435.358032 
	C174.660934,450.207458 174.660934,464.604462 174.660934,478.752472 
	C175.945007,479.072418 176.265717,479.222015 176.586578,479.222321 
	C209.561081,479.256409 242.535736,479.242981 275.509949,479.357117 
	C278.921844,479.368927 279.180328,477.645630 279.177521,474.991394 
	C279.163422,461.671326 279.260620,448.351135 279.318726,435.031006 
	C286.066223,438.349976 292.813690,441.668915 299.709534,445.717133 
	C299.827972,473.928253 299.798065,501.410095 299.768158,528.891968 
	C292.781372,528.964783 285.794556,529.099426 278.807770,529.100159 
	C237.523331,529.104553 196.238876,529.077942 154.488373,528.527954 
	C153.998215,500.361450 153.974106,472.728790 153.950012,445.096130 
z"/>
<path fill="#FBCA50" opacity="1.000000" stroke="none" 
	d="
M250.093353,230.160828 
	C245.798019,230.195297 241.502670,230.229767 236.563477,229.880951 
	C222.996353,217.304825 212.409714,203.466293 205.413940,186.987549 
	C200.189117,174.680267 196.923553,161.950378 196.116760,148.598801 
	C199.525894,152.737320 203.839920,154.511703 208.942429,152.545410 
	C214.205200,150.517365 215.494797,145.861588 215.511215,140.730377 
	C215.539948,131.749634 215.519226,122.768738 215.519226,113.381966 
	C223.089249,113.381966 230.438477,113.381966 238.361023,113.381966 
	C238.361023,121.718582 238.327927,129.983795 238.382278,138.248459 
	C238.397522,140.567825 238.455246,142.924545 238.868317,145.195969 
	C239.772110,150.165833 243.738083,153.293945 248.744629,153.272690 
	C253.599304,153.252075 257.791016,149.939117 258.565308,145.055420 
	C259.055267,141.965210 258.945587,138.779938 259.105316,135.627502 
	C291.413544,140.184235 324.256683,190.061478 320.880341,230.338577 
	C304.605103,230.338577 288.230804,230.338577 271.402344,229.755066 
	C270.951080,220.863510 271.088287,212.552719 270.918091,204.248199 
	C270.756836,196.381378 264.661133,191.363388 257.854462,193.198212 
	C253.293991,194.427551 250.194611,199.030441 250.106705,205.237137 
	C249.989075,213.543427 250.087646,221.852783 250.093353,230.160828 
z"/>
<path fill="#B45348" opacity="1.000000" stroke="none" 
	d="
M158.591309,251.099899 
	C163.243347,272.282379 171.700424,291.591614 184.460114,308.841248 
	C204.107849,335.402710 230.222900,353.074615 261.734192,363.599182 
	C257.905426,365.224060 253.845581,366.668121 249.740295,367.968811 
	C244.046082,369.772919 241.176880,373.308502 241.097290,379.291260 
	C240.973267,388.616852 241.013168,397.944672 240.965561,407.271423 
	C240.963989,407.580444 240.766510,407.888489 240.527618,408.582611 
	C231.426392,408.582611 222.185883,408.582611 212.102722,408.582611 
	C212.102722,403.603455 212.102859,398.513245 212.102676,393.423004 
	C212.102524,389.091949 212.130722,384.760620 212.095428,380.429871 
	C212.030182,372.423309 210.051041,369.766876 202.288376,367.733582 
	C186.818222,363.681427 173.326752,356.076263 161.771805,345.101196 
	C148.276627,332.283264 139.022293,316.863037 134.973938,298.651733 
	C133.411560,291.623474 130.135574,287.354584 122.811264,286.175354 
	C117.754837,285.361267 115.133667,281.821838 114.750450,276.766327 
	C114.396622,272.098602 116.273323,268.049805 120.756363,266.974274 
	C129.094116,264.973938 133.317612,260.537323 131.857758,251.026993 
	C140.938965,251.026993 149.530670,251.026993 158.591309,251.099899 
z"/>
<path fill="#FC6050" opacity="1.000000" stroke="none" 
	d="
M279.020172,434.778198 
	C279.260620,448.351135 279.163422,461.671326 279.177521,474.991394 
	C279.180328,477.645630 278.921844,479.368927 275.509949,479.357117 
	C242.535736,479.242981 209.561081,479.256409 176.586578,479.222321 
	C176.265717,479.222015 175.945007,479.072418 174.660934,478.752472 
	C174.660934,464.604462 174.660934,450.207458 174.604248,435.333252 
	C184.145752,430.626740 194.361176,429.698975 204.641632,429.637085 
	C221.232895,429.537170 237.848450,429.298035 254.409119,430.072510 
	C262.564880,430.453918 270.620605,432.973450 279.020172,434.778198 
z"/>
<path fill="#FC8E02" opacity="1.000000" stroke="none" 
	d="
M196.052582,148.216583 
	C196.923553,161.950378 200.189117,174.680267 205.413940,186.987549 
	C212.409714,203.466293 222.996353,217.304825 236.126160,229.791290 
	C225.572540,230.154434 214.812378,230.223938 203.578552,229.704437 
	C203.091873,220.296814 203.216736,211.475189 203.024475,202.660477 
	C202.854309,194.858795 195.308212,190.554993 188.506241,194.195709 
	C184.341354,196.424927 183.048996,200.262009 183.016159,204.625076 
	C182.952271,213.110260 183.021317,221.596436 183.035309,230.082199 
	C166.273605,230.082199 149.511917,230.082199 132.793640,230.082199 
	C124.429985,196.002686 160.541962,140.853149 194.399246,135.598465 
	C194.928787,139.675812 195.458588,143.755096 196.052582,148.216583 
z"/>
<path fill="#FB6051" opacity="1.000000" stroke="none" 
	d="
M153.619583,445.155945 
	C153.974106,472.728790 153.998215,500.361450 154.026184,528.457275 
	C140.228653,528.920349 126.427261,528.920349 112.651535,528.920349 
	C108.850220,503.206207 121.614693,465.817841 153.619583,445.155945 
z"/>
<path fill="#FA6051" opacity="1.000000" stroke="none" 
	d="
M300.248047,528.977661 
	C299.798065,501.410095 299.827972,473.928253 299.934174,445.940491 
	C324.547668,461.751770 337.907654,484.784454 341.040405,513.909424 
	C341.465942,517.865601 341.494232,521.865601 341.665802,525.847046 
	C341.700592,526.654419 341.551910,527.469666 341.426025,529.063416 
	C327.800385,529.063416 314.264160,529.063416 300.248047,528.977661 
z"/>
<path fill="#FB6450" opacity="1.000000" stroke="none" 
	d="
M250.547150,230.251175 
	C250.087646,221.852783 249.989075,213.543427 250.106705,205.237137 
	C250.194611,199.030441 253.293991,194.427551 257.854462,193.198212 
	C264.661133,191.363388 270.756836,196.381378 270.918091,204.248199 
	C271.088287,212.552719 270.951080,220.863510 270.938782,229.649567 
	C264.286560,230.198883 257.643738,230.270203 250.547150,230.251175 
z"/>
<path fill="#FD614F" opacity="1.000000" stroke="none" 
	d="
M183.490051,230.192581 
	C183.021317,221.596436 182.952271,213.110260 183.016159,204.625076 
	C183.048996,200.262009 184.341354,196.424927 188.506241,194.195709 
	C195.308212,190.554993 202.854309,194.858795 203.024475,202.660477 
	C203.216736,211.475189 203.091873,220.296814 203.131638,229.588867 
	C196.753845,230.142532 190.349319,230.222748 183.490051,230.192581 
z"/>
<path fill="#D0DAFC" opacity="1.000000" stroke="none" 
	d="
M408.849518,462.009277 
	C407.936157,455.443909 406.323669,448.888000 406.234863,442.311493 
	C405.913239,418.499084 406.099854,394.679810 406.112000,370.863098 
	C406.112488,369.895538 406.287933,368.928040 406.413116,367.638885 
	C423.476471,367.638885 440.358459,367.638885 457.955566,367.638885 
	C457.955566,369.580139 457.955292,371.343079 457.955627,373.106018 
	C457.958771,388.928284 457.972107,404.750580 457.958984,420.572845 
	C457.954956,425.401245 459.948822,429.562103 464.505951,430.662292 
	C467.619598,431.414032 472.223572,430.799561 474.505096,428.853851 
	C476.837524,426.864746 478.100616,422.528778 478.181885,419.180054 
	C478.553406,403.866425 478.345642,388.538727 478.345978,373.216095 
	C478.346008,371.434418 478.345978,369.652771 478.345978,367.585266 
	C495.834778,367.585266 512.725830,367.585266 529.757996,367.585266 
	C529.933167,368.398926 530.185852,369.021545 530.183960,369.643372 
	C530.105896,395.788971 530.120605,421.935913 529.801819,448.078766 
	C529.743774,452.836029 528.311340,457.576508 527.000488,462.771790 
	C514.219727,474.827698 500.230927,483.107056 483.414398,486.399536 
	C467.297913,489.555023 451.885101,487.682404 436.803436,481.432281 
	C426.042877,476.972961 417.179291,469.904480 408.849518,462.009277 
z"/>
<path fill="#6663F4" opacity="1.000000" stroke="none" 
	d="
M485.025146,296.000000 
	C485.024994,311.815826 484.932343,327.132660 485.094543,342.446777 
	C485.131592,345.944733 484.060425,347.088989 480.549866,346.996857 
	C472.231750,346.778656 463.902405,346.830505 455.581085,346.974945 
	C452.423828,347.029694 451.119324,346.051727 451.131622,342.713226 
	C451.225281,317.242676 451.096039,291.771179 451.228912,266.300995 
	C451.277802,256.926300 459.129669,249.196930 468.029358,249.199158 
	C477.388428,249.201508 484.864380,256.728851 484.993073,266.533478 
	C485.119781,276.187469 485.023529,285.844360 485.025146,296.000000 
z"/>
<path fill="#92B1F2" opacity="1.000000" stroke="none" 
	d="
M408.807831,462.413086 
	C417.179291,469.904480 426.042877,476.972961 436.803436,481.432281 
	C451.885101,487.682404 467.297913,489.555023 483.414398,486.399536 
	C500.230927,483.107056 514.219727,474.827698 526.816040,463.110901 
	C523.923340,471.103607 521.496643,479.643036 517.315613,487.213654 
	C508.593994,503.005920 494.180054,512.722961 479.029633,521.881287 
	C470.942413,526.769958 465.116119,526.605774 457.161469,521.777222 
	C442.333344,512.776550 428.108795,503.306396 419.461334,487.871002 
	C415.048645,479.994507 412.278625,471.197693 408.807831,462.413086 
z"/>
</svg>