<svg version="1.1" id="Layer_1" xmlns="http://www.w3.org/2000/svg" xmlns:xlink="http://www.w3.org/1999/xlink" x="0px" y="0px"
	 width="100%" viewBox="0 0 640 640" enable-background="new 0 0 640 640" xml:space="preserve">
<path fill="#FEFEFF" opacity="1.000000" stroke="none" 
	d="
M347.000000,641.000000 
	C231.333359,641.000000 116.166710,641.000000 1.000046,641.000000 
	C1.000031,427.666718 1.000031,214.333450 1.000015,1.000132 
	C214.333237,1.000088 427.666473,1.000088 640.999756,1.000044 
	C640.999878,214.333191 640.999878,427.666382 640.999939,640.999756 
	C543.166687,641.000000 445.333344,641.000000 347.000000,641.000000 
M191.775711,215.597061 
	C214.044586,193.380554 236.313446,171.164047 258.758087,148.772202 
	C260.045685,149.947632 261.174500,150.898636 262.214050,151.938858 
	C283.419495,173.158295 304.630432,194.372299 325.804413,215.623138 
	C334.412262,224.262222 338.822235,224.318970 347.474731,215.647995 
	C380.554291,182.497620 413.625214,149.338608 446.703583,116.187035 
	C447.894867,114.993111 449.130005,113.842934 450.996521,112.044250 
	C450.996521,115.071724 450.996460,116.900139 450.996521,118.728554 
	C450.997162,133.728226 451.000336,148.727905 450.997040,163.727585 
	C450.996033,168.396255 452.381042,172.298172 457.040558,174.241074 
	C464.829437,177.488876 471.436401,172.535858 471.519226,162.861374 
	C471.730408,138.197495 471.712616,113.530830 471.630096,88.865799 
	C471.605652,81.562363 467.453400,77.190926 460.819031,77.173904 
	C435.486389,77.108887 410.153412,77.102196 384.820831,77.175362 
	C377.891418,77.195374 373.165375,81.576317 373.137085,87.572975 
	C373.110443,93.221672 377.852753,97.279968 384.702576,97.299652 
	C399.702118,97.342758 414.701904,97.313881 429.701569,97.314384 
	C431.454834,97.314438 433.208099,97.314384 434.399536,97.314384 
	C401.537476,130.399567 368.760864,163.398682 335.523712,196.861511 
	C334.852966,196.056061 333.879791,194.685898 332.709595,193.512161 
	C311.528778,172.267624 290.327057,151.043884 269.123291,129.822235 
	C260.908783,121.600800 256.696869,121.586075 248.590851,129.674118 
	C229.480835,148.741791 210.362732,167.801346 191.111252,185.954666 
	C191.094040,154.463211 191.078400,122.971764 191.058624,91.480316 
	C191.052811,82.218376 187.408554,77.186958 180.759369,77.238388 
	C174.248718,77.288742 170.693466,82.164330 170.692001,91.172653 
	C170.682343,150.989288 170.775101,210.806198 170.588486,270.622253 
	C170.561615,279.230713 174.098419,284.545593 184.287415,284.519196 
	C275.430206,284.283081 366.573822,284.381561 457.717224,284.381042 
	C458.883545,284.381042 460.051727,284.415039 461.215912,284.363098 
	C466.944702,284.107574 471.043365,280.134125 471.222595,274.690643 
	C471.412628,268.920166 467.533203,264.604523 461.585114,264.086121 
	C459.764618,263.927490 457.922699,263.993439 456.090576,263.993378 
	C369.779297,263.989777 283.467987,263.990234 197.156708,263.990234 
	C195.229919,263.990234 193.303116,263.990234 191.216187,263.990234 
	C191.216187,247.500824 191.216187,231.699036 191.775711,215.597061 
M532.280212,404.021393 
	C532.059631,399.036469 532.377991,393.957397 531.526672,389.082611 
	C527.489624,365.966522 507.779449,346.987762 484.777252,343.654633 
	C460.009125,340.065582 436.331360,351.952271 425.373352,373.476624 
	C414.162109,395.498352 418.043060,421.838776 435.192902,439.099457 
	C436.536316,440.451630 438.694824,440.993896 440.474487,441.912598 
	C421.560760,452.221191 408.289215,464.898102 398.375427,482.098938 
	C388.511841,464.665192 374.900055,452.164032 357.463654,443.631958 
	C386.414795,417.938812 380.808105,379.046265 361.835632,360.161224 
	C341.163757,339.584534 308.692627,337.049011 286.230957,354.888214 
	C274.960205,363.839508 267.449280,375.232788 265.227753,389.539001 
	C261.925171,410.807190 268.236633,428.945923 284.948090,443.563171 
	C266.804199,452.134308 253.525620,464.963470 243.568909,482.131866 
	C233.716141,464.511261 220.086380,452.222565 202.850937,443.677673 
	C233.446121,416.240540 224.507889,376.057343 205.769958,358.838165 
	C183.882599,338.724731 151.283569,337.514008 129.278152,356.709167 
	C118.542404,366.073883 111.807503,377.711243 110.138542,391.862762 
	C107.731415,412.273468 114.145500,429.611023 129.789230,443.145660 
	C129.187683,443.782471 129.003693,444.087006 128.733795,444.242615 
	C127.869133,444.741211 126.966599,445.173462 126.089401,445.651062 
	C100.097336,459.801819 83.996529,481.328979 80.012993,510.693268 
	C78.189430,524.135559 78.968536,537.945496 78.790512,551.591614 
	C78.663719,561.309814 82.288239,564.770081 91.998947,564.771118 
	C147.654297,564.776978 203.309647,564.774109 258.964996,564.774048 
	C355.954285,564.773987 452.943573,564.775574 549.932861,564.770447 
	C559.813477,564.769897 563.413147,561.179077 563.471375,551.210938 
	C563.519104,543.045288 563.549927,534.878357 563.468262,526.713196 
	C563.098755,489.793884 547.112122,462.238098 514.266663,444.812408 
	C513.623352,444.471161 513.096252,443.910645 512.179138,443.187775 
	C523.950806,432.775726 531.011292,420.330841 532.280212,404.021393 
z"/>
<path fill="#0B2E76" opacity="1.000000" stroke="none" 
	d="
M532.245605,404.463837 
	C531.011292,420.330841 523.950806,432.775726 512.179138,443.187775 
	C513.096252,443.910645 513.623352,444.471161 514.266663,444.812408 
	C547.112122,462.238098 563.098755,489.793884 563.468262,526.713196 
	C563.549927,534.878357 563.519104,543.045288 563.471375,551.210938 
	C563.413147,561.179077 559.813477,564.769897 549.932861,564.770447 
	C452.943573,564.775574 355.954285,564.773987 258.964996,564.774048 
	C203.309647,564.774109 147.654297,564.776978 91.998947,564.771118 
	C82.288239,564.770081 78.663719,561.309814 78.790512,551.591614 
	C78.968536,537.945496 78.189430,524.135559 80.012993,510.693268 
	C83.996529,481.328979 100.097336,459.801819 126.089401,445.651062 
	C126.966599,445.173462 127.869133,444.741211 128.733795,444.242615 
	C129.003693,444.087006 129.187683,443.782471 129.789230,443.145660 
	C114.145500,429.611023 107.731415,412.273468 110.138542,391.862762 
	C111.807503,377.711243 118.542404,366.073883 129.278152,356.709167 
	C151.283569,337.514008 183.882599,338.724731 205.769958,358.838165 
	C224.507889,376.057343 233.446121,416.240540 202.850937,443.677673 
	C220.086380,452.222565 233.716141,464.511261 243.568909,482.131866 
	C253.525620,464.963470 266.804199,452.134308 284.948090,443.563171 
	C268.236633,428.945923 261.925171,410.807190 265.227753,389.539001 
	C267.449280,375.232788 274.960205,363.839508 286.230957,354.888214 
	C308.692627,337.049011 341.163757,339.584534 361.835632,360.161224 
	C380.808105,379.046265 386.414795,417.938812 357.463654,443.631958 
	C374.900055,452.164032 388.511841,464.665192 398.375427,482.098938 
	C408.289215,464.898102 421.560760,452.221191 440.474487,441.912598 
	C438.694824,440.993896 436.536316,440.451630 435.192902,439.099457 
	C418.043060,421.838776 414.162109,395.498352 425.373352,373.476624 
	C436.331360,351.952271 460.009125,340.065582 484.777252,343.654633 
	C507.779449,346.987762 527.489624,365.966522 531.526672,389.082611 
	C532.377991,393.957397 532.059631,399.036469 532.245605,404.463837 
M341.500000,544.210449 
	C356.901947,544.210449 372.303894,544.210449 388.029327,544.210449 
	C388.029327,536.065308 388.233551,528.759705 387.995636,521.468445 
	C386.629028,479.585663 348.781525,449.005981 307.846222,457.659943 
	C267.404022,466.209686 248.391647,501.533966 254.671585,543.795654 
	C254.978287,543.903931 255.284836,544.106628 255.591705,544.107056 
	C283.894470,544.151550 312.197235,544.180542 341.500000,544.210449 
M439.458984,466.872437 
	C408.680176,488.655090 406.598419,514.876404 409.684082,543.843628 
	C453.915466,543.843628 498.138306,543.843628 542.295349,543.843628 
	C545.742126,513.406433 540.381653,486.231262 513.587341,468.111145 
	C489.861908,452.066498 464.906464,452.267975 439.458984,466.872437 
M126.499977,544.208374 
	C161.893631,544.208374 197.287292,544.208374 233.016403,544.208374 
	C233.016403,536.042175 232.939011,528.733093 233.029083,521.426086 
	C233.575943,477.062988 183.199127,438.327911 134.836868,464.374207 
	C100.140686,483.060455 96.958214,511.686371 99.744003,544.208557 
	C108.282967,544.208557 116.891464,544.208557 126.499977,544.208374 
M356.821838,394.939972 
	C356.354645,392.839874 356.035004,390.693817 355.396912,388.646973 
	C350.264954,372.184418 334.410767,362.117279 316.645264,363.975800 
	C300.140869,365.702393 286.695862,379.264862 285.146423,395.749847 
	C283.494537,413.324585 293.916077,429.466736 310.407898,434.220520 
	C336.698181,441.798645 359.848755,420.280853 356.821838,394.939972 
M511.767700,396.835114 
	C511.535522,395.191101 511.411713,393.523132 511.054535,391.906738 
	C507.272064,374.788574 491.592896,362.796753 474.287018,363.745880 
	C456.375946,364.728149 441.748810,377.994690 439.995636,394.847504 
	C438.061890,413.436127 448.907074,429.862762 466.211151,434.554749 
	C489.961243,440.994568 512.131775,423.092163 511.767700,396.835114 
M166.550217,435.710724 
	C184.978241,436.307800 201.838226,419.686157 202.348389,401.238403 
	C202.842255,383.380127 190.803772,367.648743 173.139984,364.277039 
	C155.134232,360.840088 137.344910,371.383942 131.919434,388.650238 
	C124.169731,413.313263 143.554428,436.163086 166.550217,435.710724 
z"/>
<path fill="#FD6252" opacity="1.000000" stroke="none" 
	d="
M191.247894,186.864182 
	C210.362732,167.801346 229.480835,148.741791 248.590851,129.674118 
	C256.696869,121.586075 260.908783,121.600800 269.123291,129.822235 
	C290.327057,151.043884 311.528778,172.267624 332.709595,193.512161 
	C333.879791,194.685898 334.852966,196.056061 335.523712,196.861511 
	C368.760864,163.398682 401.537476,130.399567 434.399536,97.314384 
	C433.208099,97.314384 431.454834,97.314438 429.701569,97.314384 
	C414.701904,97.313881 399.702118,97.342758 384.702576,97.299652 
	C377.852753,97.279968 373.110443,93.221672 373.137085,87.572975 
	C373.165375,81.576317 377.891418,77.195374 384.820831,77.175362 
	C410.153412,77.102196 435.486389,77.108887 460.819031,77.173904 
	C467.453400,77.190926 471.605652,81.562363 471.630096,88.865799 
	C471.712616,113.530830 471.730408,138.197495 471.519226,162.861374 
	C471.436401,172.535858 464.829437,177.488876 457.040558,174.241074 
	C452.381042,172.298172 450.996033,168.396255 450.997040,163.727585 
	C451.000336,148.727905 450.997162,133.728226 450.996521,118.728554 
	C450.996460,116.900139 450.996521,115.071724 450.996521,112.044250 
	C449.130005,113.842934 447.894867,114.993111 446.703583,116.187035 
	C413.625214,149.338608 380.554291,182.497620 347.474731,215.647995 
	C338.822235,224.318970 334.412262,224.262222 325.804413,215.623138 
	C304.630432,194.372299 283.419495,173.158295 262.214050,151.938858 
	C261.174500,150.898636 260.045685,149.947632 258.758087,148.772202 
	C236.313446,171.164047 214.044586,193.380554 191.418823,215.294693 
	C191.123917,205.616272 191.185913,196.240234 191.247894,186.864182 
z"/>
<path fill="#072B76" opacity="1.000000" stroke="none" 
	d="
M191.179565,186.409424 
	C191.185913,196.240234 191.123917,205.616272 191.139069,215.444794 
	C191.216187,231.699036 191.216187,247.500824 191.216187,263.990234 
	C193.303116,263.990234 195.229919,263.990234 197.156708,263.990234 
	C283.467987,263.990234 369.779297,263.989777 456.090576,263.993378 
	C457.922699,263.993439 459.764618,263.927490 461.585114,264.086121 
	C467.533203,264.604523 471.412628,268.920166 471.222595,274.690643 
	C471.043365,280.134125 466.944702,284.107574 461.215912,284.363098 
	C460.051727,284.415039 458.883545,284.381042 457.717224,284.381042 
	C366.573822,284.381561 275.430206,284.283081 184.287415,284.519196 
	C174.098419,284.545593 170.561615,279.230713 170.588486,270.622253 
	C170.775101,210.806198 170.682343,150.989288 170.692001,91.172653 
	C170.693466,82.164330 174.248718,77.288742 180.759369,77.238388 
	C187.408554,77.186958 191.052811,82.218376 191.058624,91.480316 
	C191.078400,122.971764 191.094040,154.463211 191.179565,186.409424 
z"/>
<path fill="#FB8E02" opacity="1.000000" stroke="none" 
	d="
M341.000000,544.210510 
	C312.197235,544.180542 283.894470,544.151550 255.591705,544.107056 
	C255.284836,544.106628 254.978287,543.903931 254.672638,543.792725 
	C248.391647,501.533966 267.404022,466.209686 307.846222,457.659943 
	C348.781525,449.005981 386.629028,479.585663 387.995636,521.468445 
	C388.233551,528.759705 388.029327,536.065308 388.029327,544.210449 
	C372.303894,544.210449 356.901947,544.210449 341.000000,544.210510 
z"/>
<path fill="#FB6050" opacity="1.000000" stroke="none" 
	d="
M439.765747,466.678589 
	C464.906464,452.267975 489.861908,452.066498 513.587341,468.111145 
	C540.381653,486.231262 545.742126,513.406433 542.295349,543.843628 
	C498.138306,543.843628 453.915466,543.843628 409.684082,543.843628 
	C406.598419,514.876404 408.680176,488.655090 439.765747,466.678589 
z"/>
<path fill="#FBCA50" opacity="1.000000" stroke="none" 
	d="
M125.999969,544.208496 
	C116.891464,544.208557 108.282967,544.208557 99.744003,544.208557 
	C96.958214,511.686371 100.140686,483.060455 134.836868,464.374207 
	C183.199127,438.327911 233.575943,477.062988 233.029083,521.426086 
	C232.939011,528.733093 233.016403,536.042175 233.016403,544.208374 
	C197.287292,544.208374 161.893631,544.208374 125.999969,544.208496 
z"/>
<path fill="#FA8E02" opacity="1.000000" stroke="none" 
	d="
M356.850403,395.391113 
	C359.848755,420.280853 336.698181,441.798645 310.407898,434.220520 
	C293.916077,429.466736 283.494537,413.324585 285.146423,395.749847 
	C286.695862,379.264862 300.140869,365.702393 316.645264,363.975800 
	C334.410767,362.117279 350.264954,372.184418 355.396912,388.646973 
	C356.035004,390.693817 356.354645,392.839874 356.850403,395.391113 
z"/>
<path fill="#FA5F50" opacity="1.000000" stroke="none" 
	d="
M511.794067,397.280518 
	C512.131775,423.092163 489.961243,440.994568 466.211151,434.554749 
	C448.907074,429.862762 438.061890,413.436127 439.995636,394.847504 
	C441.748810,377.994690 456.375946,364.728149 474.287018,363.745880 
	C491.592896,362.796753 507.272064,374.788574 511.054535,391.906738 
	C511.411713,393.523132 511.535522,395.191101 511.794067,397.280518 
z"/>
<path fill="#FAC950" opacity="1.000000" stroke="none" 
	d="
M166.122452,435.701416 
	C143.554428,436.163086 124.169731,413.313263 131.919434,388.650238 
	C137.344910,371.383942 155.134232,360.840088 173.139984,364.277039 
	C190.803772,367.648743 202.842255,383.380127 202.348389,401.238403 
	C201.838226,419.686157 184.978241,436.307800 166.122452,435.701416 
z"/>
</svg>