<svg version="1.1" id="Layer_1" xmlns="http://www.w3.org/2000/svg" xmlns:xlink="http://www.w3.org/1999/xlink" x="0px" y="0px"
	 width="100%" viewBox="0 0 640 640" enable-background="new 0 0 640 640" xml:space="preserve">
<path fill="#FEFFFF" opacity="1.000000" stroke="none" 
	d="
M342.000000,641.000000 
	C228.000015,641.000000 114.500038,641.000000 1.000046,641.000000 
	C1.000031,427.666718 1.000031,214.333450 1.000015,1.000132 
	C214.333237,1.000088 427.666473,1.000088 640.999756,1.000044 
	C640.999878,214.333191 640.999878,427.666382 640.999939,640.999756 
	C541.500000,641.000000 442.000000,641.000000 342.000000,641.000000 
M543.129639,468.487915 
	C543.129517,458.488647 543.168884,448.489136 543.117676,438.490143 
	C543.069885,429.160400 539.471497,425.644531 530.031311,425.486298 
	C528.113403,425.454163 526.197693,425.298798 524.200195,425.196075 
	C524.200195,367.718536 524.200195,310.811188 524.200195,253.316299 
	C533.287109,253.316299 542.079163,253.370575 550.870239,253.300735 
	C559.333923,253.233490 563.233582,249.552933 563.281799,241.248047 
	C563.387329,223.082870 563.243103,204.916214 563.350281,186.751068 
	C563.383972,181.046036 561.047668,177.447403 555.710449,175.238998 
	C479.131226,143.552872 402.603088,111.743080 325.972534,80.181923 
	C323.101562,78.999474 318.892639,79.003944 316.020416,80.186935 
	C239.548950,111.683266 163.181549,143.432129 86.757095,175.042908 
	C81.049118,177.403824 78.654991,181.140274 78.730606,187.313309 
	C78.946945,204.976486 78.784828,222.644089 78.815346,240.309875 
	C78.831558,249.693558 82.404083,253.265945 91.768921,253.308731 
	C100.395058,253.348129 109.021515,253.317108 117.873077,253.317108 
	C117.873077,310.911835 117.873077,367.994568 117.873077,425.496460 
	C115.491730,425.496460 113.359322,425.453278 111.229156,425.504059 
	C102.768410,425.705688 99.058571,429.404053 98.984505,437.767334 
	C98.934326,443.433289 98.974434,449.100037 98.974373,454.766449 
	C98.974274,464.050201 98.974350,473.333954 98.974350,483.033966 
	C96.641106,483.033966 94.848274,483.030884 93.055458,483.034454 
	C81.914154,483.056671 78.814735,486.149780 78.808861,497.298706 
	C78.799805,514.464539 78.803345,531.630432 78.807503,548.796265 
	C78.810287,560.305115 81.753326,563.228577 93.347473,563.228699 
	C245.173660,563.230225 396.999847,563.229797 548.826050,563.228455 
	C550.159180,563.228455 551.498901,563.293030 552.824280,563.186340 
	C559.335083,562.662476 563.127380,559.204773 563.192383,552.708374 
	C563.389221,533.045410 563.406128,513.377991 563.209229,493.715240 
	C563.141052,486.908905 558.931458,483.280792 551.932800,483.055908 
	C549.163452,482.966919 546.388855,483.041290 543.129700,483.041290 
	C543.129700,478.072418 543.129700,473.777466 543.129639,468.487915 
z"/>
<path fill="#072C77" opacity="1.000000" stroke="none" 
	d="
M543.129639,468.985229 
	C543.129700,473.777466 543.129700,478.072418 543.129700,483.041290 
	C546.388855,483.041290 549.163452,482.966919 551.932800,483.055908 
	C558.931458,483.280792 563.141052,486.908905 563.209229,493.715240 
	C563.406128,513.377991 563.389221,533.045410 563.192383,552.708374 
	C563.127380,559.204773 559.335083,562.662476 552.824280,563.186340 
	C551.498901,563.293030 550.159180,563.228455 548.826050,563.228455 
	C396.999847,563.229797 245.173660,563.230225 93.347473,563.228699 
	C81.753326,563.228577 78.810287,560.305115 78.807503,548.796265 
	C78.803345,531.630432 78.799805,514.464539 78.808861,497.298706 
	C78.814735,486.149780 81.914154,483.056671 93.055458,483.034454 
	C94.848274,483.030884 96.641106,483.033966 98.974350,483.033966 
	C98.974350,473.333954 98.974274,464.050201 98.974373,454.766449 
	C98.974434,449.100037 98.934326,443.433289 98.984505,437.767334 
	C99.058571,429.404053 102.768410,425.705688 111.229156,425.504059 
	C113.359322,425.453278 115.491730,425.496460 117.873077,425.496460 
	C117.873077,367.994568 117.873077,310.911835 117.873077,253.317108 
	C109.021515,253.317108 100.395058,253.348129 91.768921,253.308731 
	C82.404083,253.265945 78.831558,249.693558 78.815346,240.309875 
	C78.784828,222.644089 78.946945,204.976486 78.730606,187.313309 
	C78.654991,181.140274 81.049118,177.403824 86.757095,175.042908 
	C163.181549,143.432129 239.548950,111.683266 316.020416,80.186935 
	C318.892639,79.003944 323.101562,78.999474 325.972534,80.181923 
	C402.603088,111.743080 479.131226,143.552872 555.710449,175.238998 
	C561.047668,177.447403 563.383972,181.046036 563.350281,186.751068 
	C563.243103,204.916214 563.387329,223.082870 563.281799,241.248047 
	C563.233582,249.552933 559.333923,253.233490 550.870239,253.300735 
	C542.079163,253.370575 533.287109,253.316299 524.200195,253.316299 
	C524.200195,310.811188 524.200195,367.718536 524.200195,425.196075 
	C526.197693,425.298798 528.113403,425.454163 530.031311,425.486298 
	C539.471497,425.644531 543.069885,429.160400 543.117676,438.490143 
	C543.168884,448.489136 543.129517,458.488647 543.129639,468.985229 
M503.168579,289.998840 
	C503.168579,278.101379 503.168579,266.203949 503.168579,254.282181 
	C490.432373,254.282181 478.436127,254.282181 466.313263,254.282181 
	C466.313263,266.838531 466.313263,278.940369 466.147217,291.959625 
	C466.147217,336.199890 466.147217,380.440155 466.147217,424.724274 
	C478.848175,424.724274 490.875824,424.724274 503.228485,424.724274 
	C503.228485,416.963684 503.237427,409.648499 503.226929,402.333313 
	C503.173553,365.194153 503.115173,328.054962 503.168579,289.998840 
M138.852402,291.849243 
	C138.852402,336.189484 138.852402,380.529724 138.852402,424.888672 
	C151.625000,424.888672 163.536224,424.888672 175.692307,424.888672 
	C175.808990,423.839722 175.975311,423.044312 175.974808,422.248993 
	C175.946976,378.487335 175.905151,334.725677 175.979767,290.043610 
	C175.979767,278.133606 175.979767,266.223602 175.979767,254.220657 
	C163.327774,254.220657 151.315445,254.220657 138.968445,254.220657 
	C138.968445,266.706848 138.968445,278.806335 138.852402,291.849243 
M100.970245,542.754150 
	C101.469185,542.780334 101.968124,542.829468 102.467064,542.829468 
	C247.745743,542.835510 393.024414,542.839111 538.303101,542.826172 
	C539.734680,542.826050 541.166321,542.605469 542.518250,542.494324 
	C542.518250,529.282166 542.518250,516.550110 542.518250,503.719452 
	C394.627686,503.719452 247.113342,503.719452 99.456024,503.719452 
	C99.456024,516.688660 99.456024,529.308472 99.378387,542.334961 
	C99.378387,542.334961 99.674568,542.622681 99.674568,542.622681 
	C99.674568,542.622681 100.073563,542.515137 100.970245,542.754150 
M420.500061,253.312103 
	C345.944000,253.312103 271.387939,253.312103 196.849457,253.312103 
	C196.849457,311.123932 196.849457,368.163361 196.849457,425.543335 
	C198.736847,425.543335 200.217407,425.535522 201.697876,425.544556 
	C212.599182,425.611115 215.810181,428.893921 215.818436,440.006866 
	C215.826843,451.336121 215.820282,462.665375 215.820282,473.994629 
	C215.820282,476.919617 215.820297,479.844604 215.820297,482.769623 
	C286.300812,482.769623 356.033508,482.769623 426.288208,482.769623 
	C426.288208,480.886078 426.288086,479.266235 426.288208,477.646423 
	C426.289185,464.317871 426.226654,450.988922 426.314850,437.660950 
	C426.368500,429.553772 430.194214,425.764984 438.232971,425.555542 
	C440.500061,425.496521 442.770050,425.546539 445.228027,425.546539 
	C445.228027,367.841797 445.228027,310.802429 445.228027,253.312225 
	C437.093231,253.312225 429.296631,253.312225 420.500061,253.312103 
M510.500000,232.880844 
	C521.238647,232.880844 531.977356,232.880844 542.885071,232.880844 
	C542.885071,220.200211 542.717957,208.371002 542.987671,196.551758 
	C543.067688,193.042419 541.716125,191.718628 538.725098,190.478119 
	C467.857819,161.087036 397.016205,131.633728 326.238892,102.026947 
	C322.301910,100.380066 319.153381,100.681664 315.432617,102.239998 
	C277.670044,118.055756 239.856125,133.748856 202.055832,149.474472 
	C169.171982,163.154755 136.278183,176.811203 103.429832,190.576157 
	C101.814980,191.252823 99.400505,192.840332 99.372391,194.050491 
	C99.075699,206.822220 99.188736,219.603455 99.188736,232.880829 
	C236.332993,232.880829 372.916504,232.880829 510.500000,232.880844 
M156.500000,445.950226 
	C144.265228,445.950226 132.030457,445.950226 119.696114,445.950226 
	C119.696114,458.557251 119.696114,470.443542 119.696114,482.546875 
	C144.898438,482.546875 169.761292,482.546875 194.764130,482.546875 
	C194.764130,470.262909 194.764130,458.251831 194.764130,445.950195 
	C182.081329,445.950195 169.790665,445.950195 156.500000,445.950226 
M491.500000,445.948273 
	C476.753296,445.948273 462.006561,445.948273 447.253174,445.948273 
	C447.253174,458.626251 447.253174,470.504700 447.253174,482.411713 
	C472.509430,482.411713 497.363953,482.411713 522.300415,482.411713 
	C522.300415,470.102631 522.300415,458.203583 522.300415,445.948242 
	C512.118164,445.948242 502.309082,445.948242 491.500000,445.948273 
z"/>
<path fill="#FDFDFE" opacity="1.000000" stroke="none" 
	d="
M421.000061,253.312164 
	C429.296631,253.312225 437.093231,253.312225 445.228027,253.312225 
	C445.228027,310.802429 445.228027,367.841797 445.228027,425.546539 
	C442.770050,425.546539 440.500061,425.496521 438.232971,425.555542 
	C430.194214,425.764984 426.368500,429.553772 426.314850,437.660950 
	C426.226654,450.988922 426.289185,464.317871 426.288208,477.646423 
	C426.288086,479.266235 426.288208,480.886078 426.288208,482.769623 
	C356.033508,482.769623 286.300812,482.769623 215.820297,482.769623 
	C215.820297,479.844604 215.820282,476.919617 215.820282,473.994629 
	C215.820282,462.665375 215.826843,451.336121 215.818436,440.006866 
	C215.810181,428.893921 212.599182,425.611115 201.697876,425.544556 
	C200.217407,425.535522 198.736847,425.543335 196.849457,425.543335 
	C196.849457,368.163361 196.849457,311.123932 196.849457,253.312103 
	C271.387939,253.312103 345.944000,253.312103 421.000061,253.312164 
M296.787018,427.739410 
	C298.276978,428.799866 299.622375,430.324982 301.281677,430.841156 
	C308.880310,433.205170 312.340271,437.558472 311.213715,446.036285 
	C310.536072,451.136108 315.794312,455.378418 320.888550,455.506256 
	C325.895569,455.631866 330.398346,451.650146 331.022186,446.325012 
	C331.292175,444.020477 331.344299,441.653687 331.160706,439.341736 
	C330.912750,436.218964 332.031769,434.809967 335.124908,433.610474 
	C358.172516,424.672791 367.391571,396.355957 353.931458,375.971375 
	C346.000610,363.960541 334.501038,358.299866 320.200378,357.829041 
	C311.868347,357.554718 304.641479,351.380981 303.016296,343.610260 
	C301.195831,334.905884 304.704529,327.216156 312.462280,322.908417 
	C319.563507,318.965210 328.892242,320.082764 334.203339,326.782654 
	C337.107544,330.446228 338.479309,335.545807 339.770996,340.211304 
	C341.443115,346.250854 345.450378,350.020050 350.818176,349.455231 
	C356.615112,348.845184 360.181885,344.433594 360.006012,337.880005 
	C359.637360,324.141022 353.451416,313.050323 341.838776,306.511169 
	C334.522949,302.391571 329.638824,299.082336 330.784088,289.748779 
	C331.375092,284.932373 325.949310,281.007080 321.030396,281.028625 
	C315.856598,281.051300 311.455200,285.054108 311.020721,290.257294 
	C310.854828,292.244049 310.764832,294.270477 310.961090,296.246948 
	C311.324432,299.906067 310.063873,301.728333 306.356201,303.143005 
	C285.210602,311.211121 275.558472,337.244263 286.214417,357.109039 
	C294.037811,371.693390 306.756622,378.217896 322.959442,378.867096 
	C333.171967,379.276276 340.303528,388.663513 339.200470,399.949097 
	C338.266296,409.506744 328.307159,417.125336 318.866669,415.504150 
	C308.902740,413.793091 304.106812,408.351471 302.193695,396.586395 
	C301.161072,390.236023 297.183197,386.648010 291.572113,387.005798 
	C285.712646,387.379395 281.949677,391.779022 282.010132,398.227692 
	C282.122223,410.176880 287.291901,419.662506 296.787018,427.739410 
z"/>
<path fill="#D1DBFC" opacity="1.000000" stroke="none" 
	d="
M510.000000,232.880829 
	C372.916504,232.880829 236.332993,232.880829 99.188736,232.880829 
	C99.188736,219.603455 99.075699,206.822220 99.372391,194.050491 
	C99.400505,192.840332 101.814980,191.252823 103.429832,190.576157 
	C136.278183,176.811203 169.171982,163.154755 202.055832,149.474472 
	C239.856125,133.748856 277.670044,118.055756 315.432617,102.239998 
	C319.153381,100.681664 322.301910,100.380066 326.238892,102.026947 
	C397.016205,131.633728 467.857819,161.087036 538.725098,190.478119 
	C541.716125,191.718628 543.067688,193.042419 542.987671,196.551758 
	C542.717957,208.371002 542.885071,220.200211 542.885071,232.880844 
	C531.977356,232.880844 521.238647,232.880844 510.000000,232.880829 
M417.551086,182.323044 
	C415.138153,176.158691 410.102600,174.985703 404.194305,174.991104 
	C348.725037,175.041870 293.255646,175.015411 237.786331,175.045029 
	C235.806488,175.046082 233.757339,175.133423 231.859497,175.632874 
	C224.724319,177.510544 222.076340,184.782532 226.094482,190.994461 
	C228.954468,195.415863 233.392731,195.722412 237.983490,195.722290 
	C280.293427,195.721252 322.603394,195.722122 364.913330,195.721970 
	C378.405884,195.721924 391.898956,195.793198 405.390778,195.693359 
	C414.016663,195.629532 417.977692,191.459961 417.551086,182.323044 
z"/>
<path fill="#92B1F3" opacity="1.000000" stroke="none" 
	d="
M99.456024,541.928223 
	C99.456024,529.308472 99.456024,516.688660 99.456024,503.719452 
	C247.113342,503.719452 394.627686,503.719452 542.518250,503.719452 
	C542.518250,516.550110 542.518250,529.282166 542.518250,542.494324 
	C541.166321,542.605469 539.734680,542.826050 538.303101,542.826172 
	C393.024414,542.839111 247.745743,542.835510 102.467064,542.829468 
	C101.968124,542.829468 101.469185,542.780334 100.456543,542.502808 
	C99.818695,542.086365 99.656425,541.978577 99.456024,541.928223 
z"/>
<path fill="#93B2F4" opacity="1.000000" stroke="none" 
	d="
M175.864746,290.964020 
	C175.905151,334.725677 175.946976,378.487335 175.974808,422.248993 
	C175.975311,423.044312 175.808990,423.839722 175.692307,424.888672 
	C163.536224,424.888672 151.625000,424.888672 138.852402,424.888672 
	C138.852402,380.529724 138.852402,336.189484 139.381348,291.380615 
	C151.895096,290.929352 163.879929,290.946686 175.864746,290.964020 
z"/>
<path fill="#93B2F4" opacity="1.000000" stroke="none" 
	d="
M503.058533,290.915802 
	C503.115173,328.054962 503.173553,365.194153 503.226929,402.333313 
	C503.237427,409.648499 503.228485,416.963684 503.228485,424.724274 
	C490.875824,424.724274 478.848175,424.724274 466.147217,424.724274 
	C466.147217,380.440155 466.147217,336.199890 466.673279,291.477325 
	C479.152405,290.968597 491.105469,290.942200 503.058533,290.915802 
z"/>
<path fill="#CED9FA" opacity="1.000000" stroke="none" 
	d="
M157.000000,445.950195 
	C169.790665,445.950195 182.081329,445.950195 194.764130,445.950195 
	C194.764130,458.251831 194.764130,470.262909 194.764130,482.546875 
	C169.761292,482.546875 144.898438,482.546875 119.696114,482.546875 
	C119.696114,470.443542 119.696114,458.557251 119.696114,445.950226 
	C132.030457,445.950226 144.265228,445.950226 157.000000,445.950195 
z"/>
<path fill="#CED8FA" opacity="1.000000" stroke="none" 
	d="
M492.000000,445.948242 
	C502.309082,445.948242 512.118164,445.948242 522.300415,445.948242 
	C522.300415,458.203583 522.300415,470.102631 522.300415,482.411713 
	C497.363953,482.411713 472.509430,482.411713 447.253174,482.411713 
	C447.253174,470.504700 447.253174,458.626251 447.253174,445.948273 
	C462.006561,445.948273 476.753296,445.948273 492.000000,445.948242 
z"/>
<path fill="#6965F7" opacity="1.000000" stroke="none" 
	d="
M175.922256,290.503815 
	C163.879929,290.946686 151.895096,290.929352 139.439362,290.908936 
	C138.968445,278.806335 138.968445,266.706848 138.968445,254.220657 
	C151.315445,254.220657 163.327774,254.220657 175.979767,254.220657 
	C175.979767,266.223602 175.979767,278.133606 175.922256,290.503815 
z"/>
<path fill="#6868F3" opacity="1.000000" stroke="none" 
	d="
M503.113556,290.457336 
	C491.105469,290.942200 479.152405,290.968597 466.756287,291.018616 
	C466.313263,278.940369 466.313263,266.838531 466.313263,254.282181 
	C478.436127,254.282181 490.432373,254.282181 503.168579,254.282181 
	C503.168579,266.203949 503.168579,278.101379 503.113556,290.457336 
z"/>
<path fill="#6A8BD0" opacity="1.000000" stroke="none" 
	d="
M99.417206,542.131592 
	C99.656425,541.978577 99.818695,542.086365 100.008202,542.383301 
	C100.073563,542.515137 99.674568,542.622681 99.674568,542.622681 
	C99.674568,542.622681 99.378387,542.334961 99.417206,542.131592 
z"/>
<path fill="#FDCC54" opacity="1.000000" stroke="none" 
	d="
M296.503235,427.523804 
	C287.291901,419.662506 282.122223,410.176880 282.010132,398.227692 
	C281.949677,391.779022 285.712646,387.379395 291.572113,387.005798 
	C297.183197,386.648010 301.161072,390.236023 302.193695,396.586395 
	C304.106812,408.351471 308.902740,413.793091 318.866669,415.504150 
	C328.307159,417.125336 338.266296,409.506744 339.200470,399.949097 
	C340.303528,388.663513 333.171967,379.276276 322.959442,378.867096 
	C306.756622,378.217896 294.037811,371.693390 286.214417,357.109039 
	C275.558472,337.244263 285.210602,311.211121 306.356201,303.143005 
	C310.063873,301.728333 311.324432,299.906067 310.961090,296.246948 
	C310.764832,294.270477 310.854828,292.244049 311.020721,290.257294 
	C311.455200,285.054108 315.856598,281.051300 321.030396,281.028625 
	C325.949310,281.007080 331.375092,284.932373 330.784088,289.748779 
	C329.638824,299.082336 334.522949,302.391571 341.838776,306.511169 
	C353.451416,313.050323 359.637360,324.141022 360.006012,337.880005 
	C360.181885,344.433594 356.615112,348.845184 350.818176,349.455231 
	C345.450378,350.020050 341.443115,346.250854 339.770996,340.211304 
	C338.479309,335.545807 337.107544,330.446228 334.203339,326.782654 
	C328.892242,320.082764 319.563507,318.965210 312.462280,322.908417 
	C304.704529,327.216156 301.195831,334.905884 303.016296,343.610260 
	C304.641479,351.380981 311.868347,357.554718 320.200378,357.829041 
	C334.501038,358.299866 346.000610,363.960541 353.931458,375.971375 
	C367.391571,396.355957 358.172516,424.672791 335.124908,433.610474 
	C332.031769,434.809967 330.912750,436.218964 331.160706,439.341736 
	C331.344299,441.653687 331.292175,444.020477 331.022186,446.325012 
	C330.398346,451.650146 325.895569,455.631866 320.888550,455.506256 
	C315.794312,455.378418 310.536072,451.136108 311.213715,446.036285 
	C312.340271,437.558472 308.880310,433.205170 301.281677,430.841156 
	C299.622375,430.324982 298.276978,428.799866 296.503235,427.523804 
z"/>
<path fill="#0B2F79" opacity="1.000000" stroke="none" 
	d="
M417.640564,182.705658 
	C417.977692,191.459961 414.016663,195.629532 405.390778,195.693359 
	C391.898956,195.793198 378.405884,195.721924 364.913330,195.721970 
	C322.603394,195.722122 280.293427,195.721252 237.983490,195.722290 
	C233.392731,195.722412 228.954468,195.415863 226.094482,190.994461 
	C222.076340,184.782532 224.724319,177.510544 231.859497,175.632874 
	C233.757339,175.133423 235.806488,175.046082 237.786331,175.045029 
	C293.255646,175.015411 348.725037,175.041870 404.194305,174.991104 
	C410.102600,174.985703 415.138153,176.158691 417.640564,182.705658 
z"/>
</svg>