<?xml version="1.0" encoding="UTF-8"?>
<!DOCTYPE svg PUBLIC "-//W3C//DTD SVG 1.1//EN" "http://www.w3.org/Graphics/SVG/1.1/DTD/svg11.dtd">
<svg xmlns="http://www.w3.org/2000/svg" version="1.1" width="640px" height="640px" style="shape-rendering:geometricPrecision; text-rendering:geometricPrecision; image-rendering:optimizeQuality; fill-rule:evenodd; clip-rule:evenodd" xmlns:xlink="http://www.w3.org/1999/xlink">
<g><path style="opacity:1" fill="#fefefe" d="M -0.5,-0.5 C 212.833,-0.5 426.167,-0.5 639.5,-0.5C 639.5,212.833 639.5,426.167 639.5,639.5C 426.167,639.5 212.833,639.5 -0.5,639.5C -0.5,426.167 -0.5,212.833 -0.5,-0.5 Z"/></g>
<g><path style="opacity:1" fill="#5e73a4" d="M 331.5,100.5 C 328.098,100.342 324.764,100.676 321.5,101.5C 321.611,100.883 321.944,100.383 322.5,100C 325.696,99.1955 328.696,99.3622 331.5,100.5 Z"/></g>
<g><path style="opacity:1" fill="#0c2c77" d="M 331.5,100.5 C 392.194,127.129 453.194,153.296 514.5,179C 516.624,180.122 518.457,181.622 520,183.5C 521.146,216.445 521.979,249.445 522.5,282.5C 534.961,287.127 543.127,295.794 547,308.5C 547.667,325.833 547.667,343.167 547,360.5C 546.196,363.146 544.696,365.146 542.5,366.5C 522.527,367.452 502.527,367.785 482.5,367.5C 481.07,367.579 479.736,367.246 478.5,366.5C 476.808,364.641 475.308,362.641 474,360.5C 473.333,343.5 473.333,326.5 474,309.5C 477.84,295.83 486.34,286.497 499.5,281.5C 500.833,255.5 500.833,229.5 499.5,203.5C 483.259,210.789 466.926,217.789 450.5,224.5C 449.667,255.161 449.167,285.828 449,316.5C 447.954,318.09 446.787,319.59 445.5,321C 430.084,330.54 414.084,338.707 397.5,345.5C 392.835,346.057 388.502,347.39 384.5,349.5C 379.761,350.185 375.095,351.185 370.5,352.5C 364.924,352.871 359.591,353.871 354.5,355.5C 353.167,355.5 351.833,355.5 350.5,355.5C 334.165,356.813 317.832,356.813 301.5,355.5C 298.15,355.665 294.817,355.498 291.5,355C 285.283,353.984 279.283,352.484 273.5,350.5C 266.501,347.391 259.168,345.057 251.5,343.5C 237.06,338.28 223.394,331.447 210.5,323C 207.894,321.062 206.061,318.562 205,315.5C 204.833,285.494 204.333,255.494 203.5,225.5C 182.208,216.236 160.874,207.069 139.5,198C 132.002,192.069 131.668,185.903 138.5,179.5C 140.967,179.245 142.967,178.245 144.5,176.5C 203.278,151.051 262.278,126.051 321.5,101.5C 324.764,100.676 328.098,100.342 331.5,100.5 Z"/></g>
<g><path style="opacity:1" fill="#ba9bf0" d="M 279.5,235.5 C 276.031,201.649 279.697,168.649 290.5,136.5C 300.976,131.913 311.476,127.246 322,122.5C 324.12,121.541 326.287,121.374 328.5,122C 380.353,143.675 432.019,165.842 483.5,188.5C 432.135,209.859 381.135,231.692 330.5,254C 327.833,254.667 325.167,254.667 322.5,254C 308.141,247.818 293.807,241.652 279.5,235.5 Z"/></g>
<g><path style="opacity:1" fill="#6767ef" d="M 290.5,136.5 C 279.697,168.649 276.031,201.649 279.5,235.5C 243.859,220.348 208.193,205.182 172.5,190C 171.027,189.29 170.36,188.124 170.5,186.5C 173.479,185.683 176.479,184.849 179.5,184C 215.976,167.571 252.976,151.737 290.5,136.5 Z"/></g>
<g><path style="opacity:1" fill="#7284b0" d="M 144.5,176.5 C 142.967,178.245 140.967,179.245 138.5,179.5C 140.033,177.755 142.033,176.755 144.5,176.5 Z"/></g>
<g><path style="opacity:1" fill="#6868f1" d="M 283.5,259.5 C 290.053,287.598 301.719,313.264 318.5,336.5C 285.161,335.831 254.495,326.497 226.5,308.5C 225.167,283.833 225.167,259.167 226.5,234.5C 245.427,243.03 264.427,251.363 283.5,259.5 Z"/></g>
<g><path style="opacity:1" fill="#92b1f1" d="M 428.5,234.5 C 428.823,259.241 428.49,283.908 427.5,308.5C 417.695,314.736 407.361,319.903 396.5,324C 386.723,327.591 376.723,330.591 366.5,333C 350.652,336.019 334.652,337.186 318.5,336.5C 301.719,313.264 290.053,287.598 283.5,259.5C 294.137,263.826 304.804,268.159 315.5,272.5C 321.634,276.683 328.301,277.516 335.5,275C 336.056,274.617 336.389,274.117 336.5,273.5C 366.649,259.79 397.316,246.79 428.5,234.5 Z"/></g>
<g><path style="opacity:1" fill="#3b5ea5" d="M 428.5,234.5 C 429.167,246.662 429.5,258.995 429.5,271.5C 429.499,284.185 428.832,296.519 427.5,308.5C 428.49,283.908 428.823,259.241 428.5,234.5 Z"/></g>
<g><path style="opacity:1" fill="#3d5ca3" d="M 315.5,272.5 C 319.491,273.493 323.491,274.493 327.5,275.5C 330.607,275.24 333.607,274.574 336.5,273.5C 336.389,274.117 336.056,274.617 335.5,275C 328.301,277.516 321.634,276.683 315.5,272.5 Z"/></g>
<g><path style="opacity:1" fill="#978765" d="M 515.5,301.5 C 511.434,301.307 507.434,301.64 503.5,302.5C 503.611,301.883 503.944,301.383 504.5,301C 508.358,300.19 512.024,300.357 515.5,301.5 Z"/></g>
<g><path style="opacity:1" fill="#f7c65b" d="M 515.5,301.5 C 521.203,303.703 525.036,307.703 527,313.5C 527.5,324.828 527.667,336.162 527.5,347.5C 516.5,347.5 505.5,347.5 494.5,347.5C 494.5,336.5 494.5,325.5 494.5,314.5C 495.249,308.758 498.249,304.758 503.5,302.5C 507.434,301.64 511.434,301.307 515.5,301.5 Z"/></g>
<g><path style="opacity:1" fill="#657aa9" d="M 251.5,343.5 C 259.168,345.057 266.501,347.391 273.5,350.5C 265.832,348.943 258.499,346.609 251.5,343.5 Z"/></g>
<g><path style="opacity:1" fill="#9daac8" d="M 397.5,345.5 C 393.498,347.61 389.165,348.943 384.5,349.5C 388.502,347.39 392.835,346.057 397.5,345.5 Z"/></g>
<g><path style="opacity:1" fill="#3a496f" d="M 494.5,314.5 C 494.5,325.5 494.5,336.5 494.5,347.5C 505.5,347.5 516.5,347.5 527.5,347.5C 516.346,348.495 505.012,348.828 493.5,348.5C 493.172,336.988 493.505,325.654 494.5,314.5 Z"/></g>
<g><path style="opacity:1" fill="#8e9dc0" d="M 370.5,352.5 C 365.527,354.76 360.194,355.76 354.5,355.5C 359.591,353.871 364.924,352.871 370.5,352.5 Z"/></g>
<g><path style="opacity:1" fill="#7286b1" d="M 301.5,355.5 C 317.832,356.813 334.165,356.813 350.5,355.5C 342.392,357.039 334.059,357.706 325.5,357.5C 317.268,357.724 309.268,357.058 301.5,355.5 Z"/></g>
<g><path style="opacity:1" fill="#92a2c3" d="M 542.5,366.5 C 542.082,367.222 541.416,367.722 540.5,368C 520.996,368.829 501.662,368.662 482.5,367.5C 502.527,367.785 522.527,367.452 542.5,366.5 Z"/></g>
<g><path style="opacity:1" fill="#0b2b75" d="M 103.5,383.5 C 120.507,384.456 137.507,385.456 154.5,386.5C 162.66,387.473 170.993,388.14 179.5,388.5C 192.947,390.446 206.614,391.446 220.5,391.5C 220.833,391.5 221.167,391.5 221.5,391.5C 231.273,393.29 241.273,394.29 251.5,394.5C 251.833,394.5 252.167,394.5 252.5,394.5C 265.655,395.884 278.989,396.884 292.5,397.5C 294.167,397.5 295.833,397.5 297.5,397.5C 298.609,398.29 299.942,398.79 301.5,399C 310.162,399.583 318.829,400.083 327.5,400.5C 357.052,398.994 386.386,396.66 415.5,393.5C 415.833,393.5 416.167,393.5 416.5,393.5C 429.02,392.979 441.354,391.979 453.5,390.5C 474.367,389.487 495.034,387.82 515.5,385.5C 515.833,385.5 516.167,385.5 516.5,385.5C 527.828,384.75 539.161,384.084 550.5,383.5C 552.437,384.931 554.27,386.598 556,388.5C 556.667,423.833 556.667,459.167 556,494.5C 554.833,497 553,498.833 550.5,500C 544.509,500.499 538.509,500.666 532.5,500.5C 519.03,498.653 505.363,497.32 491.5,496.5C 488.5,496.5 485.5,496.5 482.5,496.5C 481.048,495.698 479.382,495.198 477.5,495C 472.177,494.501 466.844,494.334 461.5,494.5C 455.879,493.646 450.212,493.313 444.5,493.5C 437.058,491.901 429.391,490.901 421.5,490.5C 419.833,490.833 418.167,491.167 416.5,491.5C 416.624,492.107 416.957,492.44 417.5,492.5C 424.298,500.965 430.298,509.965 435.5,519.5C 434.893,524.16 432.56,527.66 428.5,530C 422.631,530.401 416.964,529.901 411.5,528.5C 406.033,527.143 400.366,526.143 394.5,525.5C 392.36,525.556 390.694,526.223 389.5,527.5C 386.386,535.078 383.219,542.744 380,550.5C 376.229,554.788 371.729,555.621 366.5,553C 353.181,534.505 340.848,515.338 329.5,495.5C 328.672,494.585 327.672,493.919 326.5,493.5C 314.469,512.367 302.635,531.367 291,550.5C 289.188,551.977 287.355,553.31 285.5,554.5C 282.763,554.599 280.096,554.265 277.5,553.5C 275.549,552.284 274.049,550.618 273,548.5C 269.873,541.252 267.04,533.919 264.5,526.5C 262.866,525.839 261.033,525.506 259,525.5C 247.858,527.107 236.692,528.441 225.5,529.5C 223.251,528.92 221.585,527.587 220.5,525.5C 220.5,522.167 220.5,518.833 220.5,515.5C 225.808,507.851 231.141,500.185 236.5,492.5C 237.043,492.44 237.376,492.107 237.5,491.5C 229.664,490.574 221.997,490.907 214.5,492.5C 207.415,492.784 200.415,493.451 193.5,494.5C 183.959,494.345 174.626,495.012 165.5,496.5C 157.76,496.45 150.094,497.117 142.5,498.5C 131.794,498.504 121.128,499.17 110.5,500.5C 107.783,500.386 105.116,500.052 102.5,499.5C 99.9558,498.292 98.6225,496.292 98.5,493.5C 98.3333,458.832 98.5,424.165 99,389.5C 100.039,388.756 100.539,387.756 100.5,386.5C 101.167,385.167 102.167,384.167 103.5,383.5 Z"/></g>
<g><path style="opacity:1" fill="#8e9dc0" d="M 103.5,383.5 C 109.319,382.347 115.319,382.181 121.5,383C 132.685,383.84 143.685,385.006 154.5,386.5C 137.507,385.456 120.507,384.456 103.5,383.5 Z"/></g>
<g><path style="opacity:1" fill="#6d81ae" d="M 550.5,383.5 C 539.161,384.084 527.828,384.75 516.5,385.5C 525.109,383.82 533.942,382.82 543,382.5C 545.69,382.503 548.19,382.836 550.5,383.5 Z"/></g>
<g><path style="opacity:1" fill="#6276a7" d="M 515.5,385.5 C 495.034,387.82 474.367,389.487 453.5,390.5C 473.93,387.723 494.597,386.056 515.5,385.5 Z"/></g>
<g><path style="opacity:1" fill="#919fc2" d="M 179.5,388.5 C 193.371,388.733 207.037,389.733 220.5,391.5C 206.614,391.446 192.947,390.446 179.5,388.5 Z"/></g>
<g><path style="opacity:1" fill="#697dab" d="M 453.5,390.5 C 441.354,391.979 429.02,392.979 416.5,393.5C 428.594,391.354 440.927,390.354 453.5,390.5 Z"/></g>
<g><path style="opacity:1" fill="#385691" d="M 100.5,386.5 C 100.539,387.756 100.039,388.756 99,389.5C 98.5,424.165 98.3333,458.832 98.5,493.5C 97.3357,458.669 97.1691,423.669 98,388.5C 98.7083,387.619 99.5416,386.953 100.5,386.5 Z"/></g>
<g><path style="opacity:1" fill="#7a8db5" d="M 221.5,391.5 C 231.71,391.844 241.71,392.844 251.5,394.5C 241.273,394.29 231.273,393.29 221.5,391.5 Z"/></g>
<g><path style="opacity:1" fill="#99a8c7" d="M 252.5,394.5 C 266.062,394.491 279.395,395.491 292.5,397.5C 278.989,396.884 265.655,395.884 252.5,394.5 Z"/></g>
<g><path style="opacity:1" fill="#7588b2" d="M 415.5,393.5 C 386.386,396.66 357.052,398.994 327.5,400.5C 318.829,400.083 310.162,399.583 301.5,399C 299.942,398.79 298.609,398.29 297.5,397.5C 307.327,398.192 317.16,398.858 327,399.5C 356.471,397.003 385.971,395.003 415.5,393.5 Z"/></g>
<g><path style="opacity:1" fill="#9aa9c7" d="M 123.5,404.5 C 121.833,404.5 120.167,404.5 118.5,404.5C 118.5,429.167 118.5,453.833 118.5,478.5C 121.167,478.5 123.833,478.5 126.5,478.5C 126.5,478.833 126.5,479.167 126.5,479.5C 123.5,479.5 120.5,479.5 117.5,479.5C 117.5,454.167 117.5,428.833 117.5,403.5C 119.735,403.205 121.735,403.539 123.5,404.5 Z"/></g>
<g><path style="opacity:1" fill="#fefefe" d="M 529.5,404.5 C 531.5,404.5 533.5,404.5 535.5,404.5C 535.5,429.167 535.5,453.833 535.5,478.5C 529.833,478.5 524.167,478.5 518.5,478.5C 515.098,478.658 511.764,478.324 508.5,477.5C 499.717,475.903 490.717,475.236 481.5,475.5C 472.712,473.97 463.712,473.303 454.5,473.5C 454.167,473.5 453.833,473.5 453.5,473.5C 434.752,470.605 415.752,468.939 396.5,468.5C 393.713,467.523 390.713,467.19 387.5,467.5C 387.5,450.5 387.5,433.5 387.5,416.5C 390.713,416.81 393.713,416.477 396.5,415.5C 404.605,413.824 412.938,413.157 421.5,413.5C 449.358,411.694 477.025,409.36 504.5,406.5C 512.757,405.029 521.09,404.363 529.5,404.5 Z"/></g>
<g><path style="opacity:1" fill="#c1cadc" d="M 535.5,404.5 C 536.498,429.328 536.831,454.328 536.5,479.5C 530.31,479.823 524.31,479.49 518.5,478.5C 524.167,478.5 529.833,478.5 535.5,478.5C 535.5,453.833 535.5,429.167 535.5,404.5 Z"/></g>
<g><path style="opacity:1" fill="#3c5993" d="M 529.5,404.5 C 531.948,403.527 534.615,403.194 537.5,403.5C 537.831,429.005 537.498,454.339 536.5,479.5C 536.831,454.328 536.498,429.328 535.5,404.5C 533.5,404.5 531.5,404.5 529.5,404.5 Z"/></g>
<g><path style="opacity:1" fill="#fefefe" d="M 123.5,404.5 C 127.898,404.294 132.232,404.627 136.5,405.5C 155.651,407.587 174.984,409.254 194.5,410.5C 195.833,410.5 197.167,410.5 198.5,410.5C 209.32,411.875 220.32,412.875 231.5,413.5C 232.833,413.5 234.167,413.5 235.5,413.5C 244.963,414.947 254.63,415.613 264.5,415.5C 265.791,415.263 266.791,415.596 267.5,416.5C 267.5,433.167 267.5,449.833 267.5,466.5C 262.944,468.442 257.944,469.108 252.5,468.5C 226.936,469.962 201.602,472.296 176.5,475.5C 175.5,475.5 174.5,475.5 173.5,475.5C 157.795,476.003 142.128,477.003 126.5,478.5C 123.833,478.5 121.167,478.5 118.5,478.5C 118.5,453.833 118.5,429.167 118.5,404.5C 120.167,404.5 121.833,404.5 123.5,404.5 Z"/></g>
<g><path style="opacity:1" fill="#7184b0" d="M 136.5,405.5 C 156.095,405.85 175.429,407.517 194.5,410.5C 174.984,409.254 155.651,407.587 136.5,405.5 Z"/></g>
<g><path style="opacity:1" fill="#8797bc" d="M 504.5,406.5 C 477.025,409.36 449.358,411.694 421.5,413.5C 422.609,412.71 423.942,412.21 425.5,412C 451.799,409.598 478.133,407.764 504.5,406.5 Z"/></g>
<g><path style="opacity:1" fill="#8091b8" d="M 198.5,410.5 C 209.76,410.251 220.76,411.251 231.5,413.5C 220.32,412.875 209.32,411.875 198.5,410.5 Z"/></g>
<g><path style="opacity:1" fill="#677baa" d="M 235.5,413.5 C 245.37,413.387 255.037,414.053 264.5,415.5C 254.63,415.613 244.963,414.947 235.5,413.5 Z"/></g>
<g><path style="opacity:1" fill="#f47871" d="M 385.5,416.5 C 385.833,416.5 386.167,416.5 386.5,416.5C 386.5,433.5 386.5,450.5 386.5,467.5C 384.833,467.5 383.167,467.5 381.5,467.5C 381.5,467.167 381.5,466.833 381.5,466.5C 382.833,466.5 384.167,466.5 385.5,466.5C 385.5,449.833 385.5,433.167 385.5,416.5 Z"/></g>
<g><path style="opacity:1" fill="#e7cfd4" d="M 396.5,415.5 C 393.713,416.477 390.713,416.81 387.5,416.5C 387.5,433.5 387.5,450.5 387.5,467.5C 390.713,467.19 393.713,467.523 396.5,468.5C 392.958,468.813 389.625,468.479 386.5,467.5C 386.5,450.5 386.5,433.5 386.5,416.5C 389.625,415.521 392.958,415.187 396.5,415.5 Z"/></g>
<g><path style="opacity:1" fill="#f76155" d="M 267.5,416.5 C 286.154,417.833 304.821,419.166 323.5,420.5C 328.9,421.761 334.233,421.428 339.5,419.5C 343.167,419.5 346.833,419.5 350.5,419.5C 357.037,419.414 363.37,418.747 369.5,417.5C 374.845,417.313 380.178,416.98 385.5,416.5C 385.5,433.167 385.5,449.833 385.5,466.5C 384.167,466.5 382.833,466.5 381.5,466.5C 376.187,465.902 370.854,465.569 365.5,465.5C 351.488,464.741 337.488,463.741 323.5,462.5C 315.802,462.927 308.135,463.594 300.5,464.5C 292.656,464.82 284.989,465.487 277.5,466.5C 274.167,466.5 270.833,466.5 267.5,466.5C 267.5,449.833 267.5,433.167 267.5,416.5 Z"/></g>
<g><path style="opacity:1" fill="#b14f5d" d="M 369.5,417.5 C 363.37,418.747 357.037,419.414 350.5,419.5C 356.605,418.004 362.938,417.337 369.5,417.5 Z"/></g>
<g><path style="opacity:1" fill="#994a61" d="M 339.5,419.5 C 334.233,421.428 328.9,421.761 323.5,420.5C 328.813,419.902 334.146,419.569 339.5,419.5 Z"/></g>
<g><path style="opacity:1" fill="#754166" d="M 300.5,464.5 C 299.048,465.302 297.382,465.802 295.5,466C 289.509,466.499 283.509,466.666 277.5,466.5C 284.989,465.487 292.656,464.82 300.5,464.5 Z"/></g>
<g><path style="opacity:1" fill="#994a61" d="M 365.5,465.5 C 370.854,465.569 376.187,465.902 381.5,466.5C 381.5,466.833 381.5,467.167 381.5,467.5C 375.931,467.624 370.598,466.957 365.5,465.5 Z"/></g>
<g><path style="opacity:1" fill="#8c9bbf" d="M 396.5,468.5 C 415.752,468.939 434.752,470.605 453.5,473.5C 434.277,472.722 415.277,471.055 396.5,468.5 Z"/></g>
<g><path style="opacity:1" fill="#6175a6" d="M 252.5,468.5 C 227.412,471.74 202.079,474.073 176.5,475.5C 201.602,472.296 226.936,469.962 252.5,468.5 Z"/></g>
<g><path style="opacity:1" fill="#8091b8" d="M 454.5,473.5 C 463.712,473.303 472.712,473.97 481.5,475.5C 472.288,475.697 463.288,475.03 454.5,473.5 Z"/></g>
<g><path style="opacity:1" fill="#95a3c4" d="M 481.5,475.5 C 490.717,475.236 499.717,475.903 508.5,477.5C 499.278,477.824 490.278,477.157 481.5,475.5 Z"/></g>
<g><path style="opacity:1" fill="#7184b0" d="M 173.5,475.5 C 158.013,477.2 142.346,478.534 126.5,479.5C 126.5,479.167 126.5,478.833 126.5,478.5C 142.128,477.003 157.795,476.003 173.5,475.5 Z"/></g>
<g><path style="opacity:1" fill="#733375" d="M 306.5,486.5 C 301.359,486.062 296.025,486.062 290.5,486.5C 295.998,484.931 301.665,484.598 307.5,485.5C 307.376,486.107 307.043,486.44 306.5,486.5 Z"/></g>
<g><path style="opacity:1" fill="#cf3d77" d="M 306.5,486.5 C 299.557,497.949 292.391,509.283 285,520.5C 282.566,517.205 280.899,513.538 280,509.5C 278.833,507 277,505.167 274.5,504C 268.083,503.326 261.75,503.826 255.5,505.5C 254.833,505.167 254.167,504.833 253.5,504.5C 257.411,499.678 261.078,494.678 264.5,489.5C 273.14,488.236 281.807,487.236 290.5,486.5C 296.025,486.062 301.359,486.062 306.5,486.5 Z"/></g>
<g><path style="opacity:1" fill="#ce3d77" d="M 347.5,485.5 C 361.524,486.336 375.524,487.503 389.5,489C 393.361,494.028 397.028,499.194 400.5,504.5C 399.667,504.833 398.833,505.167 398,505.5C 391.486,503.361 384.986,503.194 378.5,505C 374.346,509.471 371.346,514.638 369.5,520.5C 361.895,508.946 354.562,497.279 347.5,485.5 Z"/></g>
<g><path style="opacity:1" fill="#a1aecb" d="M 236.5,492.5 C 229.377,492.328 222.043,492.328 214.5,492.5C 221.997,490.907 229.664,490.574 237.5,491.5C 237.376,492.107 237.043,492.44 236.5,492.5 Z"/></g>
<g><path style="opacity:1" fill="#8b9bbf" d="M 444.5,493.5 C 436.142,493.098 427.808,492.432 419.5,491.5C 418.584,491.543 417.917,491.876 417.5,492.5C 416.957,492.44 416.624,492.107 416.5,491.5C 418.167,491.167 419.833,490.833 421.5,490.5C 429.391,490.901 437.058,491.901 444.5,493.5 Z"/></g>
<g><path style="opacity:1" fill="#6e81ae" d="M 461.5,494.5 C 466.844,494.334 472.177,494.501 477.5,495C 479.382,495.198 481.048,495.698 482.5,496.5C 475.309,496.319 468.309,495.652 461.5,494.5 Z"/></g>
<g><path style="opacity:1" fill="#a3b0cc" d="M 193.5,494.5 C 184.374,495.988 175.041,496.655 165.5,496.5C 174.626,495.012 183.959,494.345 193.5,494.5 Z"/></g>
<g><path style="opacity:1" fill="#8193b9" d="M 491.5,496.5 C 505.363,497.32 519.03,498.653 532.5,500.5C 518.594,500.133 504.927,498.8 491.5,496.5 Z"/></g>
<g><path style="opacity:1" fill="#a5b1cd" d="M 142.5,498.5 C 129.741,500.914 116.741,501.747 103.5,501C 102.944,500.617 102.611,500.117 102.5,499.5C 105.116,500.052 107.783,500.386 110.5,500.5C 121.128,499.17 131.794,498.504 142.5,498.5 Z"/></g>
<g><path style="opacity:1" fill="#5d70a3" d="M 220.5,515.5 C 220.5,518.833 220.5,522.167 220.5,525.5C 217.954,522.132 217.954,518.799 220.5,515.5 Z"/></g>
<g><path style="opacity:1" fill="#909fc1" d="M 411.5,528.5 C 405.454,528.303 399.454,527.636 393.5,526.5C 392.075,526.623 390.742,526.957 389.5,527.5C 390.694,526.223 392.36,525.556 394.5,525.5C 400.366,526.143 406.033,527.143 411.5,528.5 Z"/></g>
<g><path style="opacity:1" fill="#7c8eb6" d="M 264.5,526.5 C 253.122,527.363 241.789,528.697 230.5,530.5C 228.631,530.493 226.964,530.16 225.5,529.5C 236.692,528.441 247.858,527.107 259,525.5C 261.033,525.506 262.866,525.839 264.5,526.5 Z"/></g>
<g><path style="opacity:1" fill="#90a0c2" d="M 277.5,553.5 C 280.096,554.265 282.763,554.599 285.5,554.5C 284.551,555.152 283.385,555.486 282,555.5C 279.992,555.693 278.492,555.026 277.5,553.5 Z"/></g>
</svg>
