<svg version="1.1" id="Layer_1" xmlns="http://www.w3.org/2000/svg" xmlns:xlink="http://www.w3.org/1999/xlink" x="0px" y="0px"
	 width="100%" viewBox="0 0 640 640" enable-background="new 0 0 640 640" xml:space="preserve">
<path fill="#FFFFFF" opacity="1.000000" stroke="none" 
	d="
M347.000000,641.000000 
	C231.333359,641.000000 116.166710,641.000000 1.000046,641.000000 
	C1.000031,427.666718 1.000031,214.333450 1.000015,1.000132 
	C214.333237,1.000088 427.666473,1.000088 640.999756,1.000044 
	C640.999878,214.333191 640.999878,427.666382 640.999939,640.999756 
	C543.166687,641.000000 445.333344,641.000000 347.000000,641.000000 
M91.244553,366.528931 
	C91.299942,381.332428 93.900940,395.674530 98.892136,409.611359 
	C105.799248,428.897919 112.527115,448.249512 119.570663,467.485779 
	C120.887474,471.082001 120.670845,473.984680 119.095505,477.385132 
	C110.202980,496.580048 101.458015,515.843933 92.772682,535.133850 
	C88.985313,543.545532 93.603928,550.852417 102.796814,550.870728 
	C141.621872,550.948181 180.447205,550.886719 219.272369,550.928040 
	C224.478592,550.933594 228.110916,548.762146 230.544037,544.150452 
	C237.151276,531.627380 244.005432,519.233276 250.516876,506.661255 
	C258.068451,492.081024 260.976044,476.476440 259.258636,460.181061 
	C258.502716,453.008148 256.730499,445.942322 255.314178,438.255249 
	C276.544037,446.704285 298.398651,450.416870 320.898041,450.436920 
	C343.522186,450.457062 365.496429,446.703125 387.422729,437.981659 
	C386.833466,440.080505 386.549713,441.145966 386.235474,442.202393 
	C379.571075,464.606934 381.116760,486.350830 391.817841,507.217957 
	C397.898407,519.075012 404.548218,530.641785 410.550598,542.536621 
	C413.659485,548.697571 418.098328,551.034241 424.909668,550.999451 
	C462.234222,550.808594 499.560272,550.914856 536.885803,550.904785 
	C549.179382,550.901489 553.453674,544.290833 548.389465,533.134888 
	C539.919983,514.477295 531.533020,495.781128 522.869568,477.213959 
	C521.237793,473.716827 521.259460,470.806488 522.544312,467.284363 
	C529.393921,448.508087 536.012329,429.647583 542.742432,410.827545 
	C551.197693,387.183228 553.850220,362.929138 547.221375,338.626343 
	C543.396423,324.603058 537.500793,311.029205 531.437317,297.755432 
	C518.148987,268.665283 503.603821,240.141403 490.660370,210.904404 
	C482.524597,192.527191 473.979065,174.606445 461.327301,158.882278 
	C441.593414,134.356155 417.250336,115.868027 387.956604,104.365837 
	C350.674988,89.727203 312.475739,87.448235 273.728424,97.940971 
	C229.320938,109.966492 194.582794,135.625626 170.028244,174.306610 
	C161.526093,187.700134 155.623032,202.762680 148.745667,217.164520 
	C133.815674,248.429169 119.063103,279.778503 104.157951,311.055084 
	C95.933479,328.313110 91.585625,346.452118 91.244553,366.528931 
z"/>
<path fill="#0A2E77" opacity="1.000000" stroke="none" 
	d="
M91.244507,366.044067 
	C91.585625,346.452118 95.933479,328.313110 104.157951,311.055084 
	C119.063103,279.778503 133.815674,248.429169 148.745667,217.164520 
	C155.623032,202.762680 161.526093,187.700134 170.028244,174.306610 
	C194.582794,135.625626 229.320938,109.966492 273.728424,97.940971 
	C312.475739,87.448235 350.674988,89.727203 387.956604,104.365837 
	C417.250336,115.868027 441.593414,134.356155 461.327301,158.882278 
	C473.979065,174.606445 482.524597,192.527191 490.660370,210.904404 
	C503.603821,240.141403 518.148987,268.665283 531.437317,297.755432 
	C537.500793,311.029205 543.396423,324.603058 547.221375,338.626343 
	C553.850220,362.929138 551.197693,387.183228 542.742432,410.827545 
	C536.012329,429.647583 529.393921,448.508087 522.544312,467.284363 
	C521.259460,470.806488 521.237793,473.716827 522.869568,477.213959 
	C531.533020,495.781128 539.919983,514.477295 548.389465,533.134888 
	C553.453674,544.290833 549.179382,550.901489 536.885803,550.904785 
	C499.560272,550.914856 462.234222,550.808594 424.909668,550.999451 
	C418.098328,551.034241 413.659485,548.697571 410.550598,542.536621 
	C404.548218,530.641785 397.898407,519.075012 391.817841,507.217957 
	C381.116760,486.350830 379.571075,464.606934 386.235474,442.202393 
	C386.549713,441.145966 386.833466,440.080505 387.422729,437.981659 
	C365.496429,446.703125 343.522186,450.457062 320.898041,450.436920 
	C298.398651,450.416870 276.544037,446.704285 255.314178,438.255249 
	C256.730499,445.942322 258.502716,453.008148 259.258636,460.181061 
	C260.976044,476.476440 258.068451,492.081024 250.516876,506.661255 
	C244.005432,519.233276 237.151276,531.627380 230.544037,544.150452 
	C228.110916,548.762146 224.478592,550.933594 219.272369,550.928040 
	C180.447205,550.886719 141.621872,550.948181 102.796814,550.870728 
	C93.603928,550.852417 88.985313,543.545532 92.772682,535.133850 
	C101.458015,515.843933 110.202980,496.580048 119.095505,477.385132 
	C120.670845,473.984680 120.887474,471.082001 119.570663,467.485779 
	C112.527115,448.249512 105.799248,428.897919 98.892136,409.611359 
	C93.900940,395.674530 91.299942,381.332428 91.244507,366.044067 
M415.862518,508.809875 
	C418.925781,514.536255 422.187561,520.168213 424.975647,526.025574 
	C426.570831,529.376892 428.677643,530.421814 432.332520,530.403137 
	C461.151276,530.256409 489.971130,530.321655 518.790649,530.321655 
	C520.392395,530.321655 521.994080,530.321655 524.232117,530.321655 
	C523.418091,528.212280 522.961731,526.828796 522.363464,525.509766 
	C515.621643,510.645782 509.015778,495.716797 502.015198,480.975403 
	C499.547974,475.779999 499.287323,471.060669 501.264618,465.668701 
	C508.831635,445.034088 516.083130,424.283997 523.508789,403.597229 
	C532.155334,379.509155 533.065186,355.130829 523.869324,331.244110 
	C517.486084,314.663269 509.066406,298.866302 501.526764,282.733063 
	C501.449402,282.567566 500.968506,282.590637 500.273712,282.436310 
	C499.062653,299.956940 495.508972,316.946869 489.546600,333.440704 
	C489.127716,334.599487 490.315765,336.832062 491.390930,337.961365 
	C501.619476,348.705078 504.638672,361.119354 500.393372,375.295990 
	C495.425354,391.885925 490.536041,408.501831 485.292572,425.004822 
	C484.290100,428.159973 481.802368,430.843231 479.213959,433.895721 
	C474.709686,435.760681 470.637878,434.940704 467.339111,431.471710 
	C463.771729,427.720306 464.473206,423.255829 465.825775,418.787537 
	C470.790222,402.386902 475.789398,385.996399 480.657440,369.567139 
	C483.348389,360.485321 479.697357,352.169098 472.217957,349.797638 
	C463.298126,346.969452 455.041260,351.503448 452.088928,360.969177 
	C449.512970,369.228027 447.039032,377.519043 444.568542,385.810303 
	C440.595490,399.144226 433.785278,410.692444 423.959900,420.655457 
	C418.980835,425.704224 413.910858,431.143860 410.670135,437.341797 
	C397.896698,461.771271 400.743774,485.462341 415.862518,508.809875 
M226.839722,507.695709 
	C232.858490,497.235901 238.194809,486.450439 239.004547,474.184601 
	C240.307953,454.441101 235.053146,436.813660 220.376923,422.916321 
	C208.143280,411.331940 200.342377,397.371521 196.040314,381.222900 
	C194.241287,374.469910 192.194595,367.773163 189.972626,361.147430 
	C189.094208,358.528137 187.851807,355.798157 186.044861,353.768799 
	C181.503006,348.667847 173.372925,347.556335 167.691910,350.778168 
	C161.875351,354.076874 158.963043,361.111359 160.992767,368.023895 
	C166.011749,385.116791 171.194885,402.161774 176.368500,419.208832 
	C177.743469,423.739380 178.291962,428.141754 174.508820,431.772217 
	C170.869537,435.264679 166.566223,435.597961 161.631805,433.171753 
	C159.884842,430.239227 157.499893,427.508453 156.498215,424.340271 
	C151.380127,408.152344 146.701660,391.826111 141.708420,375.597809 
	C137.270081,361.173035 140.310013,348.616669 150.865219,337.957092 
	C152.835526,335.967285 152.897491,334.413666 152.171341,331.856628 
	C149.221252,321.468201 146.378342,311.035156 143.995163,300.505554 
	C142.662109,294.615662 142.308029,288.504211 141.392899,281.586090 
	C140.494034,282.949127 140.005875,283.528534 139.691132,284.190399 
	C133.684052,296.822632 127.559181,309.401306 121.735794,322.117950 
	C110.287872,347.116974 108.425369,372.889404 117.112961,398.996155 
	C124.628563,421.580933 132.878021,443.923706 140.980331,466.309296 
	C142.746582,471.189270 142.579071,475.536346 140.352417,480.234009 
	C134.433640,492.721222 128.804276,505.345947 123.093506,517.931213 
	C121.339409,521.796814 119.694244,525.711853 118.001198,529.599670 
	C118.883049,529.964478 119.187141,530.200073 119.491615,530.200562 
	C150.305695,530.251282 181.119888,530.313049 211.933594,530.220520 
	C213.261063,530.216553 215.164352,529.107849 215.813431,527.957520 
	C219.488174,521.444763 222.861984,514.762268 226.839722,507.695709 
M354.825317,426.110138 
	C375.288483,422.223145 393.841705,413.802277 410.739044,401.832733 
	C414.499115,399.169220 418.372467,395.414490 420.042267,391.290955 
	C424.652527,379.906036 428.342377,368.127869 431.995209,356.380554 
	C437.406311,338.978577 448.334961,329.920563 466.521027,328.036255 
	C467.897552,327.893646 469.828979,326.420715 470.276917,325.138153 
	C472.414062,319.019226 474.505341,312.837463 475.927002,306.523560 
	C482.319489,278.133240 481.372986,249.954544 472.372040,222.226761 
	C461.362396,188.310928 441.114410,161.022552 412.057648,140.453217 
	C394.897644,128.305649 376.041962,119.698441 354.574890,115.347420 
	C350.804840,114.705498 347.049652,113.954155 343.262421,113.438477 
	C302.566650,107.897247 264.979156,116.555817 231.187607,139.667542 
	C201.710083,159.828720 181.150879,187.254990 170.006836,221.321182 
	C158.814819,255.533951 159.437561,289.740784 171.073822,323.796082 
	C172.132706,326.895081 173.677353,327.959991 177.089874,328.276855 
	C191.280899,329.594513 202.209518,336.478729 207.495911,349.920654 
	C212.236298,361.974274 215.536179,374.587830 219.715179,386.871460 
	C221.962189,393.476288 226.026794,398.652710 232.028061,402.676361 
	C254.191208,417.536224 278.362854,426.533752 304.963440,428.991150 
	C321.470795,430.516174 337.841888,430.066437 354.825317,426.110138 
z"/>
<path fill="#92B1F0" opacity="1.000000" stroke="none" 
	d="
M354.008789,426.053802 
	C337.841888,430.066437 321.470795,430.516174 304.963440,428.991150 
	C278.362854,426.533752 254.191208,417.536224 232.028061,402.676361 
	C226.026794,398.652710 221.962189,393.476288 219.715179,386.871460 
	C215.536179,374.587830 212.236298,361.974274 207.495911,349.920654 
	C202.209518,336.478729 191.280899,329.594513 177.089874,328.276855 
	C173.677353,327.959991 172.132706,326.895081 171.073822,323.796082 
	C159.437561,289.740784 158.814819,255.533951 170.006836,221.321182 
	C181.150879,187.254990 201.710083,159.828720 231.187607,139.667542 
	C264.979156,116.555817 302.566650,107.897247 343.262421,113.438477 
	C347.049652,113.954155 350.804840,114.705498 354.541382,115.705574 
	C344.294495,121.915672 333.557739,127.033867 324.022186,133.835999 
	C315.335663,140.032532 307.952637,148.056412 299.690826,155.481995 
	C264.775879,162.887009 238.204926,181.412720 219.705200,211.662628 
	C196.812195,249.096252 199.052505,302.947235 224.888992,338.315063 
	C243.753799,364.139343 268.787750,379.993469 300.095947,386.708801 
	C304.506958,391.390869 308.586792,395.984802 313.176239,399.995605 
	C325.454681,410.726013 339.374481,418.970032 354.008789,426.053802 
z"/>
<path fill="#CFDAF9" opacity="1.000000" stroke="none" 
	d="
M354.417053,426.081970 
	C339.374481,418.970032 325.454681,410.726013 313.176239,399.995605 
	C308.586792,395.984802 304.506958,391.390869 300.545685,386.729614 
	C313.328705,386.535248 325.986847,388.267456 338.154388,386.541290 
	C395.661407,378.383026 437.128662,330.596741 438.239777,272.465454 
	C439.262604,218.953186 402.873322,171.194809 351.034546,157.586258 
	C334.112274,153.143890 317.146515,152.976639 299.995087,155.274841 
	C307.952637,148.056412 315.335663,140.032532 324.022186,133.835999 
	C333.557739,127.033867 344.294495,121.915672 354.865540,115.933670 
	C376.041962,119.698441 394.897644,128.305649 412.057648,140.453217 
	C441.114410,161.022552 461.362396,188.310928 472.372040,222.226761 
	C481.372986,249.954544 482.319489,278.133240 475.927002,306.523560 
	C474.505341,312.837463 472.414062,319.019226 470.276917,325.138153 
	C469.828979,326.420715 467.897552,327.893646 466.521027,328.036255 
	C448.334961,329.920563 437.406311,338.978577 431.995209,356.380554 
	C428.342377,368.127869 424.652527,379.906036 420.042267,391.290955 
	C418.372467,395.414490 414.499115,399.169220 410.739044,401.832733 
	C393.841705,413.802277 375.288483,422.223145 354.417053,426.081970 
z"/>
<path fill="#F87DA1" opacity="1.000000" stroke="none" 
	d="
M226.338257,508.137573 
	C222.861984,514.762268 219.488174,521.444763 215.813431,527.957520 
	C215.164352,529.107849 213.261063,530.216553 211.933594,530.220520 
	C181.119888,530.313049 150.305695,530.251282 119.491615,530.200562 
	C119.187141,530.200073 118.883049,529.964478 118.001198,529.599670 
	C119.694244,525.711853 121.339409,521.796814 123.093506,517.931213 
	C128.804276,505.345947 134.433640,492.721222 140.352417,480.234009 
	C142.579071,475.536346 142.746582,471.189270 140.980331,466.309296 
	C132.878021,443.923706 124.628563,421.580933 117.112961,398.996155 
	C108.425369,372.889404 110.287872,347.116974 121.735794,322.117950 
	C127.559181,309.401306 133.684052,296.822632 139.691132,284.190399 
	C140.005875,283.528534 140.494034,282.949127 141.392899,281.586090 
	C142.308029,288.504211 142.662109,294.615662 143.995163,300.505554 
	C146.378342,311.035156 149.221252,321.468201 152.171341,331.856628 
	C152.897491,334.413666 152.835526,335.967285 150.865219,337.957092 
	C140.310013,348.616669 137.270081,361.173035 141.708420,375.597809 
	C146.701660,391.826111 151.380127,408.152344 156.498215,424.340271 
	C157.499893,427.508453 159.884842,430.239227 161.816833,433.839935 
	C162.601410,436.209412 163.053146,437.981079 163.823898,439.600891 
	C169.895340,452.360535 177.075668,464.355682 186.357529,475.158051 
	C197.823181,488.501923 210.971329,499.616730 226.338257,508.137573 
z"/>
<path fill="#F87DA1" opacity="1.000000" stroke="none" 
	d="
M479.999817,433.744202 
	C481.802368,430.843231 484.290100,428.159973 485.292572,425.004822 
	C490.536041,408.501831 495.425354,391.885925 500.393372,375.295990 
	C504.638672,361.119354 501.619476,348.705078 491.390930,337.961365 
	C490.315765,336.832062 489.127716,334.599487 489.546600,333.440704 
	C495.508972,316.946869 499.062653,299.956940 500.273712,282.436310 
	C500.968506,282.590637 501.449402,282.567566 501.526764,282.733063 
	C509.066406,298.866302 517.486084,314.663269 523.869324,331.244110 
	C533.065186,355.130829 532.155334,379.509155 523.508789,403.597229 
	C516.083130,424.283997 508.831635,445.034088 501.264618,465.668701 
	C499.287323,471.060669 499.547974,475.779999 502.015198,480.975403 
	C509.015778,495.716797 515.621643,510.645782 522.363464,525.509766 
	C522.961731,526.828796 523.418091,528.212280 524.232117,530.321655 
	C521.994080,530.321655 520.392395,530.321655 518.790649,530.321655 
	C489.971130,530.321655 461.151276,530.256409 432.332520,530.403137 
	C428.677643,530.421814 426.570831,529.376892 424.975647,526.025574 
	C422.187561,520.168213 418.925781,514.536255 416.136322,508.299011 
	C439.324310,494.434479 457.780396,476.540161 470.922028,453.452454 
	C474.486786,447.189728 477.002594,440.329956 479.999817,433.744202 
z"/>
<path fill="#FABCB9" opacity="1.000000" stroke="none" 
	d="
M226.588989,507.916626 
	C210.971329,499.616730 197.823181,488.501923 186.357529,475.158051 
	C177.075668,464.355682 169.895340,452.360535 163.823898,439.600891 
	C163.053146,437.981079 162.601410,436.209412 162.003265,434.108215 
	C166.566223,435.597961 170.869537,435.264679 174.508820,431.772217 
	C178.291962,428.141754 177.743469,423.739380 176.368500,419.208832 
	C171.194885,402.161774 166.011749,385.116791 160.992767,368.023895 
	C158.963043,361.111359 161.875351,354.076874 167.691910,350.778168 
	C173.372925,347.556335 181.503006,348.667847 186.044861,353.768799 
	C187.851807,355.798157 189.094208,358.528137 189.972626,361.147430 
	C192.194595,367.773163 194.241287,374.469910 196.040314,381.222900 
	C200.342377,397.371521 208.143280,411.331940 220.376923,422.916321 
	C235.053146,436.813660 240.307953,454.441101 239.004547,474.184601 
	C238.194809,486.450439 232.858490,497.235901 226.588989,507.916626 
z"/>
<path fill="#F9BCB9" opacity="1.000000" stroke="none" 
	d="
M479.606903,433.819946 
	C477.002594,440.329956 474.486786,447.189728 470.922028,453.452454 
	C457.780396,476.540161 439.324310,494.434479 416.083557,507.939758 
	C400.743774,485.462341 397.896698,461.771271 410.670135,437.341797 
	C413.910858,431.143860 418.980835,425.704224 423.959900,420.655457 
	C433.785278,410.692444 440.595490,399.144226 444.568542,385.810303 
	C447.039032,377.519043 449.512970,369.228027 452.088928,360.969177 
	C455.041260,351.503448 463.298126,346.969452 472.217957,349.797638 
	C479.697357,352.169098 483.348389,360.485321 480.657440,369.567139 
	C475.789398,385.996399 470.790222,402.386902 465.825775,418.787537 
	C464.473206,423.255829 463.771729,427.720306 467.339111,431.471710 
	C470.637878,434.940704 474.709686,435.760681 479.606903,433.819946 
z"/>
<path fill="#0A2E78" opacity="1.000000" stroke="none" 
	d="
M299.690826,155.482010 
	C317.146515,152.976639 334.112274,153.143890 351.034546,157.586258 
	C402.873322,171.194809 439.262604,218.953186 438.239777,272.465454 
	C437.128662,330.596741 395.661407,378.383026 338.154388,386.541290 
	C325.986847,388.267456 313.328705,386.535248 300.446899,386.375671 
	C268.787750,379.993469 243.753799,364.139343 224.888992,338.315063 
	C199.052505,302.947235 196.812195,249.096252 219.705200,211.662628 
	C238.204926,181.412720 264.775879,162.887009 299.690826,155.482010 
M275.137878,185.740692 
	C263.178467,192.056015 252.956619,200.564774 244.834076,211.295990 
	C216.910492,248.187637 217.198654,294.957947 245.671860,331.517975 
	C253.794495,341.947571 263.655884,350.623260 276.413696,356.607086 
	C315.965576,377.982147 367.387085,367.569550 395.832306,332.425385 
	C441.704926,275.749634 412.421722,191.953873 341.128113,176.495346 
	C318.430573,171.573853 296.437927,174.274719 275.137878,185.740692 
z"/>
<path fill="#FEFEFE" opacity="1.000000" stroke="none" 
	d="
M275.857117,185.687729 
	C296.437927,174.274719 318.430573,171.573853 341.128113,176.495346 
	C412.421722,191.953873 441.704926,275.749634 395.832306,332.425385 
	C367.387085,367.569550 315.965576,377.982147 276.183960,355.984161 
	C271.439209,344.879639 266.711151,334.483521 262.462311,323.895111 
	C256.981812,310.237244 254.627045,295.822388 254.140213,281.222321 
	C253.792603,270.798676 254.401733,260.317749 255.057449,249.892181 
	C256.002563,234.865631 260.808350,220.762573 266.435028,206.948395 
	C269.357788,199.772736 272.702820,192.769089 275.857117,185.687729 
M310.949799,238.228821 
	C297.422455,235.294373 286.748383,239.693604 280.742004,250.678696 
	C275.098694,260.999786 277.457855,272.735077 287.109802,282.402069 
	C297.111481,292.419281 307.101013,302.448639 317.113525,312.454987 
	C318.347321,313.687988 319.690033,314.812042 321.193268,316.178375 
	C327.595551,309.731598 333.605255,303.743866 339.542084,297.684753 
	C345.945190,291.149750 352.644135,284.856750 358.550781,277.895416 
	C365.598785,269.588928 365.955292,257.747253 360.299438,249.004257 
	C354.211578,239.593430 343.359344,235.040909 332.636902,238.041580 
	C328.433167,239.218002 324.601074,241.722351 320.661133,243.592773 
	C317.748260,241.938004 314.722382,240.219040 310.949799,238.228821 
z"/>
<path fill="#CFDAF9" opacity="1.000000" stroke="none" 
	d="
M275.497498,185.714203 
	C272.702820,192.769089 269.357788,199.772736 266.435028,206.948395 
	C260.808350,220.762573 256.002563,234.865631 255.057449,249.892181 
	C254.401733,260.317749 253.792603,270.798676 254.140213,281.222321 
	C254.627045,295.822388 256.981812,310.237244 262.462311,323.895111 
	C266.711151,334.483521 271.439209,344.879639 275.958984,355.723022 
	C263.655884,350.623260 253.794495,341.947571 245.671860,331.517975 
	C217.198654,294.957947 216.910492,248.187637 244.834076,211.295990 
	C252.956619,200.564774 263.178467,192.056015 275.497498,185.714203 
z"/>
<path fill="#FB80A2" opacity="1.000000" stroke="none" 
	d="
M311.323181,238.364456 
	C314.722382,240.219040 317.748260,241.938004 320.661133,243.592773 
	C324.601074,241.722351 328.433167,239.218002 332.636902,238.041580 
	C343.359344,235.040909 354.211578,239.593430 360.299438,249.004257 
	C365.955292,257.747253 365.598785,269.588928 358.550781,277.895416 
	C352.644135,284.856750 345.945190,291.149750 339.542084,297.684753 
	C333.605255,303.743866 327.595551,309.731598 321.193268,316.178375 
	C319.690033,314.812042 318.347321,313.687988 317.113525,312.454987 
	C307.101013,302.448639 297.111481,292.419281 287.109802,282.402069 
	C277.457855,272.735077 275.098694,260.999786 280.742004,250.678696 
	C286.748383,239.693604 297.422455,235.294373 311.323181,238.364456 
z"/>
</svg>