<svg version="1.1" id="Layer_1" xmlns="http://www.w3.org/2000/svg" xmlns:xlink="http://www.w3.org/1999/xlink" x="0px" y="0px"
	 width="100%" viewBox="0 0 640 640" enable-background="new 0 0 640 640" xml:space="preserve">
<path fill="#FFFFFF" opacity="1.000000" stroke="none" 
	d="
M372.000000,641.000000 
	C248.000015,641.000000 124.500046,641.000000 1.000050,641.000000 
	C1.000033,427.666718 1.000033,214.333450 1.000017,1.000136 
	C214.333237,1.000090 427.666473,1.000090 640.999756,1.000045 
	C640.999878,214.333191 640.999878,427.666382 640.999939,640.999756 
	C551.500000,641.000000 462.000000,641.000000 372.000000,641.000000 
M532.683777,307.500092 
	C532.683777,265.177307 532.970703,222.851074 532.461365,180.534409 
	C532.348450,171.154175 533.927612,163.682175 541.760132,158.094528 
	C543.351196,156.959457 544.521301,155.220352 545.840271,153.719940 
	C559.098206,138.638245 559.771729,114.718002 547.379272,99.436897 
	C533.460693,82.273987 510.458588,77.081001 492.433350,88.019661 
	C485.305847,92.345009 479.633606,99.017097 473.017792,104.266617 
	C470.890747,105.954399 467.870941,107.420677 465.247650,107.440819 
	C436.256500,107.663353 407.262909,107.617775 378.270142,107.565735 
	C363.065704,107.538445 348.432678,109.992836 335.430817,118.298241 
	C328.057098,123.008476 321.213898,128.549210 313.995911,133.814987 
	C296.610626,116.021622 275.050690,107.354408 249.189819,107.669754 
	C203.374557,108.228416 157.547592,107.824242 111.725525,107.833786 
	C109.728401,107.834198 107.706680,107.763969 105.739029,108.035439 
	C100.878563,108.706039 97.991112,111.650482 97.121109,116.404648 
	C96.765450,118.348145 96.888794,120.389465 96.888184,122.386307 
	C96.854866,231.359100 96.827744,340.331909 96.811066,449.304688 
	C96.808395,466.799530 96.806343,484.294678 96.905121,501.789124 
	C96.947868,509.361786 100.614418,513.102844 108.111969,513.530762 
	C110.272331,513.654053 112.442932,513.610657 114.608940,513.620300 
	C164.255356,513.840515 213.901718,514.110107 263.548340,514.185059 
	C267.994476,514.191772 270.566833,515.369934 272.971436,519.408630 
	C290.701599,549.187256 335.874969,548.947815 353.249725,519.019775 
	C355.330475,515.435791 357.588440,514.443481 361.495026,514.452332 
	C413.981873,514.571350 466.469055,514.544250 518.956177,514.521179 
	C528.841125,514.516846 532.209900,511.141602 532.291870,501.408997 
	C532.443359,483.427673 532.698120,465.446442 532.715881,447.464935 
	C532.761658,401.143372 532.701538,354.821747 532.683777,307.500092 
z"/>
<path fill="#072C76" opacity="1.000000" stroke="none" 
	d="
M532.683777,308.000122 
	C532.701538,354.821747 532.761658,401.143372 532.715881,447.464935 
	C532.698120,465.446442 532.443359,483.427673 532.291870,501.408997 
	C532.209900,511.141602 528.841125,514.516846 518.956177,514.521179 
	C466.469055,514.544250 413.981873,514.571350 361.495026,514.452332 
	C357.588440,514.443481 355.330475,515.435791 353.249725,519.019775 
	C335.874969,548.947815 290.701599,549.187256 272.971436,519.408630 
	C270.566833,515.369934 267.994476,514.191772 263.548340,514.185059 
	C213.901718,514.110107 164.255356,513.840515 114.608940,513.620300 
	C112.442932,513.610657 110.272331,513.654053 108.111969,513.530762 
	C100.614418,513.102844 96.947868,509.361786 96.905121,501.789124 
	C96.806343,484.294678 96.808395,466.799530 96.811066,449.304688 
	C96.827744,340.331909 96.854866,231.359100 96.888184,122.386307 
	C96.888794,120.389465 96.765450,118.348145 97.121109,116.404648 
	C97.991112,111.650482 100.878563,108.706039 105.739029,108.035439 
	C107.706680,107.763969 109.728401,107.834198 111.725525,107.833786 
	C157.547592,107.824242 203.374557,108.228416 249.189819,107.669754 
	C275.050690,107.354408 296.610626,116.021622 313.995911,133.814987 
	C321.213898,128.549210 328.057098,123.008476 335.430817,118.298241 
	C348.432678,109.992836 363.065704,107.538445 378.270142,107.565735 
	C407.262909,107.617775 436.256500,107.663353 465.247650,107.440819 
	C467.870941,107.420677 470.890747,105.954399 473.017792,104.266617 
	C479.633606,99.017097 485.305847,92.345009 492.433350,88.019661 
	C510.458588,77.081001 533.460693,82.273987 547.379272,99.436897 
	C559.771729,114.718002 559.098206,138.638245 545.840271,153.719940 
	C544.521301,155.220352 543.351196,156.959457 541.760132,158.094528 
	C533.927612,163.682175 532.348450,171.154175 532.461365,180.534409 
	C532.970703,222.851074 532.683777,265.177307 532.683777,308.000122 
M192.499969,439.158386 
	C212.996506,439.158386 233.493729,439.263611 253.989349,439.125763 
	C270.996765,439.011383 287.952820,438.930420 303.861847,447.515900 
	C303.861847,423.845703 303.861847,400.848572 303.861847,377.510681 
	C302.699707,377.815765 301.888489,377.943665 301.142517,378.237183 
	C286.919495,383.834076 272.721893,389.496277 258.470032,395.018555 
	C256.044800,395.958282 253.395676,396.851074 250.846909,396.859802 
	C222.518982,396.956665 194.190460,396.876099 165.862091,396.841034 
	C156.400909,396.829346 151.561554,393.105011 151.719070,385.966278 
	C151.861069,379.531189 156.679855,376.163086 165.800858,376.160675 
	C190.963669,376.154083 216.126541,376.137817 241.289246,376.190704 
	C243.765305,376.195892 245.524277,376.034302 246.627991,373.162842 
	C254.911453,351.612701 263.335785,330.115845 271.879791,308.667572 
	C273.011322,305.827057 274.663574,302.966827 276.765991,300.780487 
	C284.848907,292.374908 293.311798,284.334503 301.384613,275.919678 
	C302.900604,274.339478 304.055237,271.670288 304.064819,269.497864 
	C304.226654,232.837524 304.256256,196.175812 304.041687,159.516006 
	C304.023895,156.476395 302.746948,152.890900 300.859192,150.505310 
	C288.653809,135.080917 272.121002,128.301453 252.829819,128.224854 
	C209.337158,128.052170 165.843353,128.168091 122.350006,128.180664 
	C120.751289,128.181122 119.152626,128.329468 117.444382,128.414352 
	C117.444382,232.123779 117.444382,335.370667 117.444382,439.158417 
	C142.279984,439.158417 166.889954,439.158417 192.499969,439.158386 
M511.929901,246.500000 
	C511.929901,227.429703 511.929901,208.359421 511.929901,188.391342 
	C510.219238,189.927979 509.231171,190.735916 508.332977,191.633743 
	C452.113495,247.831100 395.931396,304.065979 339.606110,360.157013 
	C336.557190,363.193268 332.440369,365.265808 328.578491,367.335022 
	C326.378723,368.513611 324.835938,369.232819 324.908997,372.279938 
	C325.156677,382.606140 325.003448,392.941956 325.003418,403.274078 
	C325.003387,417.892914 325.003387,432.511719 325.003387,447.803741 
	C340.066193,439.629700 355.920258,439.053986 371.982941,439.106567 
	C416.643982,439.252716 461.305756,439.157257 505.967255,439.157257 
	C507.880829,439.157257 509.794373,439.157257 511.929901,439.157257 
	C511.929901,374.781189 511.929901,311.140594 511.929901,246.500000 
M434.500000,493.995544 
	C460.232391,493.995544 485.964783,493.995544 511.569244,493.995544 
	C511.569244,482.188232 511.569244,471.276733 511.569244,460.309387 
	C510.554169,460.175354 509.907227,460.015198 509.260284,460.015076 
	C458.107605,460.005554 406.952606,459.744965 355.803864,460.195648 
	C342.991150,460.308533 331.544312,465.380615 323.227600,475.969910 
	C319.074127,481.258331 311.783661,481.451050 307.072052,476.588776 
	C305.234650,474.692657 303.675110,472.480011 301.656281,470.814972 
	C292.287201,463.087921 281.467590,459.821869 269.315491,459.857117 
	C220.329285,459.999237 171.342407,459.910339 122.355782,459.923737 
	C120.757370,459.924164 119.158997,460.107880 117.556595,460.206421 
	C117.556595,471.399170 117.556595,482.111450 117.556595,493.811768 
	C135.944031,493.811768 153.907379,493.791687 171.870651,493.816071 
	C206.194550,493.862640 240.518417,493.928833 274.842285,494.000397 
	C282.116791,494.015564 284.510742,495.689911 287.299500,502.404572 
	C288.189026,504.546417 288.999756,506.788788 290.287445,508.685944 
	C296.539185,517.896484 305.355011,522.314880 316.388733,520.880920 
	C326.722412,519.537964 334.015198,513.685669 338.062744,503.897217 
	C341.788086,494.888092 343.268494,493.996490 353.021973,493.996002 
	C379.847992,493.994659 406.673981,493.995544 434.500000,493.995544 
M408.979248,197.479324 
	C371.751312,234.705963 334.523346,271.932617 297.666229,308.788452 
	C308.469177,319.578339 319.032501,330.128876 329.079987,340.164185 
	C384.397614,284.776672 440.023987,229.080048 495.241394,173.792877 
	C485.165253,163.710968 474.621216,153.160919 463.917206,142.450790 
	C445.971893,160.425995 427.725616,178.702667 408.979248,197.479324 
M441.477722,135.979431 
	C443.814148,133.588470 446.150543,131.197525 449.105011,128.174088 
	C423.572479,128.174088 399.262573,127.848900 374.966095,128.279236 
	C356.271088,128.610367 340.269653,135.646652 328.534882,150.632294 
	C326.479797,153.256668 325.182526,157.212723 325.152130,160.568390 
	C324.891266,189.366547 324.999115,218.168060 325.011780,246.968582 
	C325.012451,248.503082 325.147858,250.037537 325.248474,252.162018 
	C364.217743,213.208527 402.597992,174.843811 441.477722,135.979431 
M512.638794,158.263580 
	C518.600403,152.221375 524.772217,146.369705 530.468445,140.086884 
	C537.030457,132.849182 537.608521,122.014816 532.411804,113.647827 
	C527.228271,105.302040 517.800598,101.296295 508.331177,103.619278 
	C494.822174,106.933205 489.017914,119.483780 479.014313,127.161263 
	C489.607941,137.810257 499.569275,147.851059 509.593475,157.828720 
	C510.162567,158.395172 511.246429,158.444443 512.638794,158.263580 
M282.047119,338.531158 
	C278.312073,348.162567 274.577026,357.793945 270.538452,368.208008 
	C284.481262,362.748535 297.354126,357.707977 309.574677,352.922852 
	C301.494171,344.826996 293.627808,336.945679 285.832397,329.135468 
	C284.803284,331.669128 283.556305,334.739136 282.047119,338.531158 
z"/>
<path fill="#FEFEFE" opacity="1.000000" stroke="none" 
	d="
M191.999954,439.158386 
	C166.889954,439.158417 142.279984,439.158417 117.444382,439.158417 
	C117.444382,335.370667 117.444382,232.123779 117.444382,128.414352 
	C119.152626,128.329468 120.751289,128.181122 122.350006,128.180664 
	C165.843353,128.168091 209.337158,128.052170 252.829819,128.224854 
	C272.121002,128.301453 288.653809,135.080917 300.859192,150.505310 
	C302.746948,152.890900 304.023895,156.476395 304.041687,159.516006 
	C304.256256,196.175812 304.226654,232.837524 304.064819,269.497864 
	C304.055237,271.670288 302.900604,274.339478 301.384613,275.919678 
	C293.311798,284.334503 284.848907,292.374908 276.765991,300.780487 
	C274.663574,302.966827 273.011322,305.827057 271.879791,308.667572 
	C263.335785,330.115845 254.911453,351.612701 246.627991,373.162842 
	C245.524277,376.034302 243.765305,376.195892 241.289246,376.190704 
	C216.126541,376.137817 190.963669,376.154083 165.800858,376.160675 
	C156.679855,376.163086 151.861069,379.531189 151.719070,385.966278 
	C151.561554,393.105011 156.400909,396.829346 165.862091,396.841034 
	C194.190460,396.876099 222.518982,396.956665 250.846909,396.859802 
	C253.395676,396.851074 256.044800,395.958282 258.470032,395.018555 
	C272.721893,389.496277 286.919495,383.834076 301.142517,378.237183 
	C301.888489,377.943665 302.699707,377.815765 303.861847,377.510681 
	C303.861847,400.848572 303.861847,423.845703 303.861847,447.515900 
	C287.952820,438.930420 270.996765,439.011383 253.989349,439.125763 
	C233.493729,439.263611 212.996506,439.158386 191.999954,439.158386 
M179.078064,192.436432 
	C178.239899,192.976913 177.372345,193.477081 176.568024,194.063965 
	C165.715561,201.982468 160.375809,212.601624 162.234299,226.002548 
	C163.924942,238.193069 171.027466,246.473557 182.598419,250.923477 
	C191.121658,254.201324 199.637360,257.518372 208.019867,261.134491 
	C212.408386,263.027649 216.904343,265.084137 220.644043,267.980621 
	C227.813431,273.533508 228.095184,281.992004 221.712982,288.312561 
	C217.299301,292.683685 211.865372,294.918060 205.571457,295.177643 
	C193.085052,295.692566 182.442459,291.823364 173.564011,282.827271 
	C168.831039,278.031586 162.682983,278.213196 158.579102,282.618500 
	C154.610428,286.878662 154.550583,293.165955 159.529205,297.188202 
	C165.798462,302.253174 172.642426,306.669128 179.543320,310.863495 
	C182.966766,312.944214 188.612457,312.882324 190.446381,315.649597 
	C192.376358,318.561859 190.939682,323.694397 191.003860,327.856354 
	C191.113113,334.939148 195.078339,339.585541 201.096558,339.716949 
	C207.038345,339.846741 211.247543,335.279083 211.488403,328.207062 
	C211.634232,323.925293 211.515259,319.634491 211.515259,316.371918 
	C217.972580,313.490509 223.839737,311.515533 229.043610,308.424042 
	C242.139771,300.643890 249.029327,285.581696 246.100128,271.954559 
	C243.132629,258.149078 233.621460,249.932083 221.400131,244.525955 
	C211.073120,239.957794 200.515228,235.902847 189.998230,231.776993 
	C185.556839,230.034622 182.447403,227.193802 182.302078,222.358704 
	C182.154358,217.444107 183.947144,212.611893 188.683243,210.836975 
	C193.809296,208.915924 199.496521,207.576981 204.929840,207.607590 
	C212.887726,207.652451 219.912277,211.356552 226.468460,215.893829 
	C231.963120,219.696457 237.999939,218.608994 241.375320,213.653320 
	C244.567932,208.966049 243.517899,202.977859 238.176727,199.279968 
	C233.696579,196.178253 228.980576,192.453857 223.878632,191.416275 
	C213.591736,189.324173 209.897568,184.463867 211.240814,173.933319 
	C212.114395,167.084671 207.197556,162.871643 201.146271,162.911163 
	C195.064316,162.950882 191.136276,167.464447 191.013840,174.678848 
	C190.940475,179.001602 191.000381,183.326614 191.000381,187.434357 
	C187.068024,189.061157 183.403397,190.577209 179.078064,192.436432 
z"/>
<path fill="#FEFEFE" opacity="1.000000" stroke="none" 
	d="
M511.929901,247.000000 
	C511.929901,311.140594 511.929901,374.781189 511.929901,439.157257 
	C509.794373,439.157257 507.880829,439.157257 505.967255,439.157257 
	C461.305756,439.157257 416.643982,439.252716 371.982941,439.106567 
	C355.920258,439.053986 340.066193,439.629700 325.003387,447.803741 
	C325.003387,432.511719 325.003387,417.892914 325.003418,403.274078 
	C325.003448,392.941956 325.156677,382.606140 324.908997,372.279938 
	C324.835938,369.232819 326.378723,368.513611 328.578491,367.335022 
	C332.440369,365.265808 336.557190,363.193268 339.606110,360.157013 
	C395.931396,304.065979 452.113495,247.831100 508.332977,191.633743 
	C509.231171,190.735916 510.219238,189.927979 511.929901,188.391342 
	C511.929901,208.359421 511.929901,227.429703 511.929901,247.000000 
z"/>
<path fill="#27A1CC" opacity="1.000000" stroke="none" 
	d="
M434.000000,493.995544 
	C406.673981,493.995544 379.847992,493.994659 353.021973,493.996002 
	C343.268494,493.996490 341.788086,494.888092 338.062744,503.897217 
	C334.015198,513.685669 326.722412,519.537964 316.388733,520.880920 
	C305.355011,522.314880 296.539185,517.896484 290.287445,508.685944 
	C288.999756,506.788788 288.189026,504.546417 287.299500,502.404572 
	C284.510742,495.689911 282.116791,494.015564 274.842285,494.000397 
	C240.518417,493.928833 206.194550,493.862640 171.870651,493.816071 
	C153.907379,493.791687 135.944031,493.811768 117.556595,493.811768 
	C117.556595,482.111450 117.556595,471.399170 117.556595,460.206421 
	C119.158997,460.107880 120.757370,459.924164 122.355782,459.923737 
	C171.342407,459.910339 220.329285,459.999237 269.315491,459.857117 
	C281.467590,459.821869 292.287201,463.087921 301.656281,470.814972 
	C303.675110,472.480011 305.234650,474.692657 307.072052,476.588776 
	C311.783661,481.451050 319.074127,481.258331 323.227600,475.969910 
	C331.544312,465.380615 342.991150,460.308533 355.803864,460.195648 
	C406.952606,459.744965 458.107605,460.005554 509.260284,460.015076 
	C509.907227,460.015198 510.554169,460.175354 511.569244,460.309387 
	C511.569244,471.276733 511.569244,482.188232 511.569244,493.995544 
	C485.964783,493.995544 460.232391,493.995544 434.000000,493.995544 
z"/>
<path fill="#FC6050" opacity="1.000000" stroke="none" 
	d="
M409.229279,197.229340 
	C427.725616,178.702667 445.971893,160.425995 463.917206,142.450790 
	C474.621216,153.160919 485.165253,163.710968 495.241394,173.792877 
	C440.023987,229.080048 384.397614,284.776672 329.079987,340.164185 
	C319.032501,330.128876 308.469177,319.578339 297.666229,308.788452 
	C334.523346,271.932617 371.751312,234.705963 409.229279,197.229340 
z"/>
<path fill="#FEFEFE" opacity="1.000000" stroke="none" 
	d="
M441.227966,136.229279 
	C402.597992,174.843811 364.217743,213.208527 325.248474,252.162018 
	C325.147858,250.037537 325.012451,248.503082 325.011780,246.968582 
	C324.999115,218.168060 324.891266,189.366547 325.152130,160.568390 
	C325.182526,157.212723 326.479797,153.256668 328.534882,150.632294 
	C340.269653,135.646652 356.271088,128.610367 374.966095,128.279236 
	C399.262573,127.848900 423.572479,128.174088 449.105011,128.174088 
	C446.150543,131.197525 443.814148,133.588470 441.227966,136.229279 
z"/>
<path fill="#FB6050" opacity="1.000000" stroke="none" 
	d="
M512.364746,158.498993 
	C511.246429,158.444443 510.162567,158.395172 509.593475,157.828720 
	C499.569275,147.851059 489.607941,137.810257 479.014313,127.161263 
	C489.017914,119.483780 494.822174,106.933205 508.331177,103.619278 
	C517.800598,101.296295 527.228271,105.302040 532.411804,113.647827 
	C537.608521,122.014816 537.030457,132.849182 530.468445,140.086884 
	C524.772217,146.369705 518.600403,152.221375 512.364746,158.498993 
z"/>
<path fill="#F8C851" opacity="1.000000" stroke="none" 
	d="
M282.178223,338.170135 
	C283.556305,334.739136 284.803284,331.669128 285.832397,329.135468 
	C293.627808,336.945679 301.494171,344.826996 309.574677,352.922852 
	C297.354126,357.707977 284.481262,362.748535 270.538452,368.208008 
	C274.577026,357.793945 278.312073,348.162567 282.178223,338.170135 
z"/>
<path fill="#082C77" opacity="1.000000" stroke="none" 
	d="
M179.408417,192.264832 
	C183.403397,190.577209 187.068024,189.061157 191.000381,187.434357 
	C191.000381,183.326614 190.940475,179.001602 191.013840,174.678848 
	C191.136276,167.464447 195.064316,162.950882 201.146271,162.911163 
	C207.197556,162.871643 212.114395,167.084671 211.240814,173.933319 
	C209.897568,184.463867 213.591736,189.324173 223.878632,191.416275 
	C228.980576,192.453857 233.696579,196.178253 238.176727,199.279968 
	C243.517899,202.977859 244.567932,208.966049 241.375320,213.653320 
	C237.999939,218.608994 231.963120,219.696457 226.468460,215.893829 
	C219.912277,211.356552 212.887726,207.652451 204.929840,207.607590 
	C199.496521,207.576981 193.809296,208.915924 188.683243,210.836975 
	C183.947144,212.611893 182.154358,217.444107 182.302078,222.358704 
	C182.447403,227.193802 185.556839,230.034622 189.998230,231.776993 
	C200.515228,235.902847 211.073120,239.957794 221.400131,244.525955 
	C233.621460,249.932083 243.132629,258.149078 246.100128,271.954559 
	C249.029327,285.581696 242.139771,300.643890 229.043610,308.424042 
	C223.839737,311.515533 217.972580,313.490509 211.515259,316.371918 
	C211.515259,319.634491 211.634232,323.925293 211.488403,328.207062 
	C211.247543,335.279083 207.038345,339.846741 201.096558,339.716949 
	C195.078339,339.585541 191.113113,334.939148 191.003860,327.856354 
	C190.939682,323.694397 192.376358,318.561859 190.446381,315.649597 
	C188.612457,312.882324 182.966766,312.944214 179.543320,310.863495 
	C172.642426,306.669128 165.798462,302.253174 159.529205,297.188202 
	C154.550583,293.165955 154.610428,286.878662 158.579102,282.618500 
	C162.682983,278.213196 168.831039,278.031586 173.564011,282.827271 
	C182.442459,291.823364 193.085052,295.692566 205.571457,295.177643 
	C211.865372,294.918060 217.299301,292.683685 221.712982,288.312561 
	C228.095184,281.992004 227.813431,273.533508 220.644043,267.980621 
	C216.904343,265.084137 212.408386,263.027649 208.019867,261.134491 
	C199.637360,257.518372 191.121658,254.201324 182.598419,250.923477 
	C171.027466,246.473557 163.924942,238.193069 162.234299,226.002548 
	C160.375809,212.601624 165.715561,201.982468 176.568024,194.063965 
	C177.372345,193.477081 178.239899,192.976913 179.408417,192.264832 
z"/>
</svg>