<svg version="1.1" id="Layer_1" xmlns="http://www.w3.org/2000/svg" xmlns:xlink="http://www.w3.org/1999/xlink" x="0px" y="0px"
	 width="100%" viewBox="0 0 640 640" enable-background="new 0 0 640 640" xml:space="preserve">
<path fill="#FFFFFF" opacity="1.000000" stroke="none" 
	d="
M350.000000,641.000000 
	C233.333359,641.000000 117.166710,641.000000 1.000047,641.000000 
	C1.000031,427.666718 1.000031,214.333450 1.000016,1.000133 
	C214.333237,1.000088 427.666473,1.000088 640.999756,1.000044 
	C640.999878,214.333191 640.999878,427.666382 640.999939,640.999756 
	C544.166687,641.000000 447.333344,641.000000 350.000000,641.000000 
M92.689987,360.489349 
	C92.689766,422.807312 92.687759,485.125275 92.691391,547.443237 
	C92.691887,556.062744 96.059540,559.409668 104.792404,559.410034 
	C248.923508,559.416138 393.054626,559.416016 537.185730,559.410156 
	C545.955444,559.409790 549.715637,555.713928 549.712463,547.065247 
	C549.664124,416.099457 549.608826,285.133667 549.541260,154.167892 
	C549.536194,144.326004 545.842957,140.658737 535.907898,140.623947 
	C522.744629,140.577835 509.580139,140.526123 496.418335,140.672821 
	C493.211670,140.708557 492.001740,139.822113 492.099091,136.464203 
	C492.306610,129.306168 492.290192,122.132126 492.066040,114.974022 
	C491.876923,108.934853 487.559875,104.819122 481.939758,104.818291 
	C476.325439,104.817451 471.975159,108.992088 471.800385,114.971901 
	C471.605743,121.631409 471.738342,128.300491 471.729675,134.965408 
	C471.727417,136.710663 471.729370,138.455917 471.729370,140.147369 
	C424.074799,140.147369 377.222290,140.147369 329.971405,140.147369 
	C329.971405,131.546570 330.211487,123.397346 329.903534,115.268883 
	C329.598419,107.214561 321.919769,102.726357 315.001556,106.239265 
	C311.100708,108.220055 309.929840,111.683952 309.936584,115.773430 
	C309.949921,123.851547 309.940521,131.929703 309.940521,139.833771 
	C262.752899,139.833771 216.332138,139.833771 169.644424,139.833771 
	C169.644424,132.370285 169.749603,125.221764 169.589233,118.079216 
	C169.530548,115.465797 169.313141,112.672531 168.337936,110.302994 
	C166.554886,105.970528 161.938110,104.022346 157.147812,104.938812 
	C152.549149,105.818611 149.229416,109.656982 149.106857,114.968697 
	C148.915939,123.243500 149.056366,131.525955 149.056366,140.153091 
	C134.733170,140.153091 120.934059,140.381195 107.147324,140.066879 
	C98.976929,139.880615 92.803879,143.195206 92.850601,154.066452 
	C93.135567,220.382202 92.995750,286.699768 92.980423,353.016754 
	C92.979919,355.173615 92.794586,357.330383 92.689987,360.489349 
z"/>
<path fill="#092D76" opacity="1.000000" stroke="none" 
	d="
M92.692703,359.988281 
	C92.794586,357.330383 92.979919,355.173615 92.980423,353.016754 
	C92.995750,286.699768 93.135567,220.382202 92.850601,154.066452 
	C92.803879,143.195206 98.976929,139.880615 107.147324,140.066879 
	C120.934059,140.381195 134.733170,140.153091 149.056366,140.153091 
	C149.056366,131.525955 148.915939,123.243500 149.106857,114.968697 
	C149.229416,109.656982 152.549149,105.818611 157.147812,104.938812 
	C161.938110,104.022346 166.554886,105.970528 168.337936,110.302994 
	C169.313141,112.672531 169.530548,115.465797 169.589233,118.079216 
	C169.749603,125.221764 169.644424,132.370285 169.644424,139.833771 
	C216.332138,139.833771 262.752899,139.833771 309.940521,139.833771 
	C309.940521,131.929703 309.949921,123.851547 309.936584,115.773430 
	C309.929840,111.683952 311.100708,108.220055 315.001556,106.239265 
	C321.919769,102.726357 329.598419,107.214561 329.903534,115.268883 
	C330.211487,123.397346 329.971405,131.546570 329.971405,140.147369 
	C377.222290,140.147369 424.074799,140.147369 471.729370,140.147369 
	C471.729370,138.455917 471.727417,136.710663 471.729675,134.965408 
	C471.738342,128.300491 471.605743,121.631409 471.800385,114.971901 
	C471.975159,108.992088 476.325439,104.817451 481.939758,104.818291 
	C487.559875,104.819122 491.876923,108.934853 492.066040,114.974022 
	C492.290192,122.132126 492.306610,129.306168 492.099091,136.464203 
	C492.001740,139.822113 493.211670,140.708557 496.418335,140.672821 
	C509.580139,140.526123 522.744629,140.577835 535.907898,140.623947 
	C545.842957,140.658737 549.536194,144.326004 549.541260,154.167892 
	C549.608826,285.133667 549.664124,416.099457 549.712463,547.065247 
	C549.715637,555.713928 545.955444,559.409790 537.185730,559.410156 
	C393.054626,559.416016 248.923508,559.416138 104.792404,559.410034 
	C96.059540,559.409668 92.691887,556.062744 92.691391,547.443237 
	C92.687759,485.125275 92.689766,422.807312 92.692703,359.988281 
M259.955353,538.845398 
	C348.453400,538.869995 436.951477,538.896790 525.449524,538.895386 
	C526.539490,538.895386 527.629456,538.534546 528.629150,538.358093 
	C528.629150,439.248291 528.629150,340.489441 528.629150,241.189865 
	C526.363647,241.189865 524.407654,241.189865 522.451660,241.189865 
	C454.952576,241.189865 387.453522,241.190079 319.954437,241.188477 
	C318.287994,241.188446 316.621552,241.161057 314.955109,241.158386 
	C292.972137,241.123077 270.989166,241.089920 248.083115,240.874680 
	C203.344864,240.874680 158.606628,240.874680 113.647987,240.874680 
	C113.554245,242.892883 113.430008,244.365280 113.425591,245.838043 
	C113.308365,284.966614 113.146683,324.095154 113.110023,363.223816 
	C113.057137,419.680939 113.156265,476.138306 112.990578,532.594971 
	C112.976288,537.461487 113.914070,539.096191 119.212021,539.068176 
	C164.176636,538.830566 209.143036,538.936035 254.108902,538.917603 
	C255.759384,538.916931 257.409790,538.699280 259.955353,538.845398 
M346.499969,220.317108 
	C407.109528,220.317108 467.719086,220.317108 528.582275,220.317108 
	C528.582275,200.366623 528.582275,181.000854 528.582275,161.187317 
	C517.085083,161.187317 505.952179,161.097916 494.827118,161.351624 
	C493.905212,161.372635 492.353516,163.670059 492.264893,164.988464 
	C491.941498,169.799957 492.284546,174.652832 492.057892,179.475128 
	C491.769135,185.618179 487.609100,189.679657 481.983643,189.697433 
	C476.205200,189.715698 472.167847,185.844864 471.835083,179.605194 
	C471.604675,175.284378 471.452789,170.914337 471.839996,166.618027 
	C472.245636,162.116211 470.615753,161.052795 466.252777,161.068710 
	C422.592987,161.227890 378.932404,161.162613 335.272034,161.176392 
	C333.664886,161.176910 332.057800,161.339432 330.004425,161.450592 
	C330.004425,167.193726 330.044647,172.493820 329.994720,177.793060 
	C329.924744,185.220413 325.772614,190.139221 319.739258,190.038986 
	C314.167603,189.946426 310.035431,184.825974 309.956329,177.787003 
	C309.894958,172.327972 309.944092,166.867706 309.944092,161.280334 
	C262.953278,161.280334 216.440186,161.280334 169.692200,161.280334 
	C169.692200,164.358398 169.692749,167.018402 169.692062,169.678421 
	C169.691360,172.344696 169.746445,175.012512 169.675308,177.676926 
	C169.553207,182.249924 168.163437,186.272369 163.872391,188.544815 
	C157.000793,192.183868 149.412720,187.145950 149.091751,178.646927 
	C148.873688,172.872757 149.050079,167.083679 149.050079,161.191772 
	C136.938812,161.191772 125.387222,161.191772 113.739105,161.191772 
	C113.739105,180.921860 113.739105,200.319550 113.739105,220.317413 
	C191.228714,220.317413 268.364319,220.317413 346.499969,220.317108 
z"/>
<path fill="#FEFEFF" opacity="1.000000" stroke="none" 
	d="
M249.006195,241.056229 
	C270.989166,241.089920 292.972137,241.123077 314.955109,241.158386 
	C316.621552,241.161057 318.287994,241.188446 319.954437,241.188477 
	C387.453522,241.190079 454.952576,241.189865 522.451660,241.189865 
	C524.407654,241.189865 526.363647,241.189865 528.629150,241.189865 
	C528.629150,340.489441 528.629150,439.248291 528.629150,538.358093 
	C527.629456,538.534546 526.539490,538.895386 525.449524,538.895386 
	C436.951477,538.896790 348.453400,538.869995 259.453430,538.380493 
	C257.226044,534.342712 255.227203,530.873596 253.824371,527.178162 
	C248.786118,513.906372 243.949295,500.558136 239.491028,487.126434 
	C246.272781,486.998199 252.599884,486.968842 258.926971,486.968506 
	C326.219910,486.964905 393.512817,486.969482 460.805756,486.962158 
	C471.494507,486.960999 474.911285,483.578278 474.914978,472.980408 
	C474.927368,437.333862 474.920532,401.687286 474.920166,366.040741 
	C474.919922,344.554260 474.857056,323.067444 474.960602,301.581482 
	C474.985931,296.325867 473.074738,292.363831 468.172424,290.526703 
	C465.769531,289.626251 462.936554,289.645020 460.297150,289.637512 
	C391.853638,289.443268 323.410004,289.303925 254.966385,289.143250 
	C247.974762,289.126831 240.983292,289.035675 233.979279,288.560425 
	C234.179840,286.679260 234.179138,285.145691 234.638855,283.765503 
	C239.385269,269.514862 244.206100,255.288986 249.006195,241.056229 
z"/>
<path fill="#CFDAFA" opacity="1.000000" stroke="none" 
	d="
M248.544647,240.965454 
	C244.206100,255.288986 239.385269,269.514862 234.638855,283.765503 
	C234.179138,285.145691 234.179840,286.679260 233.518829,288.647980 
	C214.913666,289.153290 196.756195,289.091095 178.599442,289.178192 
	C170.086365,289.219025 166.145279,293.315094 166.091995,301.787231 
	C165.968430,321.434601 165.782806,341.081970 165.764374,360.729492 
	C165.729492,397.875488 165.792679,435.021606 165.819122,472.167664 
	C165.827454,483.858032 168.930634,486.930664 180.600983,486.971588 
	C200.079498,487.039917 219.557892,487.147644 239.036346,487.238770 
	C243.949295,500.558136 248.786118,513.906372 253.824371,527.178162 
	C255.227203,530.873596 257.226044,534.342712 259.005859,538.249207 
	C257.409790,538.699280 255.759384,538.916931 254.108902,538.917603 
	C209.143036,538.936035 164.176636,538.830566 119.212021,539.068176 
	C113.914070,539.096191 112.976288,537.461487 112.990578,532.594971 
	C113.156265,476.138306 113.057137,419.680939 113.110023,363.223816 
	C113.146683,324.095154 113.308365,284.966614 113.425591,245.838043 
	C113.430008,244.365280 113.554245,242.892883 113.647987,240.874680 
	C158.606628,240.874680 203.344864,240.874680 248.544647,240.965454 
z"/>
<path fill="#FB6050" opacity="1.000000" stroke="none" 
	d="
M345.999939,220.317261 
	C268.364319,220.317413 191.228714,220.317413 113.739105,220.317413 
	C113.739105,200.319550 113.739105,180.921860 113.739105,161.191772 
	C125.387222,161.191772 136.938812,161.191772 149.050079,161.191772 
	C149.050079,167.083679 148.873688,172.872757 149.091751,178.646927 
	C149.412720,187.145950 157.000793,192.183868 163.872391,188.544815 
	C168.163437,186.272369 169.553207,182.249924 169.675308,177.676926 
	C169.746445,175.012512 169.691360,172.344696 169.692062,169.678421 
	C169.692749,167.018402 169.692200,164.358398 169.692200,161.280334 
	C216.440186,161.280334 262.953278,161.280334 309.944092,161.280334 
	C309.944092,166.867706 309.894958,172.327972 309.956329,177.787003 
	C310.035431,184.825974 314.167603,189.946426 319.739258,190.038986 
	C325.772614,190.139221 329.924744,185.220413 329.994720,177.793060 
	C330.044647,172.493820 330.004425,167.193726 330.004425,161.450592 
	C332.057800,161.339432 333.664886,161.176910 335.272034,161.176392 
	C378.932404,161.162613 422.592987,161.227890 466.252777,161.068710 
	C470.615753,161.052795 472.245636,162.116211 471.839996,166.618027 
	C471.452789,170.914337 471.604675,175.284378 471.835083,179.605194 
	C472.167847,185.844864 476.205200,189.715698 481.983643,189.697433 
	C487.609100,189.679657 491.769135,185.618179 492.057892,179.475128 
	C492.284546,174.652832 491.941498,169.799957 492.264893,164.988464 
	C492.353516,163.670059 493.905212,161.372635 494.827118,161.351624 
	C505.952179,161.097916 517.085083,161.187317 528.582275,161.187317 
	C528.582275,181.000854 528.582275,200.366623 528.582275,220.317108 
	C467.719086,220.317108 407.109528,220.317108 345.999939,220.317261 
z"/>
<path fill="#0A2E78" opacity="1.000000" stroke="none" 
	d="
M239.491013,487.126434 
	C219.557892,487.147644 200.079498,487.039917 180.600983,486.971588 
	C168.930634,486.930664 165.827454,483.858032 165.819122,472.167664 
	C165.792679,435.021606 165.729492,397.875488 165.764374,360.729492 
	C165.782806,341.081970 165.968430,321.434601 166.091995,301.787231 
	C166.145279,293.315094 170.086365,289.219025 178.599442,289.178192 
	C196.756195,289.091095 214.913666,289.153290 233.531296,289.066772 
	C240.983292,289.035675 247.974762,289.126831 254.966385,289.143250 
	C323.410004,289.303925 391.853638,289.443268 460.297150,289.637512 
	C462.936554,289.645020 465.769531,289.626251 468.172424,290.526703 
	C473.074738,292.363831 474.985931,296.325867 474.960602,301.581482 
	C474.857056,323.067444 474.919922,344.554260 474.920166,366.040741 
	C474.920532,401.687286 474.927368,437.333862 474.914978,472.980408 
	C474.911285,483.578278 471.494507,486.960999 460.805756,486.962158 
	C393.512817,486.969482 326.219910,486.964905 258.926971,486.968506 
	C252.599884,486.968842 246.272781,486.998199 239.491013,487.126434 
M223.965912,407.572754 
	C228.532608,407.572754 233.099304,407.572754 237.623383,407.572754 
	C237.623383,394.461426 237.623383,382.102905 237.623383,369.490997 
	C232.241974,369.490997 227.161316,369.490997 221.169189,369.224396 
	C210.837708,369.203033 200.506119,369.201324 190.174835,369.144501 
	C188.000565,369.132538 186.210220,369.192139 186.231644,372.178802 
	C186.309357,383.010223 186.184814,393.843994 186.388367,404.672119 
	C186.407684,405.699402 188.182968,407.564178 189.152023,407.570129 
	C200.461960,407.639496 211.773605,407.426727 223.965912,407.572754 
M224.921158,348.124847 
	C229.310318,348.124847 233.699493,348.124847 237.825195,348.124847 
	C237.825195,334.917725 237.825195,322.441193 237.825195,310.101868 
	C234.297516,310.101868 231.164505,310.101868 227.109695,309.896240 
	C213.824402,309.896240 200.539124,309.896240 187.159698,309.896240 
	C187.159698,322.882935 187.159698,335.402649 187.159698,347.958649 
	C199.705658,347.958649 211.852249,347.958649 224.921158,348.124847 
M232.878448,466.262482 
	C234.447586,466.262482 236.016724,466.262482 237.612579,466.262482 
	C237.612579,453.225067 237.612579,440.871033 237.612579,428.229706 
	C233.543488,428.229706 229.785217,428.229706 225.115829,427.980896 
	C213.647186,427.975098 202.176987,427.878815 190.711792,428.074768 
	C189.231064,428.100067 186.520081,429.607483 186.499100,430.479431 
	C186.216187,442.233704 186.309357,453.996979 186.309357,466.023956 
	C201.884842,466.023956 216.944839,466.023956 232.878448,466.262482 
M417.506958,348.679443 
	C429.719849,348.679443 441.932770,348.679443 454.152557,348.679443 
	C454.152557,335.421783 454.152557,323.036377 454.152557,310.499329 
	C436.954865,310.499329 420.095215,310.499329 403.010193,310.499329 
	C403.010193,323.226166 403.010193,335.631989 403.010193,348.679321 
	C407.629028,348.679321 412.070251,348.679321 417.506958,348.679443 
M402.782745,401.383759 
	C402.782745,403.316650 402.782745,405.249542 402.782745,407.332520 
	C420.266571,407.332520 437.119080,407.332520 454.052948,407.332520 
	C454.052948,394.484039 454.052948,381.987579 454.052948,369.603699 
	C436.769318,369.603699 419.925293,369.603699 402.782684,369.603699 
	C402.782684,380.155273 402.782684,390.281708 402.782745,401.383759 
M258.467926,386.503021 
	C258.467926,393.434753 258.467926,400.366516 258.467926,407.230133 
	C276.057922,407.230133 292.916107,407.230133 309.695801,407.230133 
	C309.695801,394.389832 309.695801,382.003845 309.695801,369.423340 
	C292.563354,369.423340 275.826111,369.423340 258.468170,369.423340 
	C258.468170,374.941864 258.468170,380.223785 258.467926,386.503021 
M330.671844,345.285889 
	C330.162842,348.986389 332.659424,348.697693 335.079224,348.692810 
	C349.229248,348.664337 363.379333,348.687714 377.529388,348.665222 
	C378.972443,348.662933 380.415161,348.472382 381.917297,348.364960 
	C381.917297,335.532654 381.917297,323.134827 381.917297,310.549377 
	C364.732880,310.549377 347.876434,310.549377 330.670990,310.549377 
	C330.670990,322.054077 330.670990,333.191345 330.671844,345.285889 
M343.512207,369.176392 
	C339.397980,369.176392 335.283783,369.176392 331.062347,369.176392 
	C331.062347,382.268707 331.062347,394.785400 331.062347,407.377808 
	C348.193817,407.377808 364.932281,407.377808 381.809204,407.377808 
	C381.809204,394.571625 381.809204,382.071045 381.809204,369.176453 
	C369.089355,369.176453 356.799316,369.176453 343.512207,369.176392 
M273.503113,309.853088 
	C268.739532,309.853088 263.975922,309.853088 259.247772,309.853088 
	C259.247772,322.941803 259.247772,335.462921 259.247772,347.786896 
	C276.487274,347.786896 293.363525,347.786896 310.117981,347.786896 
	C310.117981,335.025360 310.117981,322.628937 310.117981,309.853088 
	C298.050354,309.853088 286.276459,309.853088 273.503113,309.853088 
M310.078156,461.404358 
	C310.078156,450.351776 310.078156,439.299164 310.078156,428.295349 
	C292.437897,428.295349 275.718384,428.295349 258.778748,428.295349 
	C258.778748,441.024048 258.778748,453.416656 258.778748,465.846741 
	C259.453827,466.051056 259.907684,466.307648 260.362091,466.308624 
	C275.828644,466.342224 291.295898,466.280304 306.761322,466.422424 
	C309.980286,466.451965 310.306549,464.820526 310.078156,461.404358 
M370.480774,427.960632 
	C357.390045,427.960632 344.299286,427.960632 331.043030,427.960632 
	C331.043030,441.058594 331.043030,453.577789 331.043030,465.923401 
	C348.266174,465.923401 365.124451,465.923401 381.801147,465.923401 
	C381.801147,453.102173 381.801147,440.728455 381.801147,427.960602 
	C378.075470,427.960602 374.774536,427.960602 370.480774,427.960632 
M402.927338,465.409424 
	C403.976990,465.727570 405.025604,466.318695 406.076477,466.322754 
	C421.225189,466.381378 436.374237,466.372406 451.523071,466.331970 
	C452.442749,466.329498 453.361359,465.926422 453.949951,465.787689 
	C453.949951,453.066498 453.949951,440.687286 453.949951,428.275848 
	C436.749359,428.275848 420.021088,428.275848 402.813782,428.275848 
	C402.813782,440.530334 402.813782,452.476227 402.927338,465.409424 
z"/>
<path fill="#F9FAFC" opacity="1.000000" stroke="none" 
	d="
M417.009216,348.679382 
	C412.070251,348.679321 407.629028,348.679321 403.010193,348.679321 
	C403.010193,335.631989 403.010193,323.226166 403.010193,310.499329 
	C420.095215,310.499329 436.954865,310.499329 454.152557,310.499329 
	C454.152557,323.036377 454.152557,335.421783 454.152557,348.679443 
	C441.932770,348.679443 429.719849,348.679443 417.009216,348.679382 
z"/>
<path fill="#F9FAFC" opacity="1.000000" stroke="none" 
	d="
M402.782715,400.895935 
	C402.782684,390.281708 402.782684,380.155273 402.782684,369.603699 
	C419.925293,369.603699 436.769318,369.603699 454.052948,369.603699 
	C454.052948,381.987579 454.052948,394.484039 454.052948,407.332520 
	C437.119080,407.332520 420.266571,407.332520 402.782745,407.332520 
	C402.782745,405.249542 402.782745,403.316650 402.782715,400.895935 
z"/>
<path fill="#F9FAFC" opacity="1.000000" stroke="none" 
	d="
M258.468048,386.004333 
	C258.468170,380.223785 258.468170,374.941864 258.468170,369.423340 
	C275.826111,369.423340 292.563354,369.423340 309.695801,369.423340 
	C309.695801,382.003845 309.695801,394.389832 309.695801,407.230133 
	C292.916107,407.230133 276.057922,407.230133 258.467926,407.230133 
	C258.467926,400.366516 258.467926,393.434753 258.468048,386.004333 
z"/>
<path fill="#FAFAFC" opacity="1.000000" stroke="none" 
	d="
M330.671417,344.807251 
	C330.670990,333.191345 330.670990,322.054077 330.670990,310.549377 
	C347.876434,310.549377 364.732880,310.549377 381.917297,310.549377 
	C381.917297,323.134827 381.917297,335.532654 381.917297,348.364960 
	C380.415161,348.472382 378.972443,348.662933 377.529388,348.665222 
	C363.379333,348.687714 349.229248,348.664337 335.079224,348.692810 
	C332.659424,348.697693 330.162842,348.986389 330.671417,344.807251 
z"/>
<path fill="#FAFAFC" opacity="1.000000" stroke="none" 
	d="
M344.010742,369.176422 
	C356.799316,369.176453 369.089355,369.176453 381.809204,369.176453 
	C381.809204,382.071045 381.809204,394.571625 381.809204,407.377808 
	C364.932281,407.377808 348.193817,407.377808 331.062347,407.377808 
	C331.062347,394.785400 331.062347,382.268707 331.062347,369.176392 
	C335.283783,369.176392 339.397980,369.176392 344.010742,369.176422 
z"/>
<path fill="#FFFFFF" opacity="1.000000" stroke="none" 
	d="
M274.002838,309.853088 
	C286.276459,309.853088 298.050354,309.853088 310.117981,309.853088 
	C310.117981,322.628937 310.117981,335.025360 310.117981,347.786896 
	C293.363525,347.786896 276.487274,347.786896 259.247772,347.786896 
	C259.247772,335.462921 259.247772,322.941803 259.247772,309.853088 
	C263.975922,309.853088 268.739532,309.853088 274.002838,309.853088 
z"/>
<path fill="#FDFDFE" opacity="1.000000" stroke="none" 
	d="
M310.078003,461.893311 
	C310.306549,464.820526 309.980286,466.451965 306.761322,466.422424 
	C291.295898,466.280304 275.828644,466.342224 260.362091,466.308624 
	C259.907684,466.307648 259.453827,466.051056 258.778748,465.846741 
	C258.778748,453.416656 258.778748,441.024048 258.778748,428.295349 
	C275.718384,428.295349 292.437897,428.295349 310.078156,428.295349 
	C310.078156,439.299164 310.078156,450.351776 310.078003,461.893311 
z"/>
<path fill="#FDFDFE" opacity="1.000000" stroke="none" 
	d="
M370.977203,427.960632 
	C374.774536,427.960602 378.075470,427.960602 381.801147,427.960602 
	C381.801147,440.728455 381.801147,453.102173 381.801147,465.923401 
	C365.124451,465.923401 348.266174,465.923401 331.043030,465.923401 
	C331.043030,453.577789 331.043030,441.058594 331.043030,427.960632 
	C344.299286,427.960632 357.390045,427.960632 370.977203,427.960632 
z"/>
<path fill="#FDFDFE" opacity="1.000000" stroke="none" 
	d="
M402.870544,464.915771 
	C402.813782,452.476227 402.813782,440.530334 402.813782,428.275848 
	C420.021088,428.275848 436.749359,428.275848 453.949951,428.275848 
	C453.949951,440.687286 453.949951,453.066498 453.949951,465.787689 
	C453.361359,465.926422 452.442749,466.329498 451.523071,466.331970 
	C436.374237,466.372406 421.225189,466.381378 406.076477,466.322754 
	C405.025604,466.318695 403.976990,465.727570 402.870544,464.915771 
z"/>
<path fill="#CFD9FA" opacity="1.000000" stroke="none" 
	d="
M232.004852,466.023956 
	C216.944839,466.023956 201.884842,466.023956 186.309357,466.023956 
	C186.309357,453.996979 186.216187,442.233704 186.499100,430.479431 
	C186.520081,429.607483 189.231064,428.100067 190.711792,428.074768 
	C202.176987,427.878815 213.647186,427.975098 225.574646,428.530731 
	C226.235229,431.202087 226.304169,433.346252 226.661285,435.441284 
	C228.400192,445.642700 230.216156,455.831024 232.004852,466.023956 
z"/>
<path fill="#D2DCFD" opacity="1.000000" stroke="none" 
	d="
M223.998840,347.958649 
	C211.852249,347.958649 199.705658,347.958649 187.159698,347.958649 
	C187.159698,335.402649 187.159698,322.882935 187.159698,309.896240 
	C200.539124,309.896240 213.824402,309.896240 227.571777,310.428284 
	C227.816238,312.764709 227.578888,314.566895 227.384262,316.373718 
	C226.250229,326.901428 225.126236,337.430237 223.998840,347.958649 
z"/>
<path fill="#CBD6F7" opacity="1.000000" stroke="none" 
	d="
M223.084808,407.288544 
	C211.773605,407.426727 200.461960,407.639496 189.152023,407.570129 
	C188.182968,407.564178 186.407684,405.699402 186.388367,404.672119 
	C186.184814,393.843994 186.309357,383.010223 186.231644,372.178802 
	C186.210220,369.192139 188.000565,369.132538 190.174835,369.144501 
	C200.506119,369.201324 210.837708,369.203033 221.613678,369.793396 
	C222.400391,382.671082 222.742599,394.979828 223.084808,407.288544 
z"/>
<path fill="#FEFEFF" opacity="1.000000" stroke="none" 
	d="
M223.525360,407.430664 
	C222.742599,394.979828 222.400391,382.671082 222.069412,369.926697 
	C227.161316,369.490997 232.241974,369.490997 237.623383,369.490997 
	C237.623383,382.102905 237.623383,394.461426 237.623383,407.572754 
	C233.099304,407.572754 228.532608,407.572754 223.525360,407.430664 
z"/>
<path fill="#FFFFFF" opacity="1.000000" stroke="none" 
	d="
M224.459991,348.041748 
	C225.126236,337.430237 226.250229,326.901428 227.384262,316.373718 
	C227.578888,314.566895 227.816238,312.764709 228.032654,310.531128 
	C231.164505,310.101868 234.297516,310.101868 237.825195,310.101868 
	C237.825195,322.441193 237.825195,334.917725 237.825195,348.124847 
	C233.699493,348.124847 229.310318,348.124847 224.459991,348.041748 
z"/>
<path fill="#FEFEFF" opacity="1.000000" stroke="none" 
	d="
M232.441650,466.143219 
	C230.216156,455.831024 228.400192,445.642700 226.661285,435.441284 
	C226.304169,433.346252 226.235229,431.202087 226.030212,428.655151 
	C229.785217,428.229706 233.543488,428.229706 237.612579,428.229706 
	C237.612579,440.871033 237.612579,453.225067 237.612579,466.262482 
	C236.016724,466.262482 234.447586,466.262482 232.441650,466.143219 
z"/>
</svg>