<svg version="1.1" id="Layer_1" xmlns="http://www.w3.org/2000/svg" xmlns:xlink="http://www.w3.org/1999/xlink" x="0px" y="0px"
	 width="100%" viewBox="0 0 640 640" enable-background="new 0 0 640 640" xml:space="preserve">
<path fill="#FEFEFF" opacity="1.000000" stroke="none" 
	d="
M431.000000,641.000000 
	C287.333374,641.000000 144.166718,641.000000 1.000058,641.000000 
	C1.000038,427.666718 1.000038,214.333466 1.000019,1.000144 
	C214.333237,1.000096 427.666473,1.000096 640.999756,1.000048 
	C640.999878,214.333191 640.999878,427.666382 640.999939,640.999756 
	C571.166687,641.000000 501.333344,641.000000 431.000000,641.000000 
M405.937500,152.523209 
	C407.770477,161.776413 412.366028,169.661774 419.506653,177.284531 
	C416.406830,177.284531 414.753540,177.284515 413.100250,177.284515 
	C391.435455,177.284546 369.770630,177.267136 348.105865,177.292587 
	C338.456238,177.303925 334.842316,180.935135 334.790161,190.636887 
	C334.746307,198.802612 334.780731,206.968765 334.780762,215.134720 
	C334.780823,232.966507 334.774414,250.798309 334.783600,268.630096 
	C334.789276,279.702087 338.031769,283.002808 348.936432,283.129730 
	C350.388580,283.146637 351.839264,283.285706 353.790314,283.396576 
	C350.698120,295.596588 352.378693,306.469604 360.943634,315.720276 
	C369.622040,325.093475 381.050903,325.702820 393.222870,325.003326 
	C393.222870,327.390076 393.222351,329.010620 393.222900,330.631195 
	C393.243683,390.625793 393.154510,450.620911 393.444061,510.614227 
	C393.475372,517.105835 394.483185,524.143372 397.144562,529.964600 
	C404.095673,545.168823 420.927002,553.130554 436.466522,549.833374 
	C453.233521,546.275574 464.989441,532.184326 465.588440,514.512207 
	C465.881836,505.855988 465.642700,497.182190 465.687408,488.516571 
	C465.694122,487.211609 465.935486,485.907806 466.068298,484.603485 
	C468.203186,488.187622 469.474609,491.762329 470.754150,495.334137 
	C474.800110,506.628387 478.482178,518.070435 482.988678,529.177917 
	C488.780579,543.453491 503.030426,551.595032 518.722473,550.399536 
	C533.307007,549.288330 545.445984,538.901245 549.106934,524.121704 
	C551.518372,514.386353 549.721680,504.945038 546.543335,495.652679 
	C537.538025,469.324341 528.492859,443.009033 519.670471,416.619354 
	C518.380005,412.759399 517.633972,408.523102 517.624390,404.458618 
	C517.492859,348.463745 517.448486,292.468292 517.583923,236.473465 
	C517.627136,218.612854 512.293945,203.036102 499.571747,190.307770 
	C496.075043,186.809357 492.154816,183.734283 488.277710,180.332291 
	C490.017212,178.479965 491.757080,176.705460 493.410889,174.854034 
	C508.680725,157.759567 510.206909,131.237976 496.996857,112.837479 
	C482.717407,92.947411 457.506348,85.580055 435.766418,94.944290 
	C413.328217,104.609314 402.062256,125.905937 405.937500,152.523209 
M321.501984,487.500244 
	C321.501984,459.444031 321.501984,431.387787 321.501984,403.012817 
	C325.231232,403.012817 328.043335,403.028229 330.855255,403.010040 
	C340.428558,402.948120 344.007233,399.344360 344.033173,389.635071 
	C344.065674,377.471527 344.069519,365.307739 344.031433,353.144226 
	C344.001343,343.535309 340.417145,340.014893 330.633850,339.995514 
	C314.304688,339.963165 297.975372,339.985779 281.646118,339.985260 
	C279.877167,339.985199 278.108185,339.985260 276.919769,339.985260 
	C276.919769,334.093231 277.738647,328.658325 276.692841,323.609650 
	C275.615204,318.407349 272.721313,313.581268 270.491302,308.279663 
	C280.001190,294.316864 290.004944,279.971008 299.642883,265.383423 
	C309.585999,250.333893 306.212646,231.936066 292.062164,222.057129 
	C278.032104,212.262299 259.567810,215.818619 249.002533,230.509415 
	C244.432571,236.863861 239.545578,243.116501 235.959366,250.016602 
	C232.406937,256.851776 227.196121,259.115509 220.591873,257.256439 
	C216.109344,255.994644 212.197342,252.706116 207.751968,250.164932 
	C233.849884,227.239929 229.785812,193.392181 212.433853,175.970734 
	C194.089783,157.553207 164.912933,155.506744 145.254669,171.884644 
	C135.123367,180.325348 128.634644,190.923691 127.102249,204.176178 
	C124.999779,222.358658 131.083023,237.505646 145.153687,249.647781 
	C142.542282,251.598770 140.387909,253.130737 138.316818,254.768021 
	C123.477798,266.499084 115.274864,281.706757 114.704063,300.719055 
	C114.419151,310.208588 114.565559,319.711487 114.547569,329.208405 
	C114.527718,339.686066 114.542923,339.682343 103.904465,339.996613 
	C102.907822,340.026062 101.902229,340.069885 100.920334,340.228210 
	C95.815132,341.051453 92.152603,344.400696 92.060913,349.537170 
	C91.802277,364.026764 91.754318,378.527557 92.038490,393.015808 
	C92.156532,399.033478 96.414001,402.616943 102.462448,402.973389 
	C103.791245,403.051727 105.127579,402.996368 106.460251,403.015717 
	C115.796394,403.151215 114.512444,401.759857 114.524025,411.347961 
	C114.570305,449.671692 114.529663,487.995483 114.553444,526.319275 
	C114.559319,535.788757 118.112549,539.500122 127.406868,539.505981 
	C187.725128,539.544189 248.043442,539.542419 308.361725,539.508240 
	C317.742218,539.502930 321.444366,535.781250 321.486755,526.490723 
	C321.544556,513.827454 321.501556,501.163788 321.501984,487.500244 
z"/>
<path fill="#092E78" opacity="1.000000" stroke="none" 
	d="
M405.845886,152.100494 
	C402.062256,125.905937 413.328217,104.609314 435.766418,94.944290 
	C457.506348,85.580055 482.717407,92.947411 496.996857,112.837479 
	C510.206909,131.237976 508.680725,157.759567 493.410889,174.854034 
	C491.757080,176.705460 490.017212,178.479965 488.277710,180.332291 
	C492.154816,183.734283 496.075043,186.809357 499.571747,190.307770 
	C512.293945,203.036102 517.627136,218.612854 517.583923,236.473465 
	C517.448486,292.468292 517.492859,348.463745 517.624390,404.458618 
	C517.633972,408.523102 518.380005,412.759399 519.670471,416.619354 
	C528.492859,443.009033 537.538025,469.324341 546.543335,495.652679 
	C549.721680,504.945038 551.518372,514.386353 549.106934,524.121704 
	C545.445984,538.901245 533.307007,549.288330 518.722473,550.399536 
	C503.030426,551.595032 488.780579,543.453491 482.988678,529.177917 
	C478.482178,518.070435 474.800110,506.628387 470.754150,495.334137 
	C469.474609,491.762329 468.203186,488.187622 466.068298,484.603485 
	C465.935486,485.907806 465.694122,487.211609 465.687408,488.516571 
	C465.642700,497.182190 465.881836,505.855988 465.588440,514.512207 
	C464.989441,532.184326 453.233521,546.275574 436.466522,549.833374 
	C420.927002,553.130554 404.095673,545.168823 397.144562,529.964600 
	C394.483185,524.143372 393.475372,517.105835 393.444061,510.614227 
	C393.154510,450.620911 393.243683,390.625793 393.222900,330.631195 
	C393.222351,329.010620 393.222870,327.390076 393.222870,325.003326 
	C381.050903,325.702820 369.622040,325.093475 360.943634,315.720276 
	C352.378693,306.469604 350.698120,295.596588 353.790314,283.396576 
	C351.839264,283.285706 350.388580,283.146637 348.936432,283.129730 
	C338.031769,283.002808 334.789276,279.702087 334.783600,268.630096 
	C334.774414,250.798309 334.780823,232.966507 334.780762,215.134720 
	C334.780731,206.968765 334.746307,198.802612 334.790161,190.636887 
	C334.842316,180.935135 338.456238,177.303925 348.105865,177.292587 
	C369.770630,177.267136 391.435455,177.284546 413.100250,177.284515 
	C414.753540,177.284515 416.406830,177.284531 419.506653,177.284531 
	C412.366028,169.661774 407.770477,161.776413 405.845886,152.100494 
M496.883759,313.993591 
	C496.905792,287.331268 497.275543,260.663483 496.857330,234.008057 
	C496.388031,204.094208 469.046844,185.259659 440.735535,194.828186 
	C432.681213,197.550354 432.230865,198.166504 432.230560,206.485413 
	C432.229828,227.482742 432.242920,248.480072 432.224030,269.477386 
	C432.214783,279.791443 428.090485,283.894226 417.666229,283.930756 
	C406.667816,283.969299 395.651245,283.584198 384.681244,284.142883 
	C381.294250,284.315399 376.940002,286.162781 375.036499,288.731323 
	C373.285614,291.093964 373.220093,295.789062 374.226562,298.862518 
	C375.810913,303.700592 380.638153,304.698151 385.375092,304.703949 
	C404.372589,304.727325 423.371033,304.823059 442.367371,304.673431 
	C452.096283,304.596832 455.707947,300.656189 455.727356,290.728638 
	C455.758942,274.564148 455.714417,258.399475 455.719757,242.234894 
	C455.721954,235.569946 455.667175,228.902390 455.834473,222.240967 
	C455.942383,217.944031 458.440491,214.978790 462.312134,213.577530 
	C466.413330,212.093170 470.634552,212.827148 473.076508,216.512878 
	C474.783997,219.089981 475.864136,222.582993 475.903656,225.683762 
	C476.160767,245.844757 475.810181,266.014740 476.171265,286.172638 
	C476.358154,296.606506 475.315338,306.434021 468.097290,315.263702 
	C461.277161,322.086700 453.200287,325.527344 443.400085,325.135986 
	C435.579620,324.823669 427.722595,325.356323 419.909119,324.966400 
	C415.113403,324.727081 413.777893,326.174835 413.791992,331.022003 
	C413.965179,390.518372 413.913452,450.015381 413.922791,509.512238 
	C413.923126,511.511932 413.827698,513.522095 413.992584,515.509521 
	C414.795105,525.180664 423.700073,531.532471 433.144928,529.232422 
	C440.837463,527.359070 445.001709,521.775024 445.008545,512.977356 
	C445.041840,470.146271 445.013336,427.315216 445.062195,384.484161 
	C445.065002,382.016388 445.163025,379.422607 445.906372,377.109039 
	C447.303406,372.760712 450.489624,370.084656 455.198730,370.169556 
	C459.727081,370.251160 463.265533,372.419159 464.775879,376.854370 
	C465.509613,379.009064 465.779358,381.410095 465.801056,383.703949 
	C465.903320,394.535767 465.811249,405.369293 465.880371,416.201599 
	C465.892914,418.169739 465.988464,420.256104 466.628845,422.083618 
	C475.766632,448.163147 484.972870,474.218933 494.239105,500.253174 
	C496.860687,507.618744 499.434265,515.026123 502.578491,522.172913 
	C504.987946,527.649597 511.333740,530.631958 517.062805,529.920898 
	C523.415710,529.132385 528.262024,525.021667 529.068726,518.371033 
	C529.570435,514.235352 529.243286,509.647278 527.946777,505.703186 
	C520.407410,482.768097 512.708191,459.878662 504.578796,437.146973 
	C499.665436,423.408020 496.006104,409.766266 496.763397,394.858917 
	C497.616302,378.069794 496.991974,361.203918 496.947449,344.371582 
	C496.921448,334.546265 496.772522,324.721283 496.883759,313.993591 
M411.811401,199.876205 
	C410.364746,199.212128 408.922882,197.982941 407.470673,197.970596 
	C391.329407,197.833282 375.186523,197.876572 359.044128,197.901337 
	C357.941620,197.903030 356.839539,198.146973 355.648804,198.288788 
	C355.648804,219.781067 355.648804,240.961700 355.648804,262.137878 
	C374.545563,262.137878 393.056976,262.137878 411.838226,262.137878 
	C411.838226,241.396957 411.838226,221.105652 411.811401,199.876205 
M426.237976,148.724762 
	C426.382202,149.203400 426.527252,149.681824 426.670532,150.160736 
	C430.976196,164.551605 444.149353,172.865341 459.957275,171.168198 
	C472.889160,169.779816 483.875000,158.187180 485.132874,144.602066 
	C486.491394,129.930206 477.829987,117.057426 463.851654,112.908051 
	C443.767822,106.946289 421.524780,123.448792 426.237976,148.724762 
z"/>
<path fill="#082D77" opacity="1.000000" stroke="none" 
	d="
M321.501892,488.000244 
	C321.501556,501.163788 321.544556,513.827454 321.486755,526.490723 
	C321.444366,535.781250 317.742218,539.502930 308.361725,539.508240 
	C248.043442,539.542419 187.725128,539.544189 127.406868,539.505981 
	C118.112549,539.500122 114.559319,535.788757 114.553444,526.319275 
	C114.529663,487.995483 114.570305,449.671692 114.524025,411.347961 
	C114.512444,401.759857 115.796394,403.151215 106.460251,403.015717 
	C105.127579,402.996368 103.791245,403.051727 102.462448,402.973389 
	C96.414001,402.616943 92.156532,399.033478 92.038490,393.015808 
	C91.754318,378.527557 91.802277,364.026764 92.060913,349.537170 
	C92.152603,344.400696 95.815132,341.051453 100.920334,340.228210 
	C101.902229,340.069885 102.907822,340.026062 103.904465,339.996613 
	C114.542923,339.682343 114.527718,339.686066 114.547569,329.208405 
	C114.565559,319.711487 114.419151,310.208588 114.704063,300.719055 
	C115.274864,281.706757 123.477798,266.499084 138.316818,254.768021 
	C140.387909,253.130737 142.542282,251.598770 145.153687,249.647781 
	C131.083023,237.505646 124.999779,222.358658 127.102249,204.176178 
	C128.634644,190.923691 135.123367,180.325348 145.254669,171.884644 
	C164.912933,155.506744 194.089783,157.553207 212.433853,175.970734 
	C229.785812,193.392181 233.849884,227.239929 207.751968,250.164932 
	C212.197342,252.706116 216.109344,255.994644 220.591873,257.256439 
	C227.196121,259.115509 232.406937,256.851776 235.959366,250.016602 
	C239.545578,243.116501 244.432571,236.863861 249.002533,230.509415 
	C259.567810,215.818619 278.032104,212.262299 292.062164,222.057129 
	C306.212646,231.936066 309.585999,250.333893 299.642883,265.383423 
	C290.004944,279.971008 280.001190,294.316864 270.491302,308.279663 
	C272.721313,313.581268 275.615204,318.407349 276.692841,323.609650 
	C277.738647,328.658325 276.919769,334.093231 276.919769,339.985260 
	C278.108185,339.985260 279.877167,339.985199 281.646118,339.985260 
	C297.975372,339.985779 314.304688,339.963165 330.633850,339.995514 
	C340.417145,340.014893 344.001343,343.535309 344.031433,353.144226 
	C344.069519,365.307739 344.065674,377.471527 344.033173,389.635071 
	C344.007233,399.344360 340.428558,402.948120 330.855255,403.010040 
	C328.043335,403.028229 325.231232,403.012817 321.501984,403.012817 
	C321.501984,431.387787 321.501984,459.444031 321.501892,488.000244 
M300.892578,428.147888 
	C300.892578,419.897949 300.892578,411.648010 300.892578,403.367310 
	C245.234695,403.367310 190.376740,403.367310 135.263123,403.367310 
	C135.263123,412.159149 135.263123,420.598877 135.040512,429.947052 
	C135.040512,459.525909 135.040512,489.104767 135.040512,518.799133 
	C190.604034,518.799133 245.572601,518.799133 300.908417,518.799133 
	C300.908417,514.073547 300.920135,509.769135 300.906464,505.464783 
	C300.825653,479.998840 300.738892,454.532867 300.892578,428.147888 
M242.275269,319.175720 
	C231.782928,319.172882 221.289749,319.249329 210.798538,319.139221 
	C203.878418,319.066620 199.259552,314.733765 199.255753,308.642609 
	C199.252350,303.183807 204.194092,299.021973 210.919678,298.836639 
	C212.251175,298.799927 213.856735,299.279938 214.845428,298.694031 
	C215.999115,298.010345 217.495483,296.279633 217.331879,295.241364 
	C214.748383,278.844269 197.970901,263.783905 181.653412,262.069885 
	C159.903854,259.785278 142.666870,273.727386 137.585327,289.364655 
	C132.481705,305.069916 135.739487,321.444122 135.145599,337.513824 
	C135.119064,338.231812 136.503036,339.639618 137.247223,339.651550 
	C146.492584,339.799683 155.741150,339.748352 165.656281,339.748352 
	C165.041153,337.014832 164.686386,335.105347 164.178497,333.237457 
	C161.602448,323.763428 158.907471,314.320953 156.418091,304.824463 
	C155.164246,300.041351 157.107666,296.226685 161.127060,293.717468 
	C165.088913,291.244263 169.263336,291.644470 172.633591,294.842407 
	C174.336014,296.457764 175.730743,298.770538 176.410248,301.025421 
	C179.193909,310.262939 181.595367,319.614777 184.241531,328.894867 
	C186.347382,336.280090 189.534073,339.711578 194.891830,339.749634 
	C212.377945,339.873810 229.866043,339.863525 247.352173,339.737396 
	C252.164520,339.702698 256.189484,335.714661 256.822235,331.038971 
	C257.483704,326.150604 254.851517,321.608551 250.084351,320.103394 
	C247.910629,319.417023 245.505798,319.462677 242.275269,319.175720 
M138.499954,382.650177 
	C173.971359,382.650238 209.442780,382.650330 244.914185,382.650360 
	C268.894836,382.650391 292.875488,382.650970 316.856140,382.650024 
	C323.712860,382.649750 323.713043,382.647705 323.714111,375.551270 
	C323.714600,372.387146 323.421051,369.189087 323.782898,366.066895 
	C324.324829,361.390808 322.521667,360.237213 317.964020,360.251282 
	C267.338684,360.407471 216.712692,360.349640 166.086868,360.349670 
	C149.766708,360.349670 133.445755,360.435059 117.127007,360.282501 
	C113.585487,360.249359 111.901489,361.012085 112.165390,364.955139 
	C112.476082,369.597290 112.352570,374.279846 112.197952,378.937592 
	C112.103210,381.791260 113.255165,382.734222 116.017944,382.688477 
	C123.176857,382.569916 130.339050,382.649353 138.499954,382.650177 
M198.579880,230.053284 
	C206.823654,220.711288 208.184738,209.944656 203.508118,198.894287 
	C198.751297,187.654419 189.421173,181.720810 177.219513,181.413223 
	C165.212555,181.110535 156.083466,186.615875 150.402725,197.254028 
	C143.573715,210.042496 147.603317,226.096115 159.872467,234.915970 
	C170.083038,242.255966 187.900055,242.196564 198.579880,230.053284 
M251.195724,263.698853 
	C246.515976,269.839233 244.236465,278.653748 234.427124,278.309113 
	C235.762283,284.671722 236.916992,290.516418 238.280731,296.311951 
	C238.490051,297.201508 239.533081,298.300262 240.410919,298.561371 
	C246.178558,300.276886 252.482697,298.269196 255.925186,293.286469 
	C264.919525,280.267975 273.816010,267.179291 282.560425,253.991837 
	C286.409760,248.186691 285.137543,241.961990 279.926788,238.680115 
	C274.928375,235.531982 269.402954,237.068405 265.389343,242.864822 
	C260.742859,249.575226 256.196320,256.354858 251.195724,263.698853 
z"/>
<path fill="#27A1CB" opacity="1.000000" stroke="none" 
	d="
M496.678955,314.896149 
	C496.772522,324.721283 496.921448,334.546265 496.947449,344.371582 
	C496.991974,361.203918 497.616302,378.069794 496.763397,394.858917 
	C496.006104,409.766266 499.665436,423.408020 504.578796,437.146973 
	C512.708191,459.878662 520.407410,482.768097 527.946777,505.703186 
	C529.243286,509.647278 529.570435,514.235352 529.068726,518.371033 
	C528.262024,525.021667 523.415710,529.132385 517.062805,529.920898 
	C511.333740,530.631958 504.987946,527.649597 502.578491,522.172913 
	C499.434265,515.026123 496.860687,507.618744 494.239105,500.253174 
	C484.972870,474.218933 475.766632,448.163147 466.628845,422.083618 
	C465.988464,420.256104 465.892914,418.169739 465.880371,416.201599 
	C465.811249,405.369293 465.903320,394.535767 465.801056,383.703949 
	C465.779358,381.410095 465.509613,379.009064 464.775879,376.854370 
	C463.265533,372.419159 459.727081,370.251160 455.198730,370.169556 
	C450.489624,370.084656 447.303406,372.760712 445.906372,377.109039 
	C445.163025,379.422607 445.065002,382.016388 445.062195,384.484161 
	C445.013336,427.315216 445.041840,470.146271 445.008545,512.977356 
	C445.001709,521.775024 440.837463,527.359070 433.144928,529.232422 
	C423.700073,531.532471 414.795105,525.180664 413.992584,515.509521 
	C413.827698,513.522095 413.923126,511.511932 413.922791,509.512238 
	C413.913452,450.015381 413.965179,390.518372 413.791992,331.022003 
	C413.777893,326.174835 415.113403,324.727081 419.909119,324.966400 
	C427.722595,325.356323 435.579620,324.823669 443.400085,325.135986 
	C453.200287,325.527344 461.277161,322.086700 468.878448,315.116211 
	C478.666046,314.944519 487.672485,314.920319 496.678955,314.896149 
z"/>
<path fill="#64C8CF" opacity="1.000000" stroke="none" 
	d="
M496.781342,314.444885 
	C487.672485,314.920319 478.666046,314.944519 469.159729,314.957825 
	C475.315338,306.434021 476.358154,296.606506 476.171265,286.172638 
	C475.810181,266.014740 476.160767,245.844757 475.903656,225.683762 
	C475.864136,222.582993 474.783997,219.089981 473.076508,216.512878 
	C470.634552,212.827148 466.413330,212.093170 462.312134,213.577530 
	C458.440491,214.978790 455.942383,217.944031 455.834473,222.240967 
	C455.667175,228.902390 455.721954,235.569946 455.719757,242.234894 
	C455.714417,258.399475 455.758942,274.564148 455.727356,290.728638 
	C455.707947,300.656189 452.096283,304.596832 442.367371,304.673431 
	C423.371033,304.823059 404.372589,304.727325 385.375092,304.703949 
	C380.638153,304.698151 375.810913,303.700592 374.226562,298.862518 
	C373.220093,295.789062 373.285614,291.093964 375.036499,288.731323 
	C376.940002,286.162781 381.294250,284.315399 384.681244,284.142883 
	C395.651245,283.584198 406.667816,283.969299 417.666229,283.930756 
	C428.090485,283.894226 432.214783,279.791443 432.224030,269.477386 
	C432.242920,248.480072 432.229828,227.482742 432.230560,206.485413 
	C432.230865,198.166504 432.681213,197.550354 440.735535,194.828186 
	C469.046844,185.259659 496.388031,204.094208 496.857330,234.008057 
	C497.275543,260.663483 496.905792,287.331268 496.781342,314.444885 
z"/>
<path fill="#F9FAFC" opacity="1.000000" stroke="none" 
	d="
M411.824829,200.345276 
	C411.838226,221.105652 411.838226,241.396957 411.838226,262.137878 
	C393.056976,262.137878 374.545563,262.137878 355.648804,262.137878 
	C355.648804,240.961700 355.648804,219.781067 355.648804,198.288788 
	C356.839539,198.146973 357.941620,197.903030 359.044128,197.901337 
	C375.186523,197.876572 391.329407,197.833282 407.470673,197.970596 
	C408.922882,197.982941 410.364746,199.212128 411.824829,200.345276 
z"/>
<path fill="#F9BCB8" opacity="1.000000" stroke="none" 
	d="
M426.129059,148.299225 
	C421.524780,123.448792 443.767822,106.946289 463.851654,112.908051 
	C477.829987,117.057426 486.491394,129.930206 485.132874,144.602066 
	C483.875000,158.187180 472.889160,169.779816 459.957275,171.168198 
	C444.149353,172.865341 430.976196,164.551605 426.670532,150.160736 
	C426.527252,149.681824 426.382202,149.203400 426.129059,148.299225 
z"/>
<path fill="#FFFEFE" opacity="1.000000" stroke="none" 
	d="
M300.654144,429.066925 
	C300.738892,454.532867 300.825653,479.998840 300.906464,505.464783 
	C300.920135,509.769135 300.908417,514.073547 300.908417,518.799133 
	C245.572601,518.799133 190.604034,518.799133 135.040512,518.799133 
	C135.040512,489.104767 135.040512,459.525909 135.602783,429.490479 
	C190.994751,429.044891 245.824448,429.055908 300.654144,429.066925 
M200.532227,450.793579 
	C199.205063,450.889008 197.861710,450.884857 196.553528,451.097229 
	C191.055420,451.989838 187.609711,456.099152 187.774979,461.473785 
	C187.937866,466.771332 191.758514,470.661255 197.322021,471.148132 
	C200.586380,471.433807 205.049896,470.486053 206.788757,472.248810 
	C208.549164,474.033356 207.543304,478.482208 207.879242,481.750671 
	C208.467972,487.478729 212.776962,491.552673 218.029526,491.468292 
	C223.396332,491.382050 227.566757,487.276581 228.053299,481.599060 
	C228.332397,478.342255 227.440155,473.867706 229.211929,472.166199 
	C231.031189,470.418976 235.457062,471.433960 238.733871,471.145599 
	C244.235855,470.661407 248.062027,466.652710 248.162186,461.365204 
	C248.264175,455.982025 244.782074,451.831726 239.281982,451.090546 
	C235.855743,450.628876 230.972061,451.754852 229.305328,449.884491 
	C227.379776,447.723724 228.377502,443.038635 227.914078,439.474579 
	C227.278671,434.587830 223.286819,431.076843 218.380936,430.873016 
	C213.464798,430.668793 209.169327,433.839569 208.170975,438.661316 
	C207.770386,440.595947 207.512772,442.687439 207.805771,444.613953 
	C208.604355,449.865051 206.375336,451.637604 200.532227,450.793579 
z"/>
<path fill="#65C8CF" opacity="1.000000" stroke="none" 
	d="
M242.740524,319.176025 
	C245.505798,319.462677 247.910629,319.417023 250.084351,320.103394 
	C254.851517,321.608551 257.483704,326.150604 256.822235,331.038971 
	C256.189484,335.714661 252.164520,339.702698 247.352173,339.737396 
	C229.866043,339.863525 212.377945,339.873810 194.891830,339.749634 
	C189.534073,339.711578 186.347382,336.280090 184.241531,328.894867 
	C181.595367,319.614777 179.193909,310.262939 176.410248,301.025421 
	C175.730743,298.770538 174.336014,296.457764 172.633591,294.842407 
	C169.263336,291.644470 165.088913,291.244263 161.127060,293.717468 
	C157.107666,296.226685 155.164246,300.041351 156.418091,304.824463 
	C158.907471,314.320953 161.602448,323.763428 164.178497,333.237457 
	C164.686386,335.105347 165.041153,337.014832 165.656281,339.748352 
	C155.741150,339.748352 146.492584,339.799683 137.247223,339.651550 
	C136.503036,339.639618 135.119064,338.231812 135.145599,337.513824 
	C135.739487,321.444122 132.481705,305.069916 137.585327,289.364655 
	C142.666870,273.727386 159.903854,259.785278 181.653412,262.069885 
	C197.970901,263.783905 214.748383,278.844269 217.331879,295.241364 
	C217.495483,296.279633 215.999115,298.010345 214.845428,298.694031 
	C213.856735,299.279938 212.251175,298.799927 210.919678,298.836639 
	C204.194092,299.021973 199.252350,303.183807 199.255753,308.642609 
	C199.259552,314.733765 203.878418,319.066620 210.798538,319.139221 
	C221.289749,319.249329 231.782928,319.172882 242.740524,319.176025 
z"/>
<path fill="#8CACEE" opacity="1.000000" stroke="none" 
	d="
M137.999939,382.649963 
	C130.339050,382.649353 123.176857,382.569916 116.017944,382.688477 
	C113.255165,382.734222 112.103210,381.791260 112.197952,378.937592 
	C112.352570,374.279846 112.476082,369.597290 112.165390,364.955139 
	C111.901489,361.012085 113.585487,360.249359 117.127007,360.282501 
	C133.445755,360.435059 149.766708,360.349670 166.086868,360.349670 
	C216.712692,360.349640 267.338684,360.407471 317.964020,360.251282 
	C322.521667,360.237213 324.324829,361.390808 323.782898,366.066895 
	C323.421051,369.189087 323.714600,372.387146 323.714111,375.551270 
	C323.713043,382.647705 323.712860,382.649750 316.856140,382.650024 
	C292.875488,382.650970 268.894836,382.650391 244.914185,382.650360 
	C209.442780,382.650330 173.971359,382.650238 137.999939,382.649963 
z"/>
<path fill="#D0DAFA" opacity="1.000000" stroke="none" 
	d="
M300.773376,428.607422 
	C245.824448,429.055908 190.994751,429.044891 135.714081,429.036255 
	C135.263123,420.598877 135.263123,412.159149 135.263123,403.367310 
	C190.376740,403.367310 245.234695,403.367310 300.892578,403.367310 
	C300.892578,411.648010 300.892578,419.897949 300.773376,428.607422 
z"/>
<path fill="#F9BBB8" opacity="1.000000" stroke="none" 
	d="
M198.337494,230.317154 
	C187.900055,242.196564 170.083038,242.255966 159.872467,234.915970 
	C147.603317,226.096115 143.573715,210.042496 150.402725,197.254028 
	C156.083466,186.615875 165.212555,181.110535 177.219513,181.413223 
	C189.421173,181.720810 198.751297,187.654419 203.508118,198.894287 
	C208.184738,209.944656 206.823654,220.711288 198.337494,230.317154 
z"/>
<path fill="#64C7CE" opacity="1.000000" stroke="none" 
	d="
M251.401062,263.401642 
	C256.196320,256.354858 260.742859,249.575226 265.389343,242.864822 
	C269.402954,237.068405 274.928375,235.531982 279.926788,238.680115 
	C285.137543,241.961990 286.409760,248.186691 282.560425,253.991837 
	C273.816010,267.179291 264.919525,280.267975 255.925186,293.286469 
	C252.482697,298.269196 246.178558,300.276886 240.410919,298.561371 
	C239.533081,298.300262 238.490051,297.201508 238.280731,296.311951 
	C236.916992,290.516418 235.762283,284.671722 234.427124,278.309113 
	C244.236465,278.653748 246.515976,269.839233 251.401062,263.401642 
z"/>
<path fill="#FD6354" opacity="1.000000" stroke="none" 
	d="
M200.983719,450.793213 
	C206.375336,451.637604 208.604355,449.865051 207.805771,444.613953 
	C207.512772,442.687439 207.770386,440.595947 208.170975,438.661316 
	C209.169327,433.839569 213.464798,430.668793 218.380936,430.873016 
	C223.286819,431.076843 227.278671,434.587830 227.914078,439.474579 
	C228.377502,443.038635 227.379776,447.723724 229.305328,449.884491 
	C230.972061,451.754852 235.855743,450.628876 239.281982,451.090546 
	C244.782074,451.831726 248.264175,455.982025 248.162186,461.365204 
	C248.062027,466.652710 244.235855,470.661407 238.733871,471.145599 
	C235.457062,471.433960 231.031189,470.418976 229.211929,472.166199 
	C227.440155,473.867706 228.332397,478.342255 228.053299,481.599060 
	C227.566757,487.276581 223.396332,491.382050 218.029526,491.468292 
	C212.776962,491.552673 208.467972,487.478729 207.879242,481.750671 
	C207.543304,478.482208 208.549164,474.033356 206.788757,472.248810 
	C205.049896,470.486053 200.586380,471.433807 197.322021,471.148132 
	C191.758514,470.661255 187.937866,466.771332 187.774979,461.473785 
	C187.609711,456.099152 191.055420,451.989838 196.553528,451.097229 
	C197.861710,450.884857 199.205063,450.889008 200.983719,450.793213 
z"/>
</svg>